Cantique-Normal.ufo
<glyph name="numbersign" format="2">
	<advance width="755"/>
	<unicode hex="0023"/>
	<note>
		numbersign
  </note>
	<outline>
		<contour>
			<point x="219" y="116" type="line"/>
			<point x="178" y="0" type="line"/>
			<point x="192" y="0" type="line"/>
			<point x="234" y="116" type="line"/>
			<point x="419" y="116" type="line"/>
			<point x="378" y="0" type="line"/>
			<point x="392" y="0" type="line"/>
			<point x="434" y="116" type="line"/>
			<point x="580" y="116" type="line"/>
			<point x="586" y="130" type="line"/>
			<point x="439" y="130" type="line"/>
			<point x="503" y="303" type="line"/>
			<point x="649" y="303" type="line"/>
			<point x="655" y="318" type="line"/>
			<point x="508" y="318" type="line"/>
			<point x="558" y="452" type="line"/>
			<point x="545" y="452" type="line"/>
			<point x="493" y="318" type="line"/>
			<point x="308" y="318" type="line"/>
			<point x="358" y="452" type="line"/>
			<point x="345" y="452" type="line"/>
			<point x="293" y="318" type="line"/>
			<point x="175" y="318" type="line"/>
			<point x="169" y="304" type="line"/>
			<point x="288" y="304" type="line"/>
			<point x="224" y="130" type="line"/>
			<point x="106" y="130" type="line"/>
			<point x="100" y="116" type="line"/>
		</contour>
		<contour>
			<point x="424" y="130" type="line"/>
			<point x="239" y="130" type="line"/>
			<point x="301" y="304" type="line"/>
			<point x="488" y="303" type="line"/>
		</contour>
	</outline>
</glyph>
<glyph name="dollar" format="2">
	<advance width="849"/>
	<unicode hex="0024"/>
	<note>
		dollar
  </note>
	<outline>
		<contour>
			<point x="377" y="-814" type="curve"/>
			<point x="377" y="-814" type="line"/>
			<point x="515" y="-814"/>
			<point x="645" y="-754"/>
			<point x="724" y="-645" type="curve"/>
			<point x="778" y="-562"/>
			<point x="802" y="-466"/>
			<point x="802" y="-370" type="curve"/>
			<point x="802" y="-176"/>
			<point x="703" y="20"/>
			<point x="551" y="108" type="curve"/>
			<point x="486" y="146" type="line"/>
			<point x="486" y="737" type="line"/>
			<point x="595" y="691"/>
			<point x="689" y="599"/>
			<point x="723" y="488" type="curve"/>
			<point x="735" y="488" type="line"/>
			<point x="735" y="491"/>
			<point x="717" y="600"/>
			<point x="717" y="637" type="curve"/>
			<point x="717" y="679"/>
			<point x="717" y="701"/>
			<point x="735" y="780" type="curve"/>
			<point x="723" y="780" type="line"/>
			<point x="716" y="737"/>
			<point x="702" y="705"/>
			<point x="678" y="683" type="curve"/>
			<point x="602" y="762"/>
			<point x="496" y="805"/>
			<point x="387" y="805" type="curve"/>
			<point x="206" y="805"/>
			<point x="71" y="645"/>
			<point x="71" y="470" type="curve"/>
			<point x="71" y="330"/>
			<point x="153" y="256"/>
			<point x="266" y="188" type="curve"/>
			<point x="302" y="167" type="line"/>
			<point x="302" y="-757" type="line"/>
			<point x="202" y="-719"/>
			<point x="83" y="-609"/>
			<point x="49" y="-497" type="curve"/>
			<point x="37" y="-497" type="line"/>
			<point x="37" y="-500"/>
			<point x="55" y="-609"/>
			<point x="55" y="-646" type="curve"/>
			<point x="55" y="-688"/>
			<point x="55" y="-710"/>
			<point x="37" y="-789" type="curve"/>
			<point x="49" y="-789" type="line"/>
			<point x="56" y="-746"/>
			<point x="70" y="-714"/>
			<point x="94" y="-692" type="curve"/>
			<point x="168" y="-769"/>
			<point x="271" y="-812"/>
		</contour>
		<contour>
			<point x="369" y="-772" type="curve"/>
			<point x="369" y="-772" type="line"/>
			<point x="352" y="-772"/>
			<point x="335" y="-769"/>
			<point x="316" y="-763" type="curve"/>
			<point x="316" y="159" type="line"/>
			<point x="472" y="67" type="line"/>
			<point x="472" y="-761" type="line"/>
			<point x="437" y="-768"/>
			<point x="402" y="-772"/>
		</contour>
		<contour>
			<point x="486" y="-758" type="curve"/>
			<point x="486" y="-758" type="line"/>
			<point x="486" y="59" type="line"/>
			<point x="516" y="42" type="line"/>
			<point x="679" y="-68"/>
			<point x="758" y="-271"/>
			<point x="758" y="-436" type="curve"/>
			<point x="758" y="-514"/>
			<point x="740" y="-583"/>
			<point x="707" y="-630" type="curve"/>
			<point x="660" y="-694"/>
			<point x="575" y="-738"/>
		</contour>
		<contour>
			<point x="302" y="768" type="curve"/>
			<point x="302" y="255" type="line"/>
			<point x="299" y="257" type="line" smooth="yes"/>
			<point x="160" y="355"/>
			<point x="128" y="425"/>
			<point x="128" y="538" type="curve"/>
			<point x="135" y="651"/>
			<point x="188" y="755"/>
		</contour>
		<contour>
			<point x="472" y="743" type="curve"/>
			<point x="472" y="154" type="line"/>
			<point x="316" y="246" type="line"/>
			<point x="316" y="769" type="line"/>
			<point x="368" y="772"/>
			<point x="421" y="762"/>
		</contour>
	</outline>
</glyph>
<glyph name="percent" format="2">
	<advance width="678"/>
	<unicode hex="0025"/>
	<note>
		percent
  </note>
	<outline>
		<contour>
			<point x="100" y="8" type="line"/>
			<point x="112" y="1" type="line"/>
			<point x="578" y="752" type="line"/>
			<point x="565" y="759" type="line"/>
		</contour>
		<contour>
			<point x="446" y="-1" type="curve"/>
			<point x="446" y="-1" type="line"/>
			<point x="510" y="-1"/>
			<point x="561" y="70"/>
			<point x="561" y="157" type="curve"/>
			<point x="561" y="245"/>
			<point x="510" y="320"/>
			<point x="446" y="320" type="curve"/>
			<point x="383" y="320"/>
			<point x="332" y="245"/>
			<point x="332" y="157" type="curve"/>
			<point x="332" y="70"/>
			<point x="383" y="-1"/>
		</contour>
		<contour>
			<point x="446" y="17" type="curve"/>
			<point x="446" y="17" type="line"/>
			<point x="400" y="17"/>
			<point x="393" y="70"/>
			<point x="393" y="157" type="curve"/>
			<point x="393" y="245"/>
			<point x="400" y="302"/>
			<point x="446" y="302" type="curve"/>
			<point x="492" y="302"/>
			<point x="499" y="245"/>
			<point x="499" y="157" type="curve"/>
			<point x="499" y="70"/>
			<point x="492" y="17"/>
		</contour>
		<contour>
			<point x="216" y="429" type="curve"/>
			<point x="216" y="429" type="line"/>
			<point x="280" y="429"/>
			<point x="331" y="500"/>
			<point x="331" y="587" type="curve"/>
			<point x="331" y="675"/>
			<point x="280" y="750"/>
			<point x="216" y="750" type="curve"/>
			<point x="153" y="750"/>
			<point x="102" y="675"/>
			<point x="102" y="587" type="curve"/>
			<point x="102" y="500"/>
			<point x="153" y="429"/>
		</contour>
		<contour>
			<point x="216" y="447" type="curve"/>
			<point x="216" y="447" type="line"/>
			<point x="170" y="447"/>
			<point x="163" y="500"/>
			<point x="163" y="587" type="curve"/>
			<point x="163" y="675"/>
			<point x="170" y="732"/>
			<point x="216" y="732" type="curve"/>
			<point x="262" y="732"/>
			<point x="269" y="675"/>
			<point x="269" y="587" type="curve"/>
			<point x="269" y="500"/>
			<point x="262" y="447"/>
		</contour>
	</outline>
</glyph>
<glyph name="ampersand" format="2">
	<advance width="903"/>
	<unicode hex="0026"/>
	<note>
		ampersand
  </note>
	<outline>
		<contour>
			<point x="484" y="-23" type="curve"/>
			<point x="484" y="-23" type="line"/>
			<point x="563" y="-23"/>
			<point x="643" y="0"/>
			<point x="712" y="49" type="curve"/>
			<point x="713" y="49" type="line"/>
			<point x="713" y="52"/>
			<point x="701" y="65"/>
			<point x="701" y="65" type="curve"/>
			<point x="653" y="31"/>
			<point x="595" y="16"/>
			<point x="536" y="16" type="curve"/>
			<point x="337" y="16"/>
			<point x="163" y="164"/>
			<point x="139" y="373" type="curve"/>
			<point x="350" y="373" type="line" smooth="yes"/>
			<point x="404" y="373"/>
			<point x="404" y="340"/>
			<point x="404" y="297" type="curve"/>
			<point x="404" y="175" type="line" smooth="yes"/>
			<point x="404" y="121"/>
			<point x="445" y="81"/>
			<point x="501" y="81" type="curve"/>
			<point x="601" y="81"/>
			<point x="635" y="130"/>
			<point x="635" y="136" type="curve"/>
			<point x="629" y="142" type="line"/>
			<point x="617" y="130"/>
			<point x="593" y="110"/>
			<point x="540" y="110" type="curve"/>
			<point x="471" y="110"/>
			<point x="472" y="170"/>
			<point x="472" y="185" type="curve"/>
			<point x="472" y="372" type="line"/>
			<point x="931" y="372" type="line"/>
			<point x="931" y="387" type="line"/>
			<point x="472" y="387" type="line"/>
			<point x="472" y="663" type="line"/>
			<point x="453" y="663" type="line"/>
			<point x="453" y="384"/>
			<point x="450" y="387"/>
			<point x="293" y="387" type="curve"/>
			<point x="138" y="387" type="line"/>
			<point x="137" y="398"/>
			<point x="137" y="409"/>
			<point x="137" y="421" type="curve"/>
			<point x="137" y="584"/>
			<point x="238" y="739"/>
			<point x="425" y="739" type="curve"/>
			<point x="589" y="739"/>
			<point x="765" y="618"/>
			<point x="814" y="457" type="curve"/>
			<point x="826" y="457" type="line"/>
			<point x="826" y="460"/>
			<point x="808" y="569"/>
			<point x="808" y="606" type="curve"/>
			<point x="808" y="648"/>
			<point x="808" y="670"/>
			<point x="826" y="749" type="curve"/>
			<point x="814" y="749" type="line"/>
			<point x="807" y="706"/>
			<point x="793" y="674"/>
			<point x="769" y="652" type="curve"/>
			<point x="693" y="731"/>
			<point x="587" y="774"/>
			<point x="478" y="774" type="curve"/>
			<point x="255" y="774"/>
			<point x="82" y="586"/>
			<point x="82" y="373" type="curve"/>
			<point x="82" y="150"/>
			<point x="270" y="-23"/>
		</contour>
	</outline>
</glyph>
<glyph name="asterisk" format="2">
	<advance width="398"/>
	<unicode hex="002A"/>
	<note>
		asterisk
  </note>
	<outline>
		<contour>
			<point x="192" y="452" type="line"/>
			<point x="192" y="302" type="line"/>
			<point x="206" y="302" type="line"/>
			<point x="206" y="452" type="line"/>
			<point x="308" y="350" type="line"/>
			<point x="318" y="360" type="line"/>
			<point x="211" y="467" type="line"/>
			<point x="323" y="579" type="line"/>
			<point x="313" y="589" type="line"/>
			<point x="206" y="482" type="line"/>
			<point x="206" y="625" type="line"/>
			<point x="192" y="625" type="line"/>
			<point x="192" y="482" type="line"/>
			<point x="85" y="589" type="line"/>
			<point x="75" y="579" type="line"/>
			<point x="187" y="467" type="line"/>
			<point x="80" y="360" type="line"/>
			<point x="90" y="350" type="line"/>
		</contour>
	</outline>
</glyph>
<glyph name="plus" format="2">
	<advance width="473"/>
	<unicode hex="002B"/>
	<note>
		plus
  </note>
	<outline>
		<contour>
			<point x="233" y="234" type="line"/>
			<point x="233" y="76" type="line"/>
			<point x="247" y="76" type="line"/>
			<point x="247" y="234" type="line"/>
			<point x="398" y="234" type="line"/>
			<point x="398" y="248" type="line"/>
			<point x="247" y="248" type="line"/>
			<point x="247" y="399" type="line"/>
			<point x="233" y="399" type="line"/>
			<point x="233" y="248" type="line"/>
			<point x="75" y="248" type="line"/>
			<point x="75" y="234" type="line"/>
		</contour>
	</outline>
</glyph>
<glyph name="comma" format="2">
	<advance width="169"/>
	<unicode hex="002C"/>
	<note>
		comma
  </note>
	<outline>
		<contour>
			<point x="-23" y="-86" type="curve"/>
			<point x="-18" y="-99" type="line"/>
			<point x="38" y="-99"/>
			<point x="117" y="-47"/>
			<point x="117" y="38" type="curve"/>
			<point x="117" y="52"/>
			<point x="116" y="67"/>
			<point x="106" y="79" type="curve"/>
			<point x="96" y="90"/>
			<point x="82" y="96"/>
			<point x="68" y="96" type="curve"/>
			<point x="56" y="96"/>
			<point x="44" y="92"/>
			<point x="34" y="84" type="curve"/>
			<point x="25" y="76"/>
			<point x="16" y="65"/>
			<point x="16" y="45" type="curve"/>
			<point x="16" y="11"/>
			<point x="49" y="11"/>
			<point x="49" y="-24" type="curve"/>
			<point x="49" y="-51"/>
			<point x="4" y="-86"/>
		</contour>
	</outline>
</glyph>
<glyph name="period" format="2">
	<advance width="205"/>
	<unicode hex="002E"/>
	<note>
		period
  </note>
	<outline>
		<contour>
			<point x="102" y="-1" type="curve"/>
			<point x="102" y="-1" type="line"/>
			<point x="130" y="-1"/>
			<point x="153" y="22"/>
			<point x="153" y="50" type="curve"/>
			<point x="153" y="78"/>
			<point x="130" y="100"/>
			<point x="102" y="100" type="curve"/>
			<point x="74" y="100"/>
			<point x="52" y="78"/>
			<point x="52" y="50" type="curve"/>
			<point x="52" y="22"/>
			<point x="74" y="-1"/>
		</contour>
	</outline>
</glyph>
<glyph name="one" format="2">
	<advance width="406"/>
	<unicode hex="0031"/>
	<note>
		one
  </note>
	<outline>
		<contour>
			<point x="72" y="15" type="curve"/>
			<point x="72" y="3" type="line"/>
			<point x="151" y="21"/>
			<point x="173" y="21"/>
			<point x="215" y="21" type="curve"/>
			<point x="252" y="21"/>
			<point x="361" y="3"/>
			<point x="364" y="3" type="curve"/>
			<point x="364" y="15" type="line"/>
			<point x="253" y="32"/>
			<point x="252" y="105"/>
			<point x="252" y="236" type="curve"/>
			<point x="252" y="745" type="line"/>
			<point x="195" y="745" type="line" smooth="yes"/>
			<point x="188" y="745"/>
			<point x="168" y="721"/>
			<point x="42" y="685" type="curve"/>
			<point x="42" y="673" type="line"/>
			<point x="183" y="697" type="line"/>
			<point x="184" y="234" type="line" smooth="yes"/>
			<point x="184" y="103"/>
			<point x="183" y="32"/>
		</contour>
	</outline>
</glyph>
<glyph name="two" format="2">
	<advance width="652"/>
	<unicode hex="0032"/>
	<note>
		two
  </note>
	<outline>
		<contour>
			<point x="72" y="53" type="line"/>
			<point x="72" y="0" type="line"/>
			<point x="540" y="0" type="line"/>
			<point x="540" y="37"/>
			<point x="585" y="195"/>
			<point x="585" y="198" type="curve"/>
			<point x="573" y="198" type="line"/>
			<point x="565" y="76"/>
			<point x="444" y="53"/>
			<point x="368" y="53" type="curve"/>
			<point x="113" y="53" type="line"/>
			<point x="211" y="134"/>
			<point x="453" y="333"/>
			<point x="456" y="335" type="curve"/>
			<point x="512" y="384"/>
			<point x="550" y="461"/>
			<point x="550" y="538" type="curve"/>
			<point x="550" y="581"/>
			<point x="538" y="624"/>
			<point x="511" y="662" type="curve"/>
			<point x="470" y="721"/>
			<point x="403" y="759"/>
			<point x="334" y="759" type="curve"/>
			<point x="263" y="759"/>
			<point x="198" y="731"/>
			<point x="138" y="686" type="curve"/>
			<point x="121" y="706"/>
			<point x="110" y="727"/>
			<point x="103" y="770" type="curve"/>
			<point x="91" y="770" type="line"/>
			<point x="105" y="720"/>
			<point x="110" y="677"/>
			<point x="110" y="637" type="curve"/>
			<point x="110" y="585"/>
			<point x="102" y="536"/>
			<point x="91" y="478" type="curve"/>
			<point x="103" y="478" type="line"/>
			<point x="106" y="492"/>
			<point x="143" y="720"/>
			<point x="269" y="724" type="curve"/>
			<point x="325" y="724"/>
			<point x="391" y="698"/>
			<point x="444" y="621" type="curve"/>
			<point x="470" y="582"/>
			<point x="486" y="529"/>
			<point x="486" y="479" type="curve"/>
			<point x="486" y="430"/>
			<point x="471" y="384"/>
			<point x="437" y="355" type="curve"/>
		</contour>
	</outline>
</glyph>
<glyph name="three" format="2">
	<advance width="574"/>
	<unicode hex="0033"/>
	<note>
		three
  </note>
	<outline>
		<contour>
			<point x="277" y="-7" type="curve"/>
			<point x="277" y="-7" type="line"/>
			<point x="323" y="-7"/>
			<point x="369" y="6"/>
			<point x="409" y="35" type="curve"/>
			<point x="471" y="79"/>
			<point x="506" y="152"/>
			<point x="506" y="225" type="curve"/>
			<point x="506" y="271"/>
			<point x="493" y="317"/>
			<point x="464" y="357" type="curve"/>
			<point x="419" y="421"/>
			<point x="345" y="460"/>
			<point x="269" y="460" type="curve"/>
			<point x="248" y="460"/>
			<point x="226" y="457"/>
			<point x="205" y="450" type="curve"/>
			<point x="527" y="749" type="line"/>
			<point x="133" y="748" type="line"/>
			<point x="133" y="691"/>
			<point x="109" y="661"/>
			<point x="62" y="595" type="curve"/>
			<point x="73" y="591" type="line"/>
			<point x="131" y="687"/>
			<point x="324" y="713"/>
			<point x="454" y="712" type="curve"/>
			<point x="141" y="418" type="line"/>
			<point x="151" y="403" type="line"/>
			<point x="170" y="417"/>
			<point x="192" y="423"/>
			<point x="216" y="423" type="curve"/>
			<point x="282" y="423"/>
			<point x="358" y="373"/>
			<point x="397" y="316" type="curve"/>
			<point x="424" y="275"/>
			<point x="442" y="222"/>
			<point x="442" y="172" type="curve"/>
			<point x="442" y="125"/>
			<point x="427" y="82"/>
			<point x="390" y="55" type="curve"/>
			<point x="370" y="40"/>
			<point x="347" y="34"/>
			<point x="323" y="34" type="curve"/>
			<point x="257" y="34"/>
			<point x="184" y="80"/>
			<point x="146" y="136" type="curve"/>
			<point x="146" y="137"/>
			<point x="87" y="90"/>
			<point x="87" y="90" type="curve"/>
			<point x="130" y="28"/>
			<point x="203" y="-7"/>
		</contour>
	</outline>
</glyph>
<glyph name="four" format="2">
	<advance width="689"/>
	<unicode hex="0034"/>
	<note>
		four
  </note>
	<outline>
		<contour>
			<point x="319" y="15" type="curve"/>
			<point x="319" y="3" type="line"/>
			<point x="398" y="21"/>
			<point x="420" y="21"/>
			<point x="462" y="21" type="curve"/>
			<point x="499" y="21"/>
			<point x="608" y="3"/>
			<point x="611" y="3" type="curve"/>
			<point x="611" y="15" type="line"/>
			<point x="500" y="32"/>
			<point x="499" y="105"/>
			<point x="499" y="236" type="curve"/>
			<point x="499" y="280" type="line"/>
			<point x="622" y="280" type="line"/>
			<point x="622" y="303" type="line"/>
			<point x="499" y="303" type="line"/>
			<point x="499" y="744" type="line"/>
			<point x="473" y="744" type="line"/>
			<point x="47" y="280" type="line"/>
			<point x="423" y="280" type="line"/>
			<point x="424" y="232" type="line" smooth="yes"/>
			<point x="424" y="221"/>
			<point x="424" y="210"/>
			<point x="424" y="199" type="curve"/>
			<point x="424" y="81"/>
			<point x="411" y="29"/>
		</contour>
		<contour>
			<point x="423" y="303" type="line"/>
			<point x="93" y="303" type="line"/>
			<point x="423" y="660" type="line"/>
		</contour>
	</outline>
</glyph>
<glyph name="five" format="2">
	<advance width="570"/>
	<unicode hex="0035"/>
	<note>
		five
  </note>
	<outline>
		<contour>
			<point x="256" y="-7" type="curve"/>
			<point x="256" y="-7" type="line"/>
			<point x="302" y="-7"/>
			<point x="348" y="6"/>
			<point x="388" y="35" type="curve"/>
			<point x="450" y="79"/>
			<point x="485" y="153"/>
			<point x="485" y="229" type="curve"/>
			<point x="485" y="275"/>
			<point x="472" y="322"/>
			<point x="443" y="362" type="curve"/>
			<point x="399" y="424"/>
			<point x="327" y="459"/>
			<point x="253" y="459" type="curve"/>
			<point x="212" y="459"/>
			<point x="170" y="448"/>
			<point x="133" y="425" type="curve"/>
			<point x="175" y="688" type="line"/>
			<point x="305" y="689"/>
			<point x="430" y="663"/>
			<point x="488" y="567" type="curve"/>
			<point x="499" y="571" type="line"/>
			<point x="452" y="637"/>
			<point x="428" y="666"/>
			<point x="428" y="723" type="curve"/>
			<point x="144" y="726" type="line"/>
			<point x="88" y="361" type="line"/>
			<point x="102" y="361" type="line"/>
			<point x="130" y="397"/>
			<point x="169" y="412"/>
			<point x="210" y="412" type="curve"/>
			<point x="272" y="412"/>
			<point x="337" y="376"/>
			<point x="376" y="321" type="curve"/>
			<point x="403" y="280"/>
			<point x="421" y="225"/>
			<point x="421" y="174" type="curve"/>
			<point x="421" y="126"/>
			<point x="406" y="82"/>
			<point x="369" y="55" type="curve"/>
			<point x="349" y="40"/>
			<point x="326" y="34"/>
			<point x="302" y="34" type="curve"/>
			<point x="236" y="34"/>
			<point x="163" y="80"/>
			<point x="125" y="136" type="curve"/>
			<point x="66" y="90" type="line"/>
			<point x="109" y="28"/>
			<point x="182" y="-7"/>
		</contour>
	</outline>
</glyph>
<glyph name="six" format="2">
	<advance width="601"/>
	<unicode hex="0036"/>
	<note>
		six
  </note>
	<outline>
		<contour>
			<point x="308" y="-8" type="curve"/>
			<point x="308" y="-8" type="line"/>
			<point x="437" y="-8"/>
			<point x="539" y="102"/>
			<point x="539" y="231" type="curve"/>
			<point x="539" y="359"/>
			<point x="428" y="458"/>
			<point x="305" y="458" type="curve"/>
			<point x="260" y="458"/>
			<point x="214" y="444"/>
			<point x="174" y="416" type="curve"/>
			<point x="193" y="396" type="line"/>
			<point x="212" y="410"/>
			<point x="235" y="417"/>
			<point x="258" y="417" type="curve"/>
			<point x="381" y="417"/>
			<point x="482" y="297"/>
			<point x="482" y="183" type="curve"/>
			<point x="482" y="107"/>
			<point x="452" y="28"/>
			<point x="371" y="28" type="curve"/>
			<point x="187" y="28"/>
			<point x="131" y="221"/>
			<point x="131" y="372" type="curve"/>
			<point x="131" y="553"/>
			<point x="270" y="755"/>
			<point x="451" y="752" type="curve"/>
			<point x="470" y="752"/>
			<point x="485" y="747"/>
			<point x="492" y="740" type="curve"/>
			<point x="466" y="780" type="line"/>
			<point x="226" y="780"/>
			<point x="65" y="515"/>
			<point x="65" y="310" type="curve"/>
			<point x="65" y="156"/>
			<point x="135" y="-8"/>
		</contour>
	</outline>
</glyph>
<glyph name="eight" format="2">
	<advance width="606"/>
	<unicode hex="0038"/>
	<note>
		eight
  </note>
	<outline>
		<contour>
			<point x="305" y="-7" type="curve"/>
			<point x="305" y="-7" type="line"/>
			<point x="351" y="-7"/>
			<point x="397" y="6"/>
			<point x="437" y="35" type="curve"/>
			<point x="499" y="79"/>
			<point x="534" y="153"/>
			<point x="534" y="229" type="curve"/>
			<point x="534" y="275"/>
			<point x="521" y="322"/>
			<point x="492" y="362" type="curve"/>
			<point x="477" y="383"/>
			<point x="459" y="400"/>
			<point x="439" y="414" type="curve"/>
			<point x="428" y="422"/>
			<point x="415" y="430"/>
			<point x="398" y="437" type="curve"/>
			<point x="409" y="443"/>
			<point x="418" y="449"/>
			<point x="418" y="449" type="curve"/>
			<point x="469" y="481"/>
			<point x="499" y="536"/>
			<point x="499" y="591" type="curve"/>
			<point x="499" y="625"/>
			<point x="488" y="660"/>
			<point x="464" y="689" type="curve"/>
			<point x="428" y="735"/>
			<point x="368" y="761"/>
			<point x="307" y="761" type="curve"/>
			<point x="269" y="761"/>
			<point x="231" y="751"/>
			<point x="197" y="730" type="curve"/>
			<point x="145" y="697"/>
			<point x="116" y="642"/>
			<point x="116" y="587" type="curve"/>
			<point x="116" y="553"/>
			<point x="127" y="518"/>
			<point x="151" y="489" type="curve"/>
			<point x="220" y="411"/>
			<point x="370" y="398"/>
			<point x="425" y="321" type="curve"/>
			<point x="452" y="280"/>
			<point x="470" y="225"/>
			<point x="470" y="174" type="curve"/>
			<point x="470" y="126"/>
			<point x="455" y="82"/>
			<point x="418" y="55" type="curve"/>
			<point x="398" y="40"/>
			<point x="375" y="34"/>
			<point x="351" y="34" type="curve"/>
			<point x="285" y="34"/>
			<point x="212" y="80"/>
			<point x="174" y="136" type="curve"/>
			<point x="146" y="175"/>
			<point x="128" y="231"/>
			<point x="128" y="282" type="curve"/>
			<point x="128" y="330"/>
			<point x="143" y="375"/>
			<point x="179" y="402" type="curve"/>
			<point x="209" y="422" type="line"/>
			<point x="197" y="433" type="line"/>
			<point x="188" y="428"/>
			<point x="179" y="423"/>
			<point x="170" y="417" type="curve"/>
			<point x="108" y="373"/>
			<point x="72" y="299"/>
			<point x="72" y="224" type="curve"/>
			<point x="72" y="177"/>
			<point x="86" y="130"/>
			<point x="115" y="90" type="curve"/>
			<point x="158" y="28"/>
			<point x="231" y="-7"/>
		</contour>
		<contour>
			<point x="352" y="455" type="curve"/>
			<point x="352" y="455" type="line"/>
			<point x="302" y="474"/>
			<point x="246" y="495"/>
			<point x="210" y="530" type="curve"/>
			<point x="183" y="553"/>
			<point x="170" y="589"/>
			<point x="170" y="624" type="curve"/>
			<point x="170" y="659"/>
			<point x="184" y="693"/>
			<point x="212" y="713" type="curve"/>
			<point x="228" y="723"/>
			<point x="246" y="727"/>
			<point x="265" y="727" type="curve"/>
			<point x="316" y="727"/>
			<point x="372" y="696"/>
			<point x="403" y="657" type="curve"/>
			<point x="424" y="630"/>
			<point x="438" y="592"/>
			<point x="438" y="556" type="curve"/>
			<point x="438" y="523"/>
			<point x="426" y="492"/>
			<point x="397" y="473" type="curve"/>
			<point x="390" y="468"/>
			<point x="367" y="460"/>
		</contour>
	</outline>
</glyph>
<glyph name="colon" format="2">
	<advance width="406"/>
	<unicode hex="003A"/>
	<note>
		colon
  </note>
	<outline>
		<contour>
			<point x="194" y="263" type="curve"/>
			<point x="194" y="263" type="line"/>
			<point x="222" y="263"/>
			<point x="245" y="286"/>
			<point x="245" y="314" type="curve"/>
			<point x="245" y="342"/>
			<point x="222" y="364"/>
			<point x="194" y="364" type="curve"/>
			<point x="166" y="364"/>
			<point x="144" y="342"/>
			<point x="144" y="314" type="curve"/>
			<point x="144" y="286"/>
			<point x="166" y="263"/>
		</contour>
		<contour>
			<point x="194" y="63" type="curve"/>
			<point x="194" y="63" type="line"/>
			<point x="222" y="63"/>
			<point x="245" y="86"/>
			<point x="245" y="114" type="curve"/>
			<point x="245" y="142"/>
			<point x="222" y="164"/>
			<point x="194" y="164" type="curve"/>
			<point x="166" y="164"/>
			<point x="144" y="142"/>
			<point x="144" y="114" type="curve"/>
			<point x="144" y="86"/>
			<point x="166" y="63"/>
		</contour>
	</outline>
</glyph>
<glyph name="question" format="2">
	<advance width="489"/>
	<unicode hex="003F"/>
	<note>
		question
  </note>
	<outline>
		<contour>
			<point x="220" y="176" type="curve"/>
			<point x="220" y="176" type="line"/>
			<point x="242" y="176"/>
			<point x="242" y="201"/>
			<point x="242" y="201" type="curve"/>
			<point x="242" y="444"/>
			<point x="399" y="467"/>
			<point x="399" y="601" type="curve"/>
			<point x="399" y="700"/>
			<point x="352" y="761"/>
			<point x="230" y="761" type="curve"/>
			<point x="150" y="761"/>
			<point x="121" y="704"/>
			<point x="106" y="704" type="curve"/>
			<point x="91" y="704"/>
			<point x="83" y="736"/>
			<point x="83" y="772" type="curve"/>
			<point x="70" y="771" type="line"/>
			<point x="71" y="770"/>
			<point x="81" y="728"/>
			<point x="81" y="691" type="curve"/>
			<point x="81" y="644"/>
			<point x="60" y="574"/>
			<point x="60" y="574" type="curve"/>
			<point x="75" y="574" type="line"/>
			<point x="75" y="632"/>
			<point x="115" y="744"/>
			<point x="215" y="744" type="curve"/>
			<point x="292" y="744"/>
			<point x="329" y="670"/>
			<point x="329" y="601" type="curve"/>
			<point x="329" y="431"/>
			<point x="198" y="442"/>
			<point x="198" y="201" type="curve"/>
			<point x="198" y="201"/>
			<point x="198" y="176"/>
		</contour>
		<contour>
			<point x="220" y="-1" type="curve"/>
			<point x="220" y="-1" type="line"/>
			<point x="248" y="-1"/>
			<point x="271" y="22"/>
			<point x="271" y="50" type="curve"/>
			<point x="271" y="78"/>
			<point x="248" y="100"/>
			<point x="220" y="100" type="curve"/>
			<point x="192" y="100"/>
			<point x="170" y="78"/>
			<point x="170" y="50" type="curve"/>
			<point x="170" y="22"/>
			<point x="192" y="-1"/>
		</contour>
	</outline>
</glyph>
<glyph name="A" format="2">
	<advance width="1011"/>
	<unicode hex="0041"/>
	<anchor x="910" y="10" name="ogonek"/>
	<anchor x="506" y="0" name="bottom"/>
	<anchor x="477" y="806" name="top"/>
	<note>
		A
  </note>
	<outline>
		<contour>
			<point x="477" y="807" type="line"/>
			<point x="72" y="0" type="line"/>
			<point x="934" y="0" type="line"/>
		</contour>
		<contour>
			<point x="448" y="708" type="line"/>
			<point x="833" y="22" type="line"/>
			<point x="102" y="23" type="line"/>
		</contour>
	</outline>
</glyph>
<glyph name="B" format="2">
	<advance width="1031"/>
	<unicode hex="0042"/>
	<anchor x="516" y="675" name="top"/>
	<anchor x="516" y="0" name="bottom"/>
	<note>
		B
  </note>
	<outline>
		<contour>
			<point x="417" y="-822" type="curve"/>
			<point x="417" y="-822" type="line"/>
			<point x="749" y="-832"/>
			<point x="949" y="-668"/>
			<point x="949" y="-332" type="curve"/>
			<point x="949" y="-314"/>
			<point x="948" y="-295"/>
			<point x="947" y="-276" type="curve"/>
			<point x="932" y="-58"/>
			<point x="778" y="85"/>
			<point x="589" y="115" type="curve"/>
			<point x="721" y="175"/>
			<point x="828" y="302"/>
			<point x="828" y="475" type="curve"/>
			<point x="828" y="644"/>
			<point x="640" y="805"/>
			<point x="481" y="805" type="curve"/>
			<point x="320" y="805"/>
			<point x="287" y="747"/>
			<point x="195" y="747" type="curve"/>
			<point x="153" y="747"/>
			<point x="131" y="747"/>
			<point x="52" y="765" type="curve"/>
			<point x="52" y="753" type="line"/>
			<point x="163" y="736"/>
			<point x="164" y="665"/>
			<point x="164" y="534" type="curve"/>
			<point x="164" y="-585" type="line" smooth="yes"/>
			<point x="164" y="-716"/>
			<point x="163" y="-787"/>
			<point x="52" y="-804" type="curve"/>
			<point x="52" y="-816" type="line"/>
			<point x="131" y="-798"/>
			<point x="153" y="-798"/>
			<point x="195" y="-798" type="curve"/>
			<point x="297" y="-798"/>
			<point x="345" y="-819"/>
		</contour>
		<contour>
			<point x="504" y="-788" type="curve"/>
			<point x="504" y="-788" type="line"/>
			<point x="406" y="-788"/>
			<point x="306" y="-770"/>
			<point x="244" y="-731" type="curve"/>
			<point x="232" y="-695"/>
			<point x="232" y="-646"/>
			<point x="232" y="-583" type="curve"/>
			<point x="232" y="541" type="line" smooth="yes"/>
			<point x="232" y="630"/>
			<point x="232" y="683"/>
			<point x="268" y="719" type="curve"/>
			<point x="312" y="749"/>
			<point x="362" y="762"/>
			<point x="411" y="762" type="curve"/>
			<point x="587" y="762"/>
			<point x="773" y="610"/>
			<point x="773" y="439" type="curve"/>
			<point x="773" y="251"/>
			<point x="644" y="120"/>
			<point x="488" y="120" type="curve"/>
			<point x="426" y="120"/>
			<point x="362" y="102"/>
			<point x="300" y="74" type="curve"/>
			<point x="300" y="74"/>
			<point x="267" y="36"/>
			<point x="268" y="35" type="curve"/>
			<point x="336" y="62"/>
			<point x="404" y="75"/>
			<point x="468" y="75" type="curve"/>
			<point x="697" y="75"/>
			<point x="883" y="-88"/>
			<point x="893" y="-348" type="curve"/>
			<point x="893" y="-360"/>
			<point x="894" y="-371"/>
			<point x="894" y="-382" type="curve"/>
			<point x="894" y="-660"/>
			<point x="772" y="-788"/>
		</contour>
	</outline>
</glyph>
<glyph name="D" format="2">
	<advance width="966"/>
	<unicode hex="0044"/>
	<anchor x="483" y="338" name="center"/>
	<anchor x="483" y="0" name="bottom"/>
	<anchor x="483" y="675" name="top"/>
	<note>
		D
  </note>
	<outline>
		<contour>
			<point x="431" y="-3" type="curve"/>
			<point x="431" y="-3" type="line"/>
			<point x="535" y="-3"/>
			<point x="644" y="25"/>
			<point x="721" y="80" type="curve"/>
			<point x="828" y="156"/>
			<point x="889" y="281"/>
			<point x="889" y="409" type="curve"/>
			<point x="889" y="488"/>
			<point x="866" y="568"/>
			<point x="816" y="638" type="curve"/>
			<point x="741" y="745"/>
			<point x="616" y="805"/>
			<point x="488" y="805" type="curve"/>
			<point x="326" y="805"/>
			<point x="292" y="747"/>
			<point x="195" y="747" type="curve"/>
			<point x="153" y="747"/>
			<point x="131" y="747"/>
			<point x="52" y="765" type="curve"/>
			<point x="52" y="753" type="line"/>
			<point x="163" y="736"/>
			<point x="164" y="665"/>
			<point x="164" y="534" type="curve"/>
			<point x="164" y="234" type="line" smooth="yes"/>
			<point x="164" y="103"/>
			<point x="163" y="32"/>
			<point x="52" y="15" type="curve"/>
			<point x="52" y="3" type="line"/>
			<point x="131" y="21"/>
			<point x="153" y="21"/>
			<point x="195" y="21" type="curve"/>
			<point x="232" y="21"/>
			<point x="341" y="4"/>
			<point x="344" y="4" type="curve"/>
			<point x="372" y="-1"/>
			<point x="401" y="-3"/>
		</contour>
		<contour>
			<point x="470" y="31" type="curve"/>
			<point x="470" y="31" type="line"/>
			<point x="388" y="31"/>
			<point x="305" y="49"/>
			<point x="244" y="88" type="curve"/>
			<point x="232" y="124"/>
			<point x="232" y="173"/>
			<point x="232" y="236" type="curve"/>
			<point x="232" y="532" type="line" smooth="yes"/>
			<point x="232" y="621"/>
			<point x="232" y="683"/>
			<point x="268" y="719" type="curve"/>
			<point x="313" y="749"/>
			<point x="367" y="762"/>
			<point x="423" y="762" type="curve"/>
			<point x="554" y="762"/>
			<point x="696" y="692"/>
			<point x="762" y="600" type="curve"/>
			<point x="809" y="534"/>
			<point x="833" y="449"/>
			<point x="833" y="365" type="curve"/>
			<point x="833" y="259"/>
			<point x="794" y="156"/>
			<point x="710" y="96" type="curve"/>
			<point x="650" y="53"/>
			<point x="560" y="31"/>
		</contour>
	</outline>
</glyph>
<glyph name="J" format="2">
	<advance width="431"/>
	<unicode hex="004A"/>
	<anchor x="205" y="744" name="top"/>
	<anchor x="216" y="0" name="bottom"/>
	<note>
		J
  </note>
	<outline>
		<contour>
			<point x="62" y="-800" type="curve"/>
			<point x="62" y="-812" type="line"/>
			<point x="141" y="-794"/>
			<point x="170" y="-770"/>
			<point x="181" y="-695" type="curve"/>
			<point x="187" y="-655"/>
			<point x="242" y="4"/>
			<point x="242" y="134" type="curve"/>
			<point x="242" y="529" type="line" smooth="yes"/>
			<point x="242" y="660"/>
			<point x="243" y="733"/>
			<point x="354" y="750" type="curve"/>
			<point x="354" y="762" type="line"/>
			<point x="351" y="762"/>
			<point x="242" y="744"/>
			<point x="205" y="744" type="curve"/>
			<point x="163" y="744"/>
			<point x="141" y="744"/>
			<point x="62" y="762" type="curve"/>
			<point x="62" y="750" type="line"/>
			<point x="173" y="733"/>
			<point x="174" y="662"/>
			<point x="174" y="531" type="curve"/>
			<point x="174" y="-581" type="line" smooth="yes"/>
			<point x="174" y="-712"/>
			<point x="173" y="-783"/>
		</contour>
	</outline>
</glyph>
<glyph name="K" format="2">
	<advance width="1033"/>
	<unicode hex="004B"/>
	<anchor x="517" y="675" name="top"/>
	<anchor x="517" y="0" name="bottom"/>
	<note>
		K
  </note>
	<outline>
		<contour>
			<point x="52" y="12" type="curve"/>
			<point x="52" y="0" type="line"/>
			<point x="131" y="18"/>
			<point x="153" y="18"/>
			<point x="195" y="18" type="curve"/>
			<point x="232" y="18"/>
			<point x="331" y="0"/>
			<point x="334" y="0" type="curve"/>
			<point x="334" y="12" type="line"/>
			<point x="236" y="27"/>
			<point x="232" y="85"/>
			<point x="232" y="189" type="curve"/>
			<point x="232" y="199"/>
			<point x="232" y="209"/>
			<point x="232" y="220" type="curve"/>
			<point x="408" y="361" type="line"/>
			<point x="574" y="197" type="line" smooth="yes"/>
			<point x="647" y="130"/>
			<point x="717" y="75"/>
			<point x="717" y="42" type="curve"/>
			<point x="717" y="28"/>
			<point x="703" y="17"/>
			<point x="669" y="12" type="curve"/>
			<point x="669" y="0" type="line"/>
			<point x="748" y="18"/>
			<point x="760" y="18"/>
			<point x="802" y="18" type="curve"/>
			<point x="839" y="18"/>
			<point x="958" y="0"/>
			<point x="961" y="0" type="curve"/>
			<point x="961" y="12" type="line"/>
			<point x="850" y="29"/>
			<point x="763" y="100"/>
			<point x="653" y="203" type="curve"/>
			<point x="448" y="393" type="line"/>
			<point x="624" y="534" type="line"/>
			<point x="711" y="598"/>
			<point x="829" y="725"/>
			<point x="940" y="742" type="curve"/>
			<point x="940" y="754" type="line"/>
			<point x="937" y="754"/>
			<point x="858" y="736"/>
			<point x="821" y="736" type="curve"/>
			<point x="779" y="736"/>
			<point x="787" y="736"/>
			<point x="708" y="754" type="curve"/>
			<point x="708" y="742" type="line"/>
			<point x="741" y="737"/>
			<point x="754" y="725"/>
			<point x="754" y="710" type="curve"/>
			<point x="754" y="672"/>
			<point x="679" y="611"/>
			<point x="613" y="558" type="curve"/>
			<point x="232" y="255" type="line"/>
			<point x="232" y="532" type="line" smooth="yes"/>
			<point x="232" y="550"/>
			<point x="232" y="567"/>
			<point x="232" y="583" type="curve"/>
			<point x="232" y="682"/>
			<point x="238" y="735"/>
			<point x="334" y="750" type="curve"/>
			<point x="334" y="762" type="line"/>
			<point x="331" y="762"/>
			<point x="232" y="744"/>
			<point x="195" y="744" type="curve"/>
			<point x="153" y="744"/>
			<point x="131" y="744"/>
			<point x="52" y="762" type="curve"/>
			<point x="52" y="750" type="line"/>
			<point x="163" y="733"/>
			<point x="164" y="665"/>
			<point x="164" y="534" type="curve"/>
			<point x="164" y="234" type="line" smooth="yes"/>
			<point x="164" y="100"/>
			<point x="163" y="29"/>
		</contour>
	</outline>
</glyph>
<glyph name="Q" format="2">
	<advance width="962"/>
	<unicode hex="0051"/>
	<anchor x="481" y="675" name="top"/>
	<anchor x="481" y="0" name="bottom"/>
	<note>
		Q
  </note>
	<outline>
		<contour>
			<point x="341" y="-800" type="curve"/>
			<point x="341" y="-812" type="line"/>
			<point x="420" y="-794"/>
			<point x="449" y="-775"/>
			<point x="460" y="-695" type="curve"/>
			<point x="465" y="-655"/>
			<point x="521" y="-217"/>
			<point x="521" y="-87" type="curve"/>
			<point x="521" y="-7" type="line"/>
			<point x="587" y="-1"/>
			<point x="653" y="22"/>
			<point x="712" y="64" type="curve"/>
			<point x="819" y="140"/>
			<point x="880" y="272"/>
			<point x="880" y="404" type="curve"/>
			<point x="880" y="486"/>
			<point x="857" y="568"/>
			<point x="807" y="638" type="curve"/>
			<point x="732" y="745"/>
			<point x="606" y="805"/>
			<point x="479" y="805" type="curve"/>
			<point x="400" y="805"/>
			<point x="320" y="782"/>
			<point x="250" y="733" type="curve"/>
			<point x="143" y="658"/>
			<point x="82" y="526"/>
			<point x="82" y="393" type="curve"/>
			<point x="82" y="311"/>
			<point x="105" y="229"/>
			<point x="155" y="159" type="curve"/>
			<point x="224" y="61"/>
			<point x="335" y="2"/>
			<point x="453" y="-7" type="curve"/>
			<point x="453" y="-581" type="line" smooth="yes"/>
			<point x="453" y="-712"/>
			<point x="452" y="-783"/>
		</contour>
		<contour>
			<point x="521" y="31" type="curve"/>
			<point x="521" y="31" type="line"/>
			<point x="521" y="162" type="line" smooth="yes"/>
			<point x="521" y="293"/>
			<point x="522" y="366"/>
			<point x="633" y="383" type="curve"/>
			<point x="633" y="395" type="line"/>
			<point x="630" y="395"/>
			<point x="521" y="377"/>
			<point x="484" y="377" type="curve"/>
			<point x="452" y="366"/>
			<point x="453" y="295"/>
			<point x="453" y="164" type="curve"/>
			<point x="453" y="40" type="line"/>
			<point x="356" y="62"/>
			<point x="264" y="119"/>
			<point x="209" y="198" type="curve"/>
			<point x="162" y="264"/>
			<point x="137" y="353"/>
			<point x="137" y="441" type="curve"/>
			<point x="137" y="552"/>
			<point x="176" y="660"/>
			<point x="259" y="719" type="curve"/>
			<point x="307" y="753"/>
			<point x="365" y="768"/>
			<point x="424" y="768" type="curve"/>
			<point x="549" y="768"/>
			<point x="682" y="701"/>
			<point x="753" y="600" type="curve"/>
			<point x="800" y="534"/>
			<point x="824" y="446"/>
			<point x="824" y="359" type="curve"/>
			<point x="824" y="248"/>
			<point x="785" y="140"/>
			<point x="701" y="80" type="curve"/>
			<point x="648" y="43"/>
			<point x="585" y="28"/>
		</contour>
	</outline>
</glyph>
<glyph name="X" format="2">
	<advance width="1114"/>
	<unicode hex="0058"/>
	<anchor x="557" y="675" name="top"/>
	<anchor x="557" y="0" name="bottom"/>
	<note>
		X
  </note>
	<outline>
		<contour>
			<point x="52" y="12" type="curve"/>
			<point x="52" y="0" type="line"/>
			<point x="131" y="18"/>
			<point x="153" y="18"/>
			<point x="195" y="18" type="curve"/>
			<point x="232" y="18"/>
			<point x="341" y="0"/>
			<point x="344" y="0" type="curve"/>
			<point x="344" y="12" type="line"/>
			<point x="302" y="19"/>
			<point x="284" y="29"/>
			<point x="284" y="49" type="curve"/>
			<point x="284" y="82"/>
			<point x="334" y="137"/>
			<point x="412" y="233" type="curve"/>
			<point x="534" y="387" type="line"/>
			<point x="682" y="233" type="line"/>
			<point x="773" y="146"/>
			<point x="829" y="87"/>
			<point x="828" y="51" type="curve"/>
			<point x="828" y="31"/>
			<point x="810" y="18"/>
			<point x="770" y="12" type="curve"/>
			<point x="770" y="0" type="line"/>
			<point x="773" y="0"/>
			<point x="882" y="18"/>
			<point x="919" y="18" type="curve"/>
			<point x="961" y="18"/>
			<point x="983" y="18"/>
			<point x="1062" y="0" type="curve"/>
			<point x="1062" y="12" type="line"/>
			<point x="951" y="29"/>
			<point x="755" y="231"/>
			<point x="750" y="231" type="curve"/>
			<point x="580" y="408" type="line"/>
			<point x="680" y="534" type="line" smooth="yes"/>
			<point x="683" y="538"/>
			<point x="816" y="728"/>
			<point x="1012" y="753" type="curve"/>
			<point x="1012" y="765" type="line"/>
			<point x="933" y="747"/>
			<point x="911" y="747"/>
			<point x="869" y="747" type="curve"/>
			<point x="832" y="747"/>
			<point x="723" y="765"/>
			<point x="720" y="765" type="curve"/>
			<point x="720" y="753" type="line"/>
			<point x="759" y="747"/>
			<point x="776" y="735"/>
			<point x="776" y="717" type="curve"/>
			<point x="776" y="683"/>
			<point x="721" y="624"/>
			<point x="652" y="532" type="curve"/>
			<point x="566" y="423" type="line"/>
			<point x="462" y="532" type="line"/>
			<point x="372" y="618"/>
			<point x="316" y="677"/>
			<point x="316" y="713" type="curve"/>
			<point x="316" y="734"/>
			<point x="334" y="747"/>
			<point x="374" y="753" type="curve"/>
			<point x="374" y="765" type="line"/>
			<point x="371" y="765"/>
			<point x="262" y="747"/>
			<point x="225" y="747" type="curve"/>
			<point x="183" y="747"/>
			<point x="161" y="747"/>
			<point x="82" y="765" type="curve"/>
			<point x="82" y="753" type="line"/>
			<point x="193" y="736"/>
			<point x="391" y="538"/>
			<point x="394" y="534" type="curve"/>
			<point x="520" y="402" type="line"/>
			<point x="384" y="231" type="line"/>
			<point x="379" y="231"/>
			<point x="236" y="53"/>
		</contour>
	</outline>
</glyph>
<glyph name="bracketleft" format="2">
	<advance width="320"/>
	<unicode hex="005B"/>
	<note>
		bracketleft
  </note>
	<outline>
		<contour>
			<point x="280" y="-167" type="curve"/>
			<point x="280" y="-167" type="line"/>
			<point x="280" y="-155" type="line"/>
			<point x="169" y="-138"/>
			<point x="168" y="-67"/>
			<point x="168" y="64" type="curve"/>
			<point x="168" y="364" type="line" smooth="yes"/>
			<point x="168" y="495"/>
			<point x="169" y="566"/>
			<point x="280" y="583" type="curve"/>
			<point x="280" y="595" type="line"/>
			<point x="201" y="577"/>
			<point x="179" y="577"/>
			<point x="137" y="577" type="curve"/>
			<point x="100" y="577"/>
			<point x="100" y="449"/>
			<point x="100" y="362" type="curve"/>
			<point x="100" y="66" type="line" smooth="yes"/>
			<point x="100" y="-65"/>
			<point x="99" y="-138"/>
			<point x="137" y="-149" type="curve"/>
			<point x="179" y="-149"/>
			<point x="201" y="-149"/>
		</contour>
	</outline>
</glyph>
<glyph name="backslash" format="2">
	<advance width="628"/>
	<unicode hex="005C"/>
	<note>
		backslash
  </note>
	<outline>
		<contour>
			<point x="75" y="752" type="line"/>
			<point x="541" y="1" type="line"/>
			<point x="553" y="8" type="line"/>
			<point x="88" y="759" type="line"/>
		</contour>
	</outline>
</glyph>
<glyph name="bracketright" format="2">
	<advance width="320"/>
	<unicode hex="005D"/>
	<note>
		bracketright
  </note>
	<outline>
		<contour>
			<point x="40" y="-155" type="curve"/>
			<point x="40" y="-167" type="line"/>
			<point x="119" y="-149"/>
			<point x="141" y="-149"/>
			<point x="183" y="-149" type="curve"/>
			<point x="221" y="-138"/>
			<point x="220" y="-65"/>
			<point x="220" y="66" type="curve"/>
			<point x="220" y="362" type="line" smooth="yes"/>
			<point x="220" y="449"/>
			<point x="220" y="577"/>
			<point x="183" y="577" type="curve"/>
			<point x="141" y="577"/>
			<point x="119" y="577"/>
			<point x="40" y="595" type="curve"/>
			<point x="40" y="583" type="line"/>
			<point x="151" y="566"/>
			<point x="152" y="495"/>
			<point x="152" y="364" type="curve"/>
			<point x="152" y="64" type="line" smooth="yes"/>
			<point x="152" y="-67"/>
			<point x="151" y="-138"/>
		</contour>
	</outline>
</glyph>
<glyph name="underscore" format="2">
	<advance width="843"/>
	<unicode hex="005F"/>
	<note>
		underscore
  </note>
	<outline>
		<contour>
			<point x="100" y="15" type="line"/>
			<point x="100" y="1" type="line"/>
			<point x="743" y="1" type="line"/>
			<point x="743" y="15" type="line"/>
		</contour>
	</outline>
</glyph>
<glyph name="grave" format="2">
	<advance width="425"/>
	<unicode hex="0060"/>
	<note>
		grave
  </note>
	<outline>
		<contour>
			<point x="130" y="626" type="curve"/>
			<point x="314" y="551" type="line"/>
			<point x="325" y="563" type="line"/>
			<point x="146" y="674" type="line"/>
			<point x="147" y="673"/>
			<point x="135" y="682"/>
			<point x="123" y="682" type="curve"/>
			<point x="116" y="682"/>
			<point x="108" y="678"/>
			<point x="103" y="667" type="curve"/>
			<point x="101" y="663"/>
			<point x="100" y="659"/>
			<point x="100" y="655" type="curve"/>
			<point x="100" y="633"/>
			<point x="130" y="626"/>
		</contour>
	</outline>
</glyph>
<glyph name="a" format="2">
	<advance width="535"/>
	<unicode hex="0061"/>
	<anchor x="483" y="10" name="ogonek"/>
	<anchor x="269" y="0" name="bottom"/>
	<anchor x="245" y="500" name="top"/>
	<note>
		a
  </note>
	<outline>
		<contour>
			<point x="160" y="-7" type="curve"/>
			<point x="160" y="-7" type="line"/>
			<point x="219" y="-7"/>
			<point x="323" y="67"/>
			<point x="328" y="81" type="curve"/>
			<point x="328" y="59"/>
			<point x="328" y="-7"/>
			<point x="385" y="-7" type="curve"/>
			<point x="458" y="-7"/>
			<point x="522" y="65"/>
			<point x="525" y="65" type="curve"/>
			<point x="509" y="83" type="line"/>
			<point x="501" y="74"/>
			<point x="451" y="49"/>
			<point x="433" y="49" type="curve"/>
			<point x="409" y="49"/>
			<point x="393" y="72"/>
			<point x="393" y="175" type="curve"/>
			<point x="393" y="325" type="line" smooth="yes"/>
			<point x="393" y="429"/>
			<point x="324" y="460"/>
			<point x="245" y="460" type="curve"/>
			<point x="138" y="460"/>
			<point x="53" y="410"/>
			<point x="53" y="351" type="curve"/>
			<point x="121" y="306" type="line"/>
			<point x="121" y="392"/>
			<point x="169" y="441"/>
			<point x="214" y="441" type="curve"/>
			<point x="273" y="441"/>
			<point x="328" y="390"/>
			<point x="328" y="298" type="curve"/>
			<point x="240" y="273" type="line" smooth="yes"/>
			<point x="93" y="231"/>
			<point x="50" y="183"/>
			<point x="50" y="104" type="curve"/>
			<point x="50" y="24"/>
			<point x="100" y="-7"/>
		</contour>
		<contour>
			<point x="217" y="49" type="curve"/>
			<point x="217" y="49" type="line"/>
			<point x="156" y="47"/>
			<point x="109" y="70"/>
			<point x="109" y="147" type="curve"/>
			<point x="109" y="207"/>
			<point x="165" y="233"/>
			<point x="227" y="250" type="curve"/>
			<point x="328" y="278" type="line"/>
			<point x="328" y="278"/>
			<point x="328" y="260"/>
			<point x="328" y="236" type="curve"/>
			<point x="328" y="187"/>
			<point x="328" y="115"/>
			<point x="328" y="115" type="curve"/>
			<point x="328" y="97"/>
			<point x="253" y="50"/>
		</contour>
	</outline>
</glyph>
<glyph name="b" format="2">
	<advance width="667"/>
	<unicode hex="0062"/>
	<anchor x="334" y="750" name="top"/>
	<anchor x="334" y="0" name="bottom"/>
	<note>
		b
  </note>
	<outline>
		<contour>
			<point x="384" y="-6" type="curve"/>
			<point x="384" y="-6" type="line"/>
			<point x="429" y="-6"/>
			<point x="475" y="7"/>
			<point x="514" y="35" type="curve"/>
			<point x="576" y="79"/>
			<point x="611" y="153"/>
			<point x="611" y="229" type="curve"/>
			<point x="611" y="275"/>
			<point x="598" y="322"/>
			<point x="569" y="362" type="curve"/>
			<point x="525" y="424"/>
			<point x="453" y="459"/>
			<point x="380" y="459" type="curve"/>
			<point x="334" y="459"/>
			<point x="288" y="446"/>
			<point x="247" y="417" type="curve"/>
			<point x="231" y="406"/>
			<point x="217" y="388"/>
			<point x="205" y="373" type="curve"/>
			<point x="205" y="613" type="line" smooth="yes"/>
			<point x="205" y="630"/>
			<point x="205" y="712"/>
			<point x="215" y="750" type="curve"/>
			<point x="186" y="750" type="line"/>
			<point x="141" y="716"/>
			<point x="93" y="698"/>
			<point x="26" y="698" type="curve"/>
			<point x="26" y="686" type="line"/>
			<point x="135" y="669"/>
			<point x="137" y="655"/>
			<point x="137" y="529" type="curve"/>
			<point x="137" y="229" type="line"/>
			<point x="136" y="0" type="line"/>
			<point x="150" y="0" type="line"/>
			<point x="179" y="64" type="line"/>
			<point x="251" y="-8"/>
			<point x="315" y="-6"/>
		</contour>
		<contour>
			<point x="419" y="34" type="curve"/>
			<point x="419" y="34" type="line"/>
			<point x="341" y="34"/>
			<point x="244" y="79"/>
			<point x="206" y="135" type="curve"/>
			<point x="206" y="271" type="line"/>
			<point x="204" y="321"/>
			<point x="218" y="373"/>
			<point x="256" y="402" type="curve"/>
			<point x="276" y="417"/>
			<point x="300" y="423"/>
			<point x="324" y="423" type="curve"/>
			<point x="390" y="423"/>
			<point x="463" y="377"/>
			<point x="502" y="321" type="curve"/>
			<point x="529" y="280"/>
			<point x="547" y="225"/>
			<point x="547" y="174" type="curve"/>
			<point x="547" y="126"/>
			<point x="532" y="82"/>
			<point x="495" y="55" type="curve"/>
			<point x="475" y="40"/>
			<point x="448" y="34"/>
		</contour>
	</outline>
</glyph>
<glyph name="e" format="2">
	<advance width="542"/>
	<unicode hex="0065"/>
	<anchor x="370" y="10" name="ogonek"/>
	<anchor x="328" y="0" name="bottom"/>
	<anchor x="278" y="500" name="top"/>
	<note>
		e
  </note>
	<outline>
		<contour>
			<point x="288" y="-7" type="curve"/>
			<point x="288" y="-7" type="line"/>
			<point x="334" y="-7"/>
			<point x="380" y="6"/>
			<point x="420" y="35" type="curve"/>
			<point x="456" y="65"/>
			<point x="460" y="72"/>
			<point x="469" y="90" type="curve"/>
			<point x="448" y="103" type="line"/>
			<point x="437" y="87"/>
			<point x="429" y="73"/>
			<point x="401" y="55" type="curve"/>
			<point x="381" y="41"/>
			<point x="358" y="35"/>
			<point x="333" y="35" type="curve"/>
			<point x="268" y="35"/>
			<point x="195" y="80"/>
			<point x="157" y="136" type="curve"/>
			<point x="129" y="175"/>
			<point x="111" y="229"/>
			<point x="111" y="280" type="curve"/>
			<point x="111" y="326"/>
			<point x="126" y="370"/>
			<point x="162" y="397" type="curve"/>
			<point x="182" y="412"/>
			<point x="206" y="418"/>
			<point x="230" y="418" type="curve"/>
			<point x="296" y="418"/>
			<point x="369" y="372"/>
			<point x="408" y="316" type="curve"/>
			<point x="183" y="157" type="line"/>
			<point x="190" y="148" type="line"/>
			<point x="497" y="347" type="line"/>
			<point x="484" y="367" type="line"/>
			<point x="467" y="355" type="line"/>
			<point x="431" y="428"/>
			<point x="365" y="459"/>
			<point x="297" y="459" type="curve"/>
			<point x="247" y="459"/>
			<point x="195" y="442"/>
			<point x="153" y="412" type="curve"/>
			<point x="91" y="368"/>
			<point x="55" y="296"/>
			<point x="55" y="222" type="curve"/>
			<point x="55" y="176"/>
			<point x="69" y="130"/>
			<point x="98" y="90" type="curve"/>
			<point x="141" y="28"/>
			<point x="214" y="-7"/>
		</contour>
	</outline>
</glyph>
<glyph name="f" format="2">
	<advance width="424"/>
	<unicode hex="0066"/>
	<anchor x="212" y="750" name="top"/>
	<anchor x="212" y="0" name="bottom"/>
	<note>
		f
  </note>
	<outline>
		<contour>
			<point x="46" y="15" type="curve"/>
			<point x="46" y="3" type="line"/>
			<point x="125" y="21"/>
			<point x="147" y="21"/>
			<point x="189" y="21" type="curve"/>
			<point x="226" y="21"/>
			<point x="335" y="3"/>
			<point x="338" y="3" type="curve"/>
			<point x="338" y="15" type="line"/>
			<point x="230" y="31"/>
			<point x="225" y="92"/>
			<point x="225" y="232" type="curve"/>
			<point x="227" y="423" type="line"/>
			<point x="393" y="425" type="line"/>
			<point x="393" y="459" type="line"/>
			<point x="228" y="459" type="line"/>
			<point x="229" y="526"/>
			<point x="229" y="553"/>
			<point x="229" y="585" type="curve"/>
			<point x="229" y="647"/>
			<point x="237" y="692"/>
			<point x="259" y="718" type="curve"/>
			<point x="274" y="736"/>
			<point x="306" y="746"/>
			<point x="339" y="746" type="curve"/>
			<point x="391" y="746"/>
			<point x="447" y="721"/>
			<point x="447" y="666" type="curve"/>
			<point x="447" y="654"/>
			<point x="444" y="640"/>
			<point x="438" y="625" type="curve"/>
			<point x="494" y="681" type="line"/>
			<point x="494" y="757"/>
			<point x="452" y="781"/>
			<point x="402" y="781" type="curve"/>
			<point x="345" y="781"/>
			<point x="277" y="749"/>
			<point x="248" y="726" type="curve"/>
			<point x="191" y="680"/>
			<point x="159" y="602"/>
			<point x="159" y="497" type="curve"/>
			<point x="159" y="459"/>
			<point x="159" y="437"/>
			<point x="48" y="437" type="curve"/>
			<point x="48" y="425" type="line"/>
			<point x="157" y="423" type="line"/>
			<point x="157" y="229" type="line" smooth="yes"/>
			<point x="157" y="98"/>
			<point x="157" y="32"/>
		</contour>
	</outline>
</glyph>
<glyph name="h" format="2">
	<advance width="712"/>
	<unicode hex="0068"/>
	<anchor x="356" y="375" name="center"/>
	<anchor x="356" y="0" name="bottom"/>
	<anchor x="356" y="750" name="top"/>
	<note>
		h
  </note>
	<outline>
		<contour>
			<point x="46" y="15" type="curve"/>
			<point x="46" y="3" type="line"/>
			<point x="92" y="16"/>
			<point x="130" y="21"/>
			<point x="165" y="21" type="curve"/>
			<point x="211" y="21"/>
			<point x="252" y="13"/>
			<point x="298" y="3" type="curve"/>
			<point x="298" y="15" type="line"/>
			<point x="227" y="29"/>
			<point x="226" y="82"/>
			<point x="226" y="209" type="curve"/>
			<point x="226" y="240"/>
			<point x="232" y="432"/>
			<point x="388" y="432" type="curve"/>
			<point x="445" y="432"/>
			<point x="488" y="377"/>
			<point x="488" y="293" type="curve"/>
			<point x="488" y="234" type="line" smooth="yes"/>
			<point x="488" y="103"/>
			<point x="490" y="29"/>
			<point x="416" y="15" type="curve"/>
			<point x="416" y="3" type="line"/>
			<point x="459" y="18"/>
			<point x="495" y="23"/>
			<point x="526" y="23" type="curve"/>
			<point x="584" y="23"/>
			<point x="626" y="6"/>
			<point x="668" y="3" type="curve"/>
			<point x="668" y="15" type="line"/>
			<point x="560" y="31"/>
			<point x="556" y="101"/>
			<point x="556" y="225" type="curve"/>
			<point x="556" y="311" type="line" smooth="yes"/>
			<point x="556" y="428"/>
			<point x="481" y="460"/>
			<point x="413" y="460" type="curve"/>
			<point x="300" y="460"/>
			<point x="248" y="374"/>
			<point x="225" y="304" type="curve"/>
			<point x="225" y="750" type="line"/>
			<point x="206" y="750" type="line"/>
			<point x="161" y="716"/>
			<point x="113" y="698"/>
			<point x="46" y="698" type="curve"/>
			<point x="46" y="686" type="line"/>
			<point x="149" y="670"/>
			<point x="156" y="665"/>
			<point x="157" y="528" type="curve"/>
			<point x="158" y="234" type="line" smooth="yes"/>
			<point x="158" y="103"/>
			<point x="157" y="32"/>
		</contour>
	</outline>
</glyph>
<glyph name="i" format="2">
	<advance width="382"/>
	<unicode hex="0069"/>
	<anchor x="191" y="0" name="bottom"/>
	<note>
		i
  </note>
	<outline>
		<contour>
			<point x="46" y="15" type="curve"/>
			<point x="46" y="3" type="line"/>
			<point x="125" y="21"/>
			<point x="147" y="21"/>
			<point x="189" y="21" type="curve"/>
			<point x="226" y="21"/>
			<point x="335" y="3"/>
			<point x="338" y="3" type="curve"/>
			<point x="338" y="15" type="line"/>
			<point x="230" y="31"/>
			<point x="226" y="101"/>
			<point x="226" y="225" type="curve"/>
			<point x="225" y="442" type="line"/>
			<point x="206" y="442" type="line"/>
			<point x="161" y="408"/>
			<point x="113" y="388"/>
			<point x="46" y="388" type="curve"/>
			<point x="46" y="376" type="line"/>
			<point x="155" y="359"/>
			<point x="158" y="360"/>
			<point x="158" y="234" type="curve"/>
			<point x="158" y="103"/>
			<point x="157" y="32"/>
		</contour>
		<contour>
			<point x="191" y="545" type="curve"/>
			<point x="191" y="545" type="line"/>
			<point x="219" y="545"/>
			<point x="242" y="567"/>
			<point x="242" y="595" type="curve"/>
			<point x="242" y="623"/>
			<point x="219" y="646"/>
			<point x="191" y="646" type="curve"/>
			<point x="163" y="646"/>
			<point x="141" y="623"/>
			<point x="141" y="595" type="curve"/>
			<point x="141" y="567"/>
			<point x="163" y="545"/>
		</contour>
	</outline>
</glyph>
<glyph name="j" format="2">
	<advance width="328"/>
	<unicode hex="006A"/>
	<note>
		j
  </note>
	<outline>
		<contour>
			<point x="66" y="-803" type="curve"/>
			<point x="66" y="-815" type="line"/>
			<point x="244" y="-815"/>
			<point x="245" y="-218"/>
			<point x="245" y="-2" type="curve"/>
			<point x="245" y="442" type="line"/>
			<point x="226" y="442" type="line"/>
			<point x="181" y="408"/>
			<point x="133" y="388"/>
			<point x="66" y="388" type="curve"/>
			<point x="66" y="376" type="line"/>
			<point x="175" y="359"/>
			<point x="178" y="360"/>
			<point x="178" y="234" type="curve"/>
			<point x="178" y="-196" type="line" smooth="yes"/>
			<point x="174" y="-493"/>
			<point x="154" y="-789"/>
		</contour>
		<contour>
			<point x="211" y="545" type="curve"/>
			<point x="211" y="545" type="line"/>
			<point x="239" y="545"/>
			<point x="262" y="567"/>
			<point x="262" y="595" type="curve"/>
			<point x="262" y="623"/>
			<point x="239" y="646"/>
			<point x="211" y="646" type="curve"/>
			<point x="183" y="646"/>
			<point x="161" y="623"/>
			<point x="161" y="595" type="curve"/>
			<point x="161" y="567"/>
			<point x="183" y="545"/>
		</contour>
	</outline>
</glyph>
<glyph name="k" format="2">
	<advance width="658"/>
	<unicode hex="006B"/>
	<anchor x="329" y="750" name="top"/>
	<anchor x="329" y="0" name="bottom"/>
	<note>
		k
  </note>
	<outline>
		<contour>
			<point x="1208" y="-818" type="curve"/>
			<point x="1208" y="-818" type="line"/>
			<point x="1228" y="-818"/>
			<point x="1247" y="-812"/>
			<point x="1262" y="-798" type="curve"/>
			<point x="1254" y="-789" type="line"/>
			<point x="1248" y="-793"/>
			<point x="1241" y="-795"/>
			<point x="1232" y="-795" type="curve"/>
			<point x="1139" y="-795"/>
			<point x="915" y="-556"/>
			<point x="760" y="-320" type="curve"/>
			<point x="358" y="290" type="line"/>
			<point x="431" y="353"/>
			<point x="514" y="423"/>
			<point x="594" y="435" type="curve"/>
			<point x="594" y="447" type="line"/>
			<point x="591" y="447"/>
			<point x="512" y="429"/>
			<point x="475" y="429" type="curve"/>
			<point x="433" y="429"/>
			<point x="441" y="429"/>
			<point x="362" y="447" type="curve"/>
			<point x="362" y="435" type="line"/>
			<point x="395" y="430"/>
			<point x="408" y="418"/>
			<point x="408" y="402" type="curve"/>
			<point x="408" y="368"/>
			<point x="352" y="317"/>
			<point x="294" y="270" type="curve"/>
			<point x="225" y="215" type="line"/>
			<point x="225" y="613" type="line" smooth="yes"/>
			<point x="225" y="630"/>
			<point x="225" y="712"/>
			<point x="235" y="750" type="curve"/>
			<point x="206" y="750" type="line"/>
			<point x="161" y="716"/>
			<point x="113" y="698"/>
			<point x="46" y="698" type="curve"/>
			<point x="46" y="686" type="line"/>
			<point x="155" y="669"/>
			<point x="157" y="655"/>
			<point x="157" y="529" type="curve"/>
			<point x="157" y="229" type="line" smooth="yes"/>
			<point x="157" y="98"/>
			<point x="157" y="32"/>
			<point x="46" y="15" type="curve"/>
			<point x="46" y="3" type="line"/>
			<point x="125" y="21"/>
			<point x="147" y="21"/>
			<point x="189" y="21" type="curve"/>
			<point x="226" y="21"/>
			<point x="335" y="3"/>
			<point x="338" y="3" type="curve"/>
			<point x="338" y="15" type="line"/>
			<point x="244" y="29"/>
			<point x="228" y="77"/>
			<point x="225" y="182" type="curve"/>
			<point x="287" y="231"/>
			<point x="296" y="237"/>
			<point x="305" y="244" type="curve"/>
			<point x="564" y="-158" type="line" smooth="yes"/>
			<point x="764" y="-451"/>
			<point x="1052" y="-818"/>
		</contour>
	</outline>
</glyph>
<glyph name="m" format="2">
	<advance width="1002"/>
	<unicode hex="006D"/>
	<anchor x="501" y="500" name="top"/>
	<anchor x="501" y="0" name="bottom"/>
	<note>
		m
  </note>
	<outline>
		<contour>
			<point x="46" y="15" type="curve"/>
			<point x="46" y="3" type="line"/>
			<point x="125" y="21"/>
			<point x="147" y="21"/>
			<point x="189" y="21" type="curve"/>
			<point x="226" y="21"/>
			<point x="295" y="3"/>
			<point x="298" y="3" type="curve"/>
			<point x="298" y="15" type="line"/>
			<point x="228" y="29"/>
			<point x="226" y="81"/>
			<point x="226" y="205" type="curve"/>
			<point x="226" y="207"/>
			<point x="225" y="431"/>
			<point x="389" y="431" type="curve"/>
			<point x="442" y="431"/>
			<point x="467" y="377"/>
			<point x="468" y="295" type="curve"/>
			<point x="468" y="234" type="line" smooth="yes"/>
			<point x="468" y="103"/>
			<point x="469" y="39"/>
			<point x="386" y="15" type="curve"/>
			<point x="386" y="3" type="line"/>
			<point x="465" y="21"/>
			<point x="457" y="21"/>
			<point x="499" y="21" type="curve"/>
			<point x="536" y="21"/>
			<point x="605" y="3"/>
			<point x="608" y="3" type="curve"/>
			<point x="608" y="15" type="line"/>
			<point x="538" y="29"/>
			<point x="536" y="81"/>
			<point x="536" y="205" type="curve"/>
			<point x="536" y="207"/>
			<point x="536" y="431"/>
			<point x="699" y="431" type="curve"/>
			<point x="754" y="431"/>
			<point x="778" y="377"/>
			<point x="778" y="293" type="curve"/>
			<point x="778" y="234" type="line" smooth="yes"/>
			<point x="778" y="103"/>
			<point x="780" y="29"/>
			<point x="706" y="15" type="curve"/>
			<point x="706" y="3" type="line"/>
			<point x="785" y="21"/>
			<point x="781" y="21"/>
			<point x="809" y="21" type="curve"/>
			<point x="846" y="21"/>
			<point x="955" y="3"/>
			<point x="958" y="3" type="curve"/>
			<point x="958" y="15" type="line"/>
			<point x="850" y="31"/>
			<point x="846" y="101"/>
			<point x="846" y="225" type="curve"/>
			<point x="846" y="311" type="line" smooth="yes"/>
			<point x="846" y="428"/>
			<point x="771" y="459"/>
			<point x="703" y="459" type="curve"/>
			<point x="590" y="459"/>
			<point x="558" y="374"/>
			<point x="535" y="304" type="curve"/>
			<point x="542" y="423"/>
			<point x="463" y="459"/>
			<point x="393" y="459" type="curve"/>
			<point x="280" y="459"/>
			<point x="248" y="374"/>
			<point x="225" y="304" type="curve"/>
			<point x="225" y="440" type="line"/>
			<point x="206" y="440" type="line"/>
			<point x="161" y="406"/>
			<point x="113" y="388"/>
			<point x="46" y="388" type="curve"/>
			<point x="46" y="376" type="line"/>
			<point x="155" y="359"/>
			<point x="158" y="360"/>
			<point x="158" y="234" type="curve"/>
			<point x="158" y="103"/>
			<point x="157" y="32"/>
		</contour>
	</outline>
</glyph>
<glyph name="n" format="2">
	<advance width="712"/>
	<unicode hex="006E"/>
	<anchor x="356" y="500" name="top"/>
	<anchor x="356" y="0" name="bottom"/>
	<note>
		n
  </note>
	<outline>
		<contour>
			<point x="46" y="15" type="curve"/>
			<point x="46" y="3" type="line"/>
			<point x="92" y="16"/>
			<point x="130" y="21"/>
			<point x="165" y="21" type="curve"/>
			<point x="211" y="21"/>
			<point x="252" y="13"/>
			<point x="298" y="3" type="curve"/>
			<point x="298" y="15" type="line"/>
			<point x="228" y="29"/>
			<point x="226" y="81"/>
			<point x="226" y="205" type="curve"/>
			<point x="226" y="207"/>
			<point x="225" y="432"/>
			<point x="394" y="432" type="curve"/>
			<point x="450" y="432"/>
			<point x="488" y="377"/>
			<point x="488" y="293" type="curve"/>
			<point x="488" y="234" type="line" smooth="yes"/>
			<point x="488" y="103"/>
			<point x="490" y="29"/>
			<point x="416" y="15" type="curve"/>
			<point x="416" y="3" type="line"/>
			<point x="450" y="18"/>
			<point x="489" y="23"/>
			<point x="526" y="23" type="curve"/>
			<point x="600" y="23"/>
			<point x="666" y="3"/>
			<point x="668" y="3" type="curve"/>
			<point x="668" y="15" type="line"/>
			<point x="560" y="31"/>
			<point x="556" y="101"/>
			<point x="556" y="225" type="curve"/>
			<point x="556" y="311" type="line" smooth="yes"/>
			<point x="556" y="428"/>
			<point x="481" y="460"/>
			<point x="413" y="460" type="curve"/>
			<point x="300" y="460"/>
			<point x="248" y="374"/>
			<point x="225" y="304" type="curve"/>
			<point x="225" y="440" type="line"/>
			<point x="206" y="440" type="line"/>
			<point x="161" y="406"/>
			<point x="113" y="388"/>
			<point x="46" y="388" type="curve"/>
			<point x="46" y="376" type="line"/>
			<point x="155" y="359"/>
			<point x="158" y="360"/>
			<point x="158" y="234" type="curve"/>
			<point x="158" y="103"/>
			<point x="157" y="32"/>
		</contour>
	</outline>
</glyph>
<glyph name="q" format="2">
	<advance width="597"/>
	<unicode hex="0071"/>
	<anchor x="299" y="499" name="top"/>
	<anchor x="299" y="0" name="bottom"/>
	<note>
		q
  </note>
	<outline>
		<contour>
			<point x="349" y="-803" type="curve"/>
			<point x="349" y="-815" type="line"/>
			<point x="428" y="-797"/>
			<point x="450" y="-797"/>
			<point x="492" y="-797" type="curve"/>
			<point x="529" y="-797"/>
			<point x="638" y="-815"/>
			<point x="641" y="-815" type="curve"/>
			<point x="641" y="-803" type="line"/>
			<point x="533" y="-787"/>
			<point x="528" y="-723"/>
			<point x="528" y="-583" type="curve"/>
			<point x="531" y="471" type="line"/>
			<point x="519" y="471" type="line"/>
			<point x="488" y="417" type="line"/>
			<point x="450" y="447"/>
			<point x="352" y="460"/>
			<point x="283" y="460" type="curve"/>
			<point x="238" y="460"/>
			<point x="192" y="447"/>
			<point x="153" y="419" type="curve"/>
			<point x="91" y="375"/>
			<point x="56" y="300"/>
			<point x="56" y="224" type="curve"/>
			<point x="56" y="177"/>
			<point x="69" y="130"/>
			<point x="98" y="90" type="curve"/>
			<point x="142" y="28"/>
			<point x="214" y="-7"/>
			<point x="287" y="-7" type="curve"/>
			<point x="333" y="-7"/>
			<point x="379" y="6"/>
			<point x="420" y="35" type="curve"/>
			<point x="436" y="46"/>
			<point x="450" y="59"/>
			<point x="462" y="74" type="curve"/>
			<point x="460" y="-586" type="line" smooth="yes"/>
			<point x="460" y="-717"/>
			<point x="460" y="-786"/>
		</contour>
		<contour>
			<point x="343" y="29" type="curve"/>
			<point x="343" y="29" type="line"/>
			<point x="277" y="29"/>
			<point x="204" y="75"/>
			<point x="165" y="131" type="curve"/>
			<point x="138" y="172"/>
			<point x="120" y="227"/>
			<point x="120" y="279" type="curve"/>
			<point x="120" y="327"/>
			<point x="135" y="372"/>
			<point x="172" y="399" type="curve"/>
			<point x="194" y="415"/>
			<point x="230" y="423"/>
			<point x="268" y="423" type="curve"/>
			<point x="356" y="423"/>
			<point x="461" y="383"/>
			<point x="461" y="316" type="curve"/>
			<point x="461" y="176" type="line" smooth="yes"/>
			<point x="461" y="122"/>
			<point x="449" y="79"/>
			<point x="411" y="50" type="curve"/>
			<point x="391" y="35"/>
			<point x="367" y="29"/>
		</contour>
	</outline>
</glyph>
<glyph name="s" format="2">
	<advance width="493"/>
	<unicode hex="0073"/>
	<anchor x="247" y="500" name="top"/>
	<anchor x="247" y="0" name="bottom"/>
	<note>
		s
  </note>
	<outline>
		<contour>
			<point x="216" y="-8" type="curve"/>
			<point x="216" y="-8" type="line"/>
			<point x="319" y="-8"/>
			<point x="427" y="42"/>
			<point x="427" y="140" type="curve"/>
			<point x="427" y="249"/>
			<point x="327" y="257"/>
			<point x="255" y="285" type="curve"/>
			<point x="155" y="322"/>
			<point x="136" y="336"/>
			<point x="136" y="373" type="curve"/>
			<point x="136" y="399"/>
			<point x="163" y="443"/>
			<point x="240" y="443" type="curve"/>
			<point x="285" y="443"/>
			<point x="346" y="404"/>
			<point x="346" y="318" type="curve"/>
			<point x="414" y="363" type="line"/>
			<point x="388" y="431"/>
			<point x="310" y="460"/>
			<point x="242" y="460" type="curve"/>
			<point x="168" y="460"/>
			<point x="86" y="416"/>
			<point x="86" y="334" type="curve"/>
			<point x="86" y="258"/>
			<point x="171" y="222"/>
			<point x="234" y="202" type="curve"/>
			<point x="254" y="196"/>
			<point x="363" y="179"/>
			<point x="363" y="114" type="curve"/>
			<point x="363" y="38"/>
			<point x="284" y="9"/>
			<point x="239" y="9" type="curve"/>
			<point x="172" y="9"/>
			<point x="72" y="74"/>
			<point x="66" y="109" type="curve"/>
			<point x="66" y="12" type="line"/>
			<point x="106" y="12"/>
			<point x="168" y="-8"/>
		</contour>
	</outline>
</glyph>
<glyph name="u" format="2">
	<advance width="696"/>
	<unicode hex="0075"/>
	<anchor x="626" y="10" name="ogonek"/>
	<anchor x="348" y="500" name="top"/>
	<anchor x="516" y="399" name="topright"/>
	<anchor x="348" y="0" name="bottom"/>
	<note>
		u
  </note>
	<outline>
		<contour>
			<point x="464" y="153" type="curve"/>
			<point x="464" y="-3" type="line"/>
			<point x="483" y="-3" type="line"/>
			<point x="528" y="31"/>
			<point x="576" y="49"/>
			<point x="643" y="49" type="curve"/>
			<point x="643" y="61" type="line"/>
			<point x="534" y="78"/>
			<point x="531" y="77"/>
			<point x="531" y="203" type="curve"/>
			<point x="531" y="454" type="line"/>
			<point x="391" y="414" type="line"/>
			<point x="391" y="402" type="line"/>
			<point x="462" y="388"/>
			<point x="463" y="376"/>
			<point x="463" y="247" type="curve"/>
			<point x="463" y="214"/>
			<point x="456" y="31"/>
			<point x="280" y="31" type="curve"/>
			<point x="247" y="31"/>
			<point x="201" y="80"/>
			<point x="201" y="164" type="curve"/>
			<point x="201" y="454" type="line"/>
			<point x="133" y="436"/>
			<point x="54" y="424"/>
			<point x="51" y="424" type="curve"/>
			<point x="51" y="412" type="line"/>
			<point x="133" y="399"/>
			<point x="133" y="356"/>
			<point x="133" y="232" type="curve"/>
			<point x="133" y="146" type="line" smooth="yes"/>
			<point x="133" y="29"/>
			<point x="208" y="3"/>
			<point x="276" y="3" type="curve"/>
			<point x="389" y="3"/>
			<point x="441" y="83"/>
		</contour>
	</outline>
</glyph>
<glyph name="x" format="2">
	<advance width="722"/>
	<unicode hex="0078"/>
	<anchor x="361" y="500" name="top"/>
	<anchor x="361" y="0" name="bottom"/>
	<note>
		x
  </note>
	<outline>
		<contour>
			<point x="48" y="12" type="curve"/>
			<point x="48" y="0" type="line"/>
			<point x="51" y="0"/>
			<point x="160" y="18"/>
			<point x="197" y="18" type="curve"/>
			<point x="239" y="18"/>
			<point x="225" y="18"/>
			<point x="304" y="0" type="curve"/>
			<point x="304" y="12" type="line"/>
			<point x="242" y="25"/>
			<point x="220" y="34"/>
			<point x="220" y="50" type="curve"/>
			<point x="220" y="62"/>
			<point x="233" y="78"/>
			<point x="250" y="103" type="curve"/>
			<point x="321" y="206" type="line"/>
			<point x="400" y="116" type="line"/>
			<point x="416" y="95"/>
			<point x="439" y="73"/>
			<point x="439" y="54" type="curve"/>
			<point x="439" y="40"/>
			<point x="425" y="26"/>
			<point x="382" y="15" type="curve"/>
			<point x="382" y="3" type="line"/>
			<point x="461" y="21"/>
			<point x="483" y="21"/>
			<point x="525" y="21" type="curve"/>
			<point x="562" y="21"/>
			<point x="671" y="3"/>
			<point x="674" y="3" type="curve"/>
			<point x="674" y="15" type="line"/>
			<point x="566" y="31"/>
			<point x="578" y="53"/>
			<point x="472" y="154" type="curve"/>
			<point x="378" y="254" type="line"/>
			<point x="424" y="313" type="line" smooth="yes"/>
			<point x="490" y="398"/>
			<point x="512" y="414"/>
			<point x="620" y="430" type="curve"/>
			<point x="620" y="442" type="line"/>
			<point x="617" y="442"/>
			<point x="508" y="424"/>
			<point x="471" y="424" type="curve"/>
			<point x="429" y="424"/>
			<point x="443" y="424"/>
			<point x="364" y="442" type="curve"/>
			<point x="364" y="430" type="line"/>
			<point x="423" y="418"/>
			<point x="443" y="406"/>
			<point x="443" y="389" type="curve"/>
			<point x="443" y="375"/>
			<point x="427" y="356"/>
			<point x="409" y="329" type="curve"/>
			<point x="364" y="270" type="line"/>
			<point x="308" y="341" type="line"/>
			<point x="280" y="374"/>
			<point x="260" y="390"/>
			<point x="260" y="401" type="curve"/>
			<point x="260" y="412"/>
			<point x="282" y="417"/>
			<point x="338" y="429" type="curve"/>
			<point x="338" y="441" type="line"/>
			<point x="259" y="423"/>
			<point x="237" y="423"/>
			<point x="195" y="423" type="curve"/>
			<point x="158" y="423"/>
			<point x="49" y="441"/>
			<point x="46" y="441" type="curve"/>
			<point x="46" y="429" type="line"/>
			<point x="154" y="413"/>
			<point x="148" y="406"/>
			<point x="236" y="303" type="curve"/>
			<point x="307" y="222" type="line"/>
			<point x="235" y="119" type="line" smooth="yes"/>
			<point x="166" y="20"/>
			<point x="156" y="28"/>
		</contour>
	</outline>
</glyph>
<glyph name="z" format="2">
	<advance width="579"/>
	<unicode hex="007A"/>
	<anchor x="290" y="250" name="center"/>
	<anchor x="290" y="0" name="bottom"/>
	<anchor x="290" y="500" name="top"/>
	<note>
		z
  </note>
	<outline>
		<contour>
			<point x="68" y="15" type="line"/>
			<point x="68" y="0" type="line"/>
			<point x="465" y="0" type="line"/>
			<point x="465" y="43"/>
			<point x="533" y="135"/>
			<point x="543" y="200" type="curve"/>
			<point x="522" y="200" type="line"/>
			<point x="522" y="76"/>
			<point x="392" y="14"/>
			<point x="316" y="14" type="curve"/>
			<point x="145" y="13" type="line"/>
			<point x="493" y="441" type="line"/>
			<point x="111" y="441" type="line"/>
			<point x="111" y="431"/>
			<point x="112" y="420"/>
			<point x="112" y="405" type="curve"/>
			<point x="112" y="368"/>
			<point x="106" y="315"/>
			<point x="66" y="240" type="curve"/>
			<point x="78" y="240" type="line"/>
			<point x="128" y="358"/>
			<point x="178" y="427"/>
			<point x="254" y="427" type="curve"/>
			<point x="402" y="428" type="line"/>
		</contour>
	</outline>
</glyph>
<glyph name="braceleft" format="2">
	<advance width="340"/>
	<unicode hex="007B"/>
	<note>
		braceleft
  </note>
	<outline>
		<contour>
			<point x="299" y="-172" type="curve"/>
			<point x="299" y="-172" type="line"/>
			<point x="301" y="-174"/>
			<point x="298" y="-152"/>
			<point x="298" y="-152" type="curve"/>
			<point x="241" y="-152"/>
			<point x="232" y="-114"/>
			<point x="232" y="-48" type="curve"/>
			<point x="232" y="-18"/>
			<point x="234" y="16"/>
			<point x="234" y="56" type="curve"/>
			<point x="234" y="148"/>
			<point x="119" y="156"/>
			<point x="119" y="214" type="curve"/>
			<point x="119" y="273"/>
			<point x="234" y="276"/>
			<point x="234" y="376" type="curve"/>
			<point x="234" y="415"/>
			<point x="233" y="450"/>
			<point x="233" y="479" type="curve"/>
			<point x="233" y="549"/>
			<point x="241" y="590"/>
			<point x="298" y="590" type="curve"/>
			<point x="299" y="610" type="line"/>
			<point x="186" y="610"/>
			<point x="165" y="519"/>
			<point x="165" y="376" type="curve"/>
			<point x="165" y="254"/>
			<point x="100" y="271"/>
			<point x="100" y="214" type="curve"/>
			<point x="100" y="154"/>
			<point x="167" y="172"/>
			<point x="167" y="47" type="curve"/>
			<point x="167" y="-90"/>
			<point x="188" y="-172"/>
		</contour>
	</outline>
</glyph>
<glyph name="braceright" format="2">
	<advance width="340"/>
	<unicode hex="007D"/>
	<note>
		braceright
  </note>
	<outline>
		<contour>
			<point x="41" y="-172" type="curve"/>
			<point x="41" y="-172" type="line"/>
			<point x="152" y="-172"/>
			<point x="173" y="-90"/>
			<point x="173" y="47" type="curve"/>
			<point x="173" y="172"/>
			<point x="240" y="154"/>
			<point x="240" y="214" type="curve"/>
			<point x="240" y="271"/>
			<point x="175" y="254"/>
			<point x="175" y="376" type="curve"/>
			<point x="175" y="519"/>
			<point x="154" y="610"/>
			<point x="41" y="610" type="curve"/>
			<point x="42" y="590" type="line"/>
			<point x="99" y="590"/>
			<point x="107" y="549"/>
			<point x="107" y="479" type="curve"/>
			<point x="107" y="450"/>
			<point x="106" y="415"/>
			<point x="106" y="376" type="curve"/>
			<point x="106" y="276"/>
			<point x="221" y="273"/>
			<point x="221" y="214" type="curve"/>
			<point x="221" y="156"/>
			<point x="106" y="148"/>
			<point x="106" y="56" type="curve"/>
			<point x="106" y="16"/>
			<point x="108" y="-18"/>
			<point x="108" y="-48" type="curve"/>
			<point x="108" y="-114"/>
			<point x="99" y="-152"/>
			<point x="42" y="-152" type="curve"/>
			<point x="42" y="-152"/>
			<point x="40" y="-164"/>
			<point x="40" y="-170" type="curve"/>
			<point x="40" y="-172"/>
			<point x="41" y="-173"/>
		</contour>
	</outline>
</glyph>
<glyph name="exclamdown" format="2">
	<advance width="556"/>
	<unicode hex="00A1"/>
	<note>
		exclamdown
  </note>
	<outline>
		<contour>
			<point x="132" y="-291" type="curve"/>
			<point x="132" y="-303" type="line"/>
			<point x="211" y="-285"/>
			<point x="233" y="-285"/>
			<point x="275" y="-285" type="curve"/>
			<point x="312" y="-285"/>
			<point x="421" y="-303"/>
			<point x="424" y="-303" type="curve"/>
			<point x="424" y="-291" type="line"/>
			<point x="313" y="-274"/>
			<point x="312" y="-201"/>
			<point x="312" y="-70" type="curve"/>
			<point x="312" y="288" type="line"/>
			<point x="243" y="286" type="line"/>
			<point x="244" y="-72" type="line" smooth="yes"/>
			<point x="244" y="-203"/>
			<point x="243" y="-274"/>
		</contour>
		<contour>
			<point x="278" y="362" type="curve"/>
			<point x="278" y="362" type="line"/>
			<point x="306" y="362"/>
			<point x="329" y="384"/>
			<point x="329" y="412" type="curve"/>
			<point x="329" y="440"/>
			<point x="306" y="463"/>
			<point x="278" y="463" type="curve"/>
			<point x="250" y="463"/>
			<point x="228" y="440"/>
			<point x="228" y="412" type="curve"/>
			<point x="228" y="384"/>
			<point x="250" y="362"/>
		</contour>
	</outline>
</glyph>
<glyph name="sterling" format="2">
	<advance width="696"/>
	<unicode hex="00A3"/>
	<note>
		sterling
  </note>
	<outline>
		<contour>
			<point x="133" y="9" type="curve"/>
			<point x="133" y="-3" type="line"/>
			<point x="195" y="-3"/>
			<point x="236" y="51"/>
			<point x="302" y="51" type="curve"/>
			<point x="354" y="51"/>
			<point x="375" y="0"/>
			<point x="450" y="0" type="curve"/>
			<point x="480" y="0"/>
			<point x="593" y="3"/>
			<point x="593" y="129" type="curve"/>
			<point x="581" y="129" type="line"/>
			<point x="581" y="69"/>
			<point x="506" y="68"/>
			<point x="471" y="68" type="curve"/>
			<point x="399" y="68"/>
			<point x="393" y="117"/>
			<point x="317" y="117" type="curve"/>
			<point x="295" y="117"/>
			<point x="280" y="109"/>
			<point x="263" y="91" type="curve"/>
			<point x="294" y="154"/>
			<point x="305" y="235"/>
			<point x="309" y="293" type="curve"/>
			<point x="498" y="293" type="line"/>
			<point x="498" y="307" type="line"/>
			<point x="310" y="307" type="line"/>
			<point x="311" y="321"/>
			<point x="312" y="333"/>
			<point x="312" y="343" type="curve"/>
			<point x="496" y="343" type="line"/>
			<point x="496" y="356" type="line"/>
			<point x="312" y="356" type="line"/>
			<point x="312" y="364" type="line" smooth="yes"/>
			<point x="314" y="555"/>
			<point x="315" y="578"/>
			<point x="316" y="579" type="curve"/>
			<point x="316" y="585" type="line" smooth="yes"/>
			<point x="316" y="647"/>
			<point x="324" y="692"/>
			<point x="346" y="718" type="curve"/>
			<point x="361" y="736"/>
			<point x="393" y="746"/>
			<point x="426" y="746" type="curve"/>
			<point x="478" y="746"/>
			<point x="534" y="721"/>
			<point x="534" y="666" type="curve"/>
			<point x="534" y="654"/>
			<point x="531" y="640"/>
			<point x="525" y="625" type="curve"/>
			<point x="525" y="625"/>
			<point x="581" y="646"/>
			<point x="581" y="681" type="curve"/>
			<point x="581" y="757"/>
			<point x="539" y="781"/>
			<point x="489" y="781" type="curve"/>
			<point x="432" y="781"/>
			<point x="364" y="749"/>
			<point x="335" y="726" type="curve"/>
			<point x="278" y="680"/>
			<point x="246" y="602"/>
			<point x="246" y="497" type="curve"/>
			<point x="244" y="449"/>
			<point x="244" y="409"/>
			<point x="244" y="356" type="curve"/>
			<point x="174" y="356" type="line"/>
			<point x="174" y="343" type="line"/>
			<point x="244" y="343" type="line"/>
			<point x="244" y="307" type="line"/>
			<point x="175" y="307" type="line"/>
			<point x="175" y="293" type="line"/>
			<point x="244" y="293" type="line"/>
			<point x="244" y="223" type="line" smooth="yes"/>
			<point x="244" y="92"/>
			<point x="244" y="26"/>
		</contour>
	</outline>
</glyph>
<glyph name="currency" format="2">
	<advance width="740"/>
	<unicode hex="00A4"/>
	<note>
		currency
  </note>
	<outline>
		<contour>
			<point x="366" y="86" type="curve"/>
			<point x="366" y="86" type="line"/>
			<point x="440" y="86"/>
			<point x="507" y="115"/>
			<point x="557" y="162" type="curve"/>
			<point x="626" y="94" type="line"/>
			<point x="635" y="104" type="line"/>
			<point x="567" y="172" type="line"/>
			<point x="612" y="219"/>
			<point x="640" y="282"/>
			<point x="640" y="352" type="curve"/>
			<point x="640" y="423"/>
			<point x="611" y="489"/>
			<point x="564" y="539" type="curve"/>
			<point x="639" y="614" type="line"/>
			<point x="630" y="624" type="line"/>
			<point x="554" y="548" type="line"/>
			<point x="505" y="596"/>
			<point x="438" y="626"/>
			<point x="366" y="626" type="curve"/>
			<point x="296" y="626"/>
			<point x="233" y="598"/>
			<point x="186" y="553" type="curve"/>
			<point x="110" y="629" type="line"/>
			<point x="100" y="620" type="line"/>
			<point x="176" y="543" type="line"/>
			<point x="129" y="493"/>
			<point x="100" y="425"/>
			<point x="100" y="352" type="curve"/>
			<point x="100" y="280"/>
			<point x="128" y="215"/>
			<point x="173" y="167" type="curve"/>
			<point x="104" y="98" type="line"/>
			<point x="114" y="89" type="line"/>
			<point x="183" y="158" type="line"/>
			<point x="230" y="113"/>
			<point x="295" y="86"/>
		</contour>
		<contour>
			<point x="365" y="105" type="curve"/>
			<point x="365" y="105" type="line"/>
			<point x="228" y="105"/>
			<point x="119" y="214"/>
			<point x="119" y="351" type="curve"/>
			<point x="119" y="490"/>
			<point x="228" y="603"/>
			<point x="365" y="603" type="curve"/>
			<point x="504" y="603"/>
			<point x="617" y="490"/>
			<point x="617" y="351" type="curve"/>
			<point x="617" y="214"/>
			<point x="504" y="105"/>
		</contour>
	</outline>
</glyph>
<glyph name="brokenbar" format="2">
	<advance width="263"/>
	<unicode hex="00A6"/>
	<note>
		brokenbar
  </note>
	<outline>
		<contour>
			<point x="122" y="746" type="line"/>
			<point x="122" y="313" type="line"/>
			<point x="136" y="313" type="line"/>
			<point x="136" y="746" type="line"/>
		</contour>
		<contour>
			<point x="122" y="156" type="line"/>
			<point x="122" y="-277" type="line"/>
			<point x="136" y="-277" type="line"/>
			<point x="136" y="156" type="line"/>
		</contour>
	</outline>
</glyph>
<glyph name="section" format="2">
	<advance width="493"/>
	<unicode hex="00A7"/>
	<note>
		section
  </note>
	<outline>
		<contour>
			<point x="216" y="-101" type="curve"/>
			<point x="216" y="-101" type="line"/>
			<point x="319" y="-101"/>
			<point x="427" y="-51"/>
			<point x="427" y="47" type="curve"/>
			<point x="427" y="105"/>
			<point x="398" y="144"/>
			<point x="346" y="161" type="curve"/>
			<point x="394" y="186"/>
			<point x="427" y="225"/>
			<point x="427" y="280" type="curve"/>
			<point x="427" y="341"/>
			<point x="395" y="381"/>
			<point x="338" y="397" type="curve"/>
			<point x="203" y="439" type="line" smooth="yes"/>
			<point x="164" y="452"/>
			<point x="136" y="480"/>
			<point x="136" y="504" type="curve"/>
			<point x="136" y="537"/>
			<point x="163" y="567"/>
			<point x="240" y="567" type="curve"/>
			<point x="301" y="567"/>
			<point x="400" y="505"/>
			<point x="400" y="447" type="curve"/>
			<point x="400" y="542" type="line"/>
			<point x="350" y="551"/>
			<point x="299" y="584"/>
			<point x="242" y="584" type="curve"/>
			<point x="168" y="584"/>
			<point x="86" y="556"/>
			<point x="86" y="474" type="curve"/>
			<point x="86" y="420"/>
			<point x="102" y="391"/>
			<point x="141" y="375" type="curve"/>
			<point x="154" y="369"/>
			<point x="176" y="361"/>
			<point x="212" y="349" type="curve"/>
			<point x="148" y="342"/>
			<point x="86" y="312"/>
			<point x="86" y="241" type="curve"/>
			<point x="86" y="183"/>
			<point x="97" y="159"/>
			<point x="143" y="141" type="curve"/>
			<point x="166" y="131"/>
			<point x="214" y="115"/>
			<point x="319" y="82" type="curve"/>
			<point x="367" y="60"/>
			<point x="362" y="21"/>
			<point x="363" y="21" type="curve"/>
			<point x="363" y="-55"/>
			<point x="284" y="-84"/>
			<point x="239" y="-84" type="curve"/>
			<point x="172" y="-84"/>
			<point x="72" y="-19"/>
			<point x="66" y="16" type="curve"/>
			<point x="66" y="-81" type="line"/>
			<point x="106" y="-81"/>
			<point x="168" y="-101"/>
		</contour>
		<contour>
			<point x="315" y="171" type="curve"/>
			<point x="315" y="171" type="line"/>
			<point x="203" y="206" type="line" smooth="yes"/>
			<point x="164" y="219"/>
			<point x="136" y="247"/>
			<point x="136" y="271" type="curve"/>
			<point x="136" y="304"/>
			<point x="163" y="334"/>
			<point x="240" y="334" type="curve"/>
			<point x="273" y="334"/>
			<point x="318" y="315"/>
			<point x="351" y="289" type="curve"/>
			<point x="364" y="271"/>
			<point x="362" y="254"/>
			<point x="363" y="254" type="curve"/>
			<point x="363" y="214"/>
			<point x="342" y="187"/>
		</contour>
	</outline>
</glyph>
<glyph name="guillemotleft" format="2">
	<advance width="521"/>
	<unicode hex="00AB"/>
	<note>
		guillemotleft
  </note>
	<outline>
		<contour>
			<point x="245" y="227" type="line"/>
			<point x="369" y="29" type="line"/>
			<point x="381" y="40" type="line"/>
			<point x="306" y="229" type="line"/>
			<point x="381" y="413" type="line"/>
			<point x="369" y="424" type="line"/>
		</contour>
		<contour>
			<point x="115" y="227" type="line"/>
			<point x="239" y="29" type="line"/>
			<point x="251" y="40" type="line"/>
			<point x="176" y="229" type="line"/>
			<point x="251" y="413" type="line"/>
			<point x="239" y="424" type="line"/>
		</contour>
	</outline>
</glyph>
<glyph name="registered" format="2">
	<advance width="690"/>
	<unicode hex="00AE"/>
	<note>
		registered
  </note>
	<outline>
		<contour>
			<point x="341" y="86" type="curve"/>
			<point x="341" y="86" type="line"/>
			<point x="490" y="86"/>
			<point x="615" y="204"/>
			<point x="615" y="352" type="curve"/>
			<point x="615" y="500"/>
			<point x="490" y="626"/>
			<point x="341" y="626" type="curve"/>
			<point x="193" y="626"/>
			<point x="75" y="500"/>
			<point x="75" y="352" type="curve"/>
			<point x="75" y="204"/>
			<point x="193" y="86"/>
		</contour>
		<contour>
			<point x="340" y="105" type="curve"/>
			<point x="340" y="105" type="line"/>
			<point x="203" y="105"/>
			<point x="94" y="214"/>
			<point x="94" y="351" type="curve"/>
			<point x="94" y="490"/>
			<point x="203" y="603"/>
			<point x="340" y="603" type="curve"/>
			<point x="479" y="603"/>
			<point x="592" y="490"/>
			<point x="592" y="351" type="curve"/>
			<point x="592" y="214"/>
			<point x="479" y="105"/>
		</contour>
		<contour>
			<point x="170" y="221" type="curve"/>
			<point x="170" y="213" type="line"/>
			<point x="223" y="225"/>
			<point x="238" y="225"/>
			<point x="266" y="225" type="curve"/>
			<point x="292" y="225"/>
			<point x="338" y="213"/>
			<point x="340" y="213" type="curve"/>
			<point x="340" y="221" type="line"/>
			<point x="293" y="231"/>
			<point x="292" y="299"/>
			<point x="292" y="350" type="curve"/>
			<point x="292" y="351"/>
			<point x="290" y="503"/>
			<point x="395" y="503" type="curve"/>
			<point x="426" y="503"/>
			<point x="449" y="482"/>
			<point x="449" y="424" type="curve"/>
			<point x="495" y="454" type="line"/>
			<point x="495" y="494"/>
			<point x="444" y="522"/>
			<point x="398" y="522" type="curve"/>
			<point x="318" y="522"/>
			<point x="291" y="433"/>
			<point x="291" y="385" type="curve"/>
			<point x="291" y="509" type="line"/>
			<point x="278" y="509" type="line"/>
			<point x="248" y="486"/>
			<point x="215" y="473"/>
			<point x="170" y="473" type="curve"/>
			<point x="170" y="465" type="line"/>
			<point x="243" y="454"/>
			<point x="245" y="454"/>
			<point x="245" y="369" type="curve"/>
			<point x="245" y="281"/>
			<point x="245" y="233"/>
		</contour>
	</outline>
</glyph>
<glyph name="degree" format="2">
	<advance width="342"/>
	<unicode hex="00B0"/>
	<note>
		degree
  </note>
	<outline>
		<contour>
			<point x="165" y="484" type="curve"/>
			<point x="165" y="484" type="line"/>
			<point x="204" y="484"/>
			<point x="237" y="515"/>
			<point x="237" y="554" type="curve"/>
			<point x="237" y="593"/>
			<point x="204" y="626"/>
			<point x="165" y="626" type="curve"/>
			<point x="126" y="626"/>
			<point x="95" y="593"/>
			<point x="95" y="554" type="curve"/>
			<point x="95" y="515"/>
			<point x="126" y="484"/>
		</contour>
		<contour>
			<point x="165" y="504" type="curve"/>
			<point x="165" y="504" type="line"/>
			<point x="137" y="504"/>
			<point x="115" y="526"/>
			<point x="115" y="554" type="curve"/>
			<point x="115" y="582"/>
			<point x="137" y="605"/>
			<point x="165" y="605" type="curve"/>
			<point x="193" y="605"/>
			<point x="216" y="582"/>
			<point x="216" y="554" type="curve"/>
			<point x="216" y="526"/>
			<point x="193" y="504"/>
		</contour>
	</outline>
</glyph>
<glyph name="uni00B2" format="2">
	<advance width="442"/>
	<unicode hex="00B2"/>
	<note>
		uni00B2
  </note>
	<outline>
		<contour>
			<point x="75" y="365" type="line"/>
			<point x="75" y="335" type="line"/>
			<point x="341" y="335" type="line"/>
			<point x="341" y="356"/>
			<point x="367" y="446"/>
			<point x="367" y="448" type="curve"/>
			<point x="360" y="448" type="line"/>
			<point x="356" y="378"/>
			<point x="287" y="365"/>
			<point x="243" y="365" type="curve"/>
			<point x="98" y="365" type="line"/>
			<point x="154" y="411"/>
			<point x="292" y="525"/>
			<point x="294" y="526" type="curve"/>
			<point x="326" y="554"/>
			<point x="347" y="598"/>
			<point x="347" y="641" type="curve"/>
			<point x="347" y="666"/>
			<point x="341" y="690"/>
			<point x="325" y="712" type="curve"/>
			<point x="302" y="746"/>
			<point x="263" y="767"/>
			<point x="224" y="767" type="curve"/>
			<point x="184" y="767"/>
			<point x="146" y="751"/>
			<point x="112" y="726" type="curve"/>
			<point x="103" y="737"/>
			<point x="96" y="749"/>
			<point x="92" y="773" type="curve"/>
			<point x="85" y="773" type="line"/>
			<point x="93" y="745"/>
			<point x="96" y="721"/>
			<point x="96" y="698" type="curve"/>
			<point x="96" y="668"/>
			<point x="91" y="640"/>
			<point x="85" y="607" type="curve"/>
			<point x="92" y="607" type="line"/>
			<point x="94" y="615"/>
			<point x="115" y="745"/>
			<point x="187" y="747" type="curve"/>
			<point x="219" y="747"/>
			<point x="257" y="732"/>
			<point x="287" y="689" type="curve"/>
			<point x="302" y="666"/>
			<point x="310" y="636"/>
			<point x="310" y="608" type="curve"/>
			<point x="310" y="580"/>
			<point x="302" y="553"/>
			<point x="283" y="537" type="curve"/>
		</contour>
	</outline>
</glyph>
<glyph name="acute" format="2">
	<advance width="425"/>
	<unicode hex="00B4"/>
	<note>
		acute
  </note>
	<outline>
		<contour>
			<point x="100" y="563" type="line"/>
			<point x="111" y="551" type="line"/>
			<point x="295" y="626" type="line"/>
			<point x="295" y="626"/>
			<point x="325" y="633"/>
			<point x="325" y="655" type="curve"/>
			<point x="325" y="659"/>
			<point x="324" y="663"/>
			<point x="322" y="667" type="curve"/>
			<point x="317" y="678"/>
			<point x="309" y="682"/>
			<point x="302" y="682" type="curve"/>
			<point x="290" y="682"/>
			<point x="278" y="673"/>
			<point x="279" y="674" type="curve"/>
		</contour>
	</outline>
</glyph>
<glyph name="onequarter" format="2">
	<advance width="673"/>
	<unicode hex="00BC"/>
	<note>
		onequarter
  </note>
	<outline>
		<contour>
			<point x="120" y="8" type="line"/>
			<point x="132" y="1" type="line"/>
			<point x="598" y="752" type="line"/>
			<point x="585" y="759" type="line"/>
		</contour>
		<contour>
			<point x="421" y="7" type="curve"/>
			<point x="421" y="1" type="line"/>
			<point x="458" y="10"/>
			<point x="468" y="10"/>
			<point x="488" y="10" type="curve"/>
			<point x="505" y="10"/>
			<point x="556" y="1"/>
			<point x="557" y="1" type="curve"/>
			<point x="557" y="7" type="line"/>
			<point x="505" y="15"/>
			<point x="505" y="49"/>
			<point x="505" y="110" type="curve"/>
			<point x="505" y="131" type="line"/>
			<point x="562" y="131" type="line"/>
			<point x="562" y="141" type="line"/>
			<point x="505" y="141" type="line"/>
			<point x="505" y="347" type="line"/>
			<point x="493" y="347" type="line"/>
			<point x="294" y="131" type="line"/>
			<point x="470" y="131" type="line"/>
			<point x="470" y="108" type="line" smooth="yes"/>
			<point x="471" y="42"/>
			<point x="468" y="14"/>
		</contour>
		<contour>
			<point x="470" y="141" type="line"/>
			<point x="316" y="141" type="line"/>
			<point x="470" y="308" type="line"/>
		</contour>
		<contour>
			<point x="89" y="416" type="curve"/>
			<point x="89" y="410" type="line"/>
			<point x="125" y="419"/>
			<point x="135" y="419"/>
			<point x="154" y="419" type="curve"/>
			<point x="171" y="419"/>
			<point x="221" y="410"/>
			<point x="223" y="410" type="curve"/>
			<point x="223" y="416" type="line"/>
			<point x="172" y="424"/>
			<point x="171" y="457"/>
			<point x="171" y="517" type="curve"/>
			<point x="171" y="750" type="line"/>
			<point x="145" y="750" type="line" smooth="yes"/>
			<point x="142" y="750"/>
			<point x="133" y="739"/>
			<point x="75" y="723" type="curve"/>
			<point x="75" y="717" type="line"/>
			<point x="140" y="728" type="line"/>
			<point x="140" y="516" type="line" smooth="yes"/>
			<point x="140" y="456"/>
			<point x="140" y="424"/>
		</contour>
	</outline>
</glyph>
<glyph name="threequarters" format="2">
	<advance width="628"/>
	<unicode hex="00BE"/>
	<note>
		threequarters
  </note>
	<outline>
		<contour>
			<point x="75" y="8" type="line"/>
			<point x="87" y="1" type="line"/>
			<point x="553" y="752" type="line"/>
			<point x="540" y="759" type="line"/>
		</contour>
		<contour>
			<point x="377" y="9" type="curve"/>
			<point x="377" y="3" type="line"/>
			<point x="414" y="12"/>
			<point x="424" y="12"/>
			<point x="443" y="12" type="curve"/>
			<point x="460" y="12"/>
			<point x="511" y="3"/>
			<point x="512" y="3" type="curve"/>
			<point x="512" y="9" type="line"/>
			<point x="461" y="17"/>
			<point x="460" y="51"/>
			<point x="460" y="111" type="curve"/>
			<point x="460" y="132" type="line"/>
			<point x="517" y="132" type="line"/>
			<point x="517" y="142" type="line"/>
			<point x="460" y="142" type="line"/>
			<point x="460" y="346" type="line"/>
			<point x="448" y="346" type="line"/>
			<point x="251" y="132" type="line"/>
			<point x="425" y="132" type="line"/>
			<point x="426" y="109" type="line" smooth="yes"/>
			<point x="427" y="44"/>
			<point x="423" y="16"/>
		</contour>
		<contour>
			<point x="425" y="142" type="line"/>
			<point x="272" y="142" type="line"/>
			<point x="425" y="308" type="line"/>
		</contour>
		<contour>
			<point x="171" y="408" type="curve"/>
			<point x="171" y="408" type="line"/>
			<point x="192" y="408"/>
			<point x="213" y="414"/>
			<point x="231" y="427" type="curve"/>
			<point x="259" y="447"/>
			<point x="275" y="480"/>
			<point x="275" y="513" type="curve"/>
			<point x="275" y="534"/>
			<point x="269" y="554"/>
			<point x="256" y="572" type="curve"/>
			<point x="236" y="601"/>
			<point x="202" y="619"/>
			<point x="168" y="619" type="curve"/>
			<point x="158" y="619"/>
			<point x="149" y="617"/>
			<point x="139" y="614" type="curve"/>
			<point x="284" y="749" type="line"/>
			<point x="107" y="749" type="line"/>
			<point x="107" y="723"/>
			<point x="96" y="709"/>
			<point x="75" y="679" type="curve"/>
			<point x="79" y="678" type="line"/>
			<point x="106" y="721"/>
			<point x="193" y="733"/>
			<point x="251" y="732" type="curve"/>
			<point x="110" y="600" type="line"/>
			<point x="115" y="593" type="line"/>
			<point x="123" y="599"/>
			<point x="133" y="602"/>
			<point x="144" y="602" type="curve"/>
			<point x="174" y="602"/>
			<point x="208" y="579"/>
			<point x="226" y="554" type="curve"/>
			<point x="238" y="535"/>
			<point x="246" y="511"/>
			<point x="246" y="489" type="curve"/>
			<point x="246" y="468"/>
			<point x="239" y="448"/>
			<point x="222" y="436" type="curve"/>
			<point x="213" y="429"/>
			<point x="203" y="426"/>
			<point x="192" y="426" type="curve"/>
			<point x="162" y="426"/>
			<point x="129" y="447"/>
			<point x="112" y="472" type="curve"/>
			<point x="112" y="473"/>
			<point x="86" y="452"/>
			<point x="86" y="452" type="curve"/>
			<point x="105" y="424"/>
			<point x="138" y="408"/>
		</contour>
	</outline>
</glyph>
<glyph name="questiondown" format="2">
	<advance width="513"/>
	<unicode hex="00BF"/>
	<note>
		questiondown
  </note>
	<outline>
		<contour>
			<point x="408" y="-312" type="curve"/>
			<point x="408" y="-312" type="line"/>
			<point x="421" y="-311" type="line"/>
			<point x="420" y="-310"/>
			<point x="410" y="-268"/>
			<point x="410" y="-231" type="curve"/>
			<point x="410" y="-184"/>
			<point x="431" y="-114"/>
			<point x="431" y="-114" type="curve"/>
			<point x="416" y="-114" type="line"/>
			<point x="416" y="-172"/>
			<point x="376" y="-284"/>
			<point x="276" y="-284" type="curve"/>
			<point x="199" y="-284"/>
			<point x="162" y="-210"/>
			<point x="162" y="-141" type="curve"/>
			<point x="162" y="29"/>
			<point x="293" y="18"/>
			<point x="293" y="259" type="curve"/>
			<point x="293" y="259"/>
			<point x="293" y="284"/>
			<point x="271" y="284" type="curve"/>
			<point x="249" y="284"/>
			<point x="249" y="259"/>
			<point x="249" y="259" type="curve"/>
			<point x="249" y="16"/>
			<point x="92" y="-7"/>
			<point x="92" y="-141" type="curve"/>
			<point x="92" y="-240"/>
			<point x="139" y="-301"/>
			<point x="261" y="-301" type="curve"/>
			<point x="341" y="-301"/>
			<point x="370" y="-244"/>
			<point x="385" y="-244" type="curve"/>
			<point x="400" y="-244"/>
			<point x="408" y="-276"/>
		</contour>
		<contour>
			<point x="271" y="360" type="curve"/>
			<point x="271" y="360" type="line"/>
			<point x="299" y="360"/>
			<point x="321" y="382"/>
			<point x="321" y="410" type="curve"/>
			<point x="321" y="438"/>
			<point x="299" y="461"/>
			<point x="271" y="461" type="curve"/>
			<point x="243" y="461"/>
			<point x="220" y="438"/>
			<point x="220" y="410" type="curve"/>
			<point x="220" y="382"/>
			<point x="243" y="360"/>
		</contour>
	</outline>
</glyph>
<glyph name="AE" format="2">
	<advance width="1501"/>
	<unicode hex="00C6"/>
	<outline>
		<contour>
			<point x="1081" y="-6" type="curve"/>
			<point x="1081" y="-6" type="line"/>
			<point x="1160" y="-6"/>
			<point x="1240" y="17"/>
			<point x="1310" y="66" type="curve"/>
			<point x="1299" y="82" type="line"/>
			<point x="1251" y="48"/>
			<point x="1193" y="33"/>
			<point x="1134" y="33" type="curve"/>
			<point x="1025" y="33"/>
			<point x="911" y="84"/>
			<point x="836" y="164" type="curve"/>
			<point x="763" y="287" type="line"/>
			<point x="749" y="325"/>
			<point x="741" y="366"/>
			<point x="737" y="404" type="curve"/>
			<point x="1529" y="404" type="line"/>
			<point x="1529" y="418" type="line"/>
			<point x="736" y="418" type="line"/>
			<point x="735" y="429"/>
			<point x="735" y="440"/>
			<point x="735" y="452" type="curve"/>
			<point x="735" y="556"/>
			<point x="773" y="658"/>
			<point x="857" y="719" type="curve"/>
			<point x="907" y="754"/>
			<point x="964" y="770"/>
			<point x="1024" y="770" type="curve"/>
			<point x="1188" y="770"/>
			<point x="1363" y="649"/>
			<point x="1412" y="488" type="curve"/>
			<point x="1424" y="488" type="line"/>
			<point x="1424" y="491"/>
			<point x="1406" y="600"/>
			<point x="1406" y="637" type="curve"/>
			<point x="1406" y="679"/>
			<point x="1406" y="701"/>
			<point x="1424" y="780" type="curve"/>
			<point x="1412" y="780" type="line"/>
			<point x="1405" y="737"/>
			<point x="1391" y="705"/>
			<point x="1367" y="683" type="curve"/>
			<point x="1291" y="762"/>
			<point x="1185" y="805"/>
			<point x="1076" y="805" type="curve"/>
			<point x="998" y="805"/>
			<point x="918" y="782"/>
			<point x="848" y="733" type="curve"/>
			<point x="749" y="663"/>
			<point x="689" y="546"/>
			<point x="681" y="425" type="curve"/>
			<point x="477" y="768" type="line"/>
			<point x="72" y="0" type="line"/>
			<point x="934" y="0" type="line"/>
			<point x="917" y="28" type="line"/>
			<point x="968" y="6"/>
			<point x="1024" y="-6"/>
		</contour>
		<contour>
			<point x="448" y="669" type="line"/>
			<point x="833" y="22" type="line"/>
			<point x="102" y="23" type="line"/>
		</contour>
	</outline>
</glyph>
<glyph name="Eacute" format="2">
	<advance width="898"/>
	<unicode hex="00C9"/>
	<note>
		Eacute
  </note>
	<outline>
		<contour>
			<point x="479" y="-6" type="curve"/>
			<point x="479" y="-6" type="line"/>
			<point x="558" y="-6"/>
			<point x="638" y="17"/>
			<point x="707" y="66" type="curve"/>
			<point x="696" y="82" type="line"/>
			<point x="648" y="48"/>
			<point x="590" y="33"/>
			<point x="531" y="33" type="curve"/>
			<point x="407" y="33"/>
			<point x="276" y="99"/>
			<point x="204" y="200" type="curve"/>
			<point x="165" y="254"/>
			<point x="141" y="335"/>
			<point x="134" y="404" type="curve"/>
			<point x="926" y="404" type="line"/>
			<point x="926" y="418" type="line"/>
			<point x="133" y="418" type="line"/>
			<point x="132" y="429"/>
			<point x="132" y="440"/>
			<point x="132" y="452" type="curve"/>
			<point x="132" y="556"/>
			<point x="170" y="658"/>
			<point x="254" y="719" type="curve"/>
			<point x="304" y="754"/>
			<point x="361" y="770"/>
			<point x="421" y="770" type="curve"/>
			<point x="585" y="770"/>
			<point x="760" y="649"/>
			<point x="809" y="488" type="curve"/>
			<point x="821" y="488" type="line"/>
			<point x="821" y="491"/>
			<point x="803" y="600"/>
			<point x="803" y="637" type="curve"/>
			<point x="803" y="679"/>
			<point x="803" y="701"/>
			<point x="821" y="780" type="curve"/>
			<point x="809" y="780" type="line"/>
			<point x="802" y="737"/>
			<point x="788" y="705"/>
			<point x="764" y="683" type="curve"/>
			<point x="688" y="762"/>
			<point x="582" y="805"/>
			<point x="473" y="805" type="curve"/>
			<point x="395" y="805"/>
			<point x="315" y="782"/>
			<point x="245" y="733" type="curve"/>
			<point x="138" y="658"/>
			<point x="77" y="527"/>
			<point x="77" y="394" type="curve"/>
			<point x="77" y="313"/>
			<point x="100" y="231"/>
			<point x="150" y="161" type="curve"/>
			<point x="225" y="54"/>
			<point x="351" y="-6"/>
		</contour>
		<contour>
			<point x="356" y="854" type="line"/>
			<point x="367" y="842" type="line"/>
			<point x="551" y="917" type="line"/>
			<point x="551" y="917"/>
			<point x="581" y="924"/>
			<point x="581" y="946" type="curve"/>
			<point x="581" y="950"/>
			<point x="580" y="954"/>
			<point x="578" y="958" type="curve"/>
			<point x="573" y="969"/>
			<point x="565" y="973"/>
			<point x="558" y="973" type="curve"/>
			<point x="546" y="973"/>
			<point x="534" y="964"/>
			<point x="535" y="965" type="curve"/>
		</contour>
	</outline>
</glyph>
<glyph name="Iacute" format="2">
	<advance width="396"/>
	<unicode hex="00CD"/>
	<note>
		Iacute
  </note>
	<outline>
		<contour>
			<point x="52" y="15" type="curve"/>
			<point x="52" y="3" type="line"/>
			<point x="131" y="21"/>
			<point x="153" y="21"/>
			<point x="195" y="21" type="curve"/>
			<point x="232" y="21"/>
			<point x="341" y="3"/>
			<point x="344" y="3" type="curve"/>
			<point x="344" y="15" type="line"/>
			<point x="233" y="32"/>
			<point x="232" y="105"/>
			<point x="232" y="236" type="curve"/>
			<point x="232" y="532" type="line" smooth="yes"/>
			<point x="232" y="663"/>
			<point x="233" y="736"/>
			<point x="344" y="753" type="curve"/>
			<point x="344" y="765" type="line"/>
			<point x="341" y="765"/>
			<point x="232" y="747"/>
			<point x="195" y="747" type="curve"/>
			<point x="153" y="747"/>
			<point x="131" y="747"/>
			<point x="52" y="765" type="curve"/>
			<point x="52" y="753" type="line"/>
			<point x="163" y="736"/>
			<point x="164" y="665"/>
			<point x="164" y="534" type="curve"/>
			<point x="164" y="234" type="line" smooth="yes"/>
			<point x="164" y="103"/>
			<point x="163" y="32"/>
		</contour>
		<contour>
			<point x="82" y="854" type="line"/>
			<point x="93" y="842" type="line"/>
			<point x="277" y="917" type="line"/>
			<point x="277" y="917"/>
			<point x="307" y="924"/>
			<point x="307" y="946" type="curve"/>
			<point x="307" y="950"/>
			<point x="306" y="954"/>
			<point x="304" y="958" type="curve"/>
			<point x="299" y="969"/>
			<point x="291" y="973"/>
			<point x="284" y="973" type="curve"/>
			<point x="272" y="973"/>
			<point x="260" y="964"/>
			<point x="261" y="965" type="curve"/>
		</contour>
	</outline>
</glyph>
<glyph name="Oacute" format="2">
	<advance width="962"/>
	<unicode hex="00D3"/>
	<note>
		Oacute
  </note>
	<outline>
		<contour>
			<point x="484" y="-6" type="curve"/>
			<point x="484" y="-6" type="line"/>
			<point x="563" y="-6"/>
			<point x="643" y="17"/>
			<point x="712" y="66" type="curve"/>
			<point x="819" y="142"/>
			<point x="880" y="273"/>
			<point x="880" y="405" type="curve"/>
			<point x="880" y="486"/>
			<point x="857" y="568"/>
			<point x="807" y="638" type="curve"/>
			<point x="732" y="745"/>
			<point x="606" y="805"/>
			<point x="479" y="805" type="curve"/>
			<point x="400" y="805"/>
			<point x="320" y="782"/>
			<point x="250" y="733" type="curve"/>
			<point x="143" y="658"/>
			<point x="82" y="527"/>
			<point x="82" y="394" type="curve"/>
			<point x="82" y="313"/>
			<point x="105" y="231"/>
			<point x="155" y="161" type="curve"/>
			<point x="230" y="54"/>
			<point x="356" y="-6"/>
		</contour>
		<contour>
			<point x="536" y="33" type="curve"/>
			<point x="536" y="33" type="line"/>
			<point x="412" y="33"/>
			<point x="281" y="99"/>
			<point x="209" y="200" type="curve"/>
			<point x="162" y="266"/>
			<point x="137" y="355"/>
			<point x="137" y="442" type="curve"/>
			<point x="137" y="552"/>
			<point x="176" y="660"/>
			<point x="259" y="719" type="curve"/>
			<point x="307" y="753"/>
			<point x="365" y="768"/>
			<point x="424" y="768" type="curve"/>
			<point x="549" y="768"/>
			<point x="682" y="701"/>
			<point x="753" y="600" type="curve"/>
			<point x="800" y="534"/>
			<point x="824" y="446"/>
			<point x="824" y="360" type="curve"/>
			<point x="824" y="250"/>
			<point x="785" y="142"/>
			<point x="701" y="82" type="curve"/>
			<point x="653" y="48"/>
			<point x="595" y="33"/>
		</contour>
		<contour>
			<point x="361" y="852" type="line"/>
			<point x="372" y="840" type="line"/>
			<point x="556" y="915" type="line"/>
			<point x="556" y="915"/>
			<point x="586" y="922"/>
			<point x="586" y="944" type="curve"/>
			<point x="586" y="948"/>
			<point x="585" y="952"/>
			<point x="583" y="956" type="curve"/>
			<point x="578" y="967"/>
			<point x="570" y="971"/>
			<point x="563" y="971" type="curve"/>
			<point x="551" y="971"/>
			<point x="539" y="962"/>
			<point x="540" y="963" type="curve"/>
		</contour>
	</outline>
</glyph>
<glyph name="multiply" format="2">
	<advance width="623"/>
	<unicode hex="00D7"/>
	<note>
		multiply
  </note>
	<outline>
		<contour>
			<point x="195" y="130" type="line"/>
			<point x="205" y="120" type="line"/>
			<point x="312" y="227" type="line"/>
			<point x="419" y="120" type="line"/>
			<point x="429" y="130" type="line"/>
			<point x="322" y="237" type="line"/>
			<point x="433" y="348" type="line"/>
			<point x="424" y="358" type="line"/>
			<point x="312" y="246" type="line"/>
			<point x="200" y="358" type="line"/>
			<point x="190" y="348" type="line"/>
			<point x="302" y="237" type="line"/>
		</contour>
	</outline>
</glyph>
<glyph name="acircumflex" format="2">
	<advance width="535"/>
	<unicode hex="00E2"/>
	<note>
		acircumflex
  </note>
	<outline>
		<contour>
			<point x="159" y="-7" type="curve"/>
			<point x="159" y="-7" type="line"/>
			<point x="218" y="-7"/>
			<point x="322" y="67"/>
			<point x="327" y="81" type="curve"/>
			<point x="327" y="59"/>
			<point x="327" y="0"/>
			<point x="384" y="0" type="curve"/>
			<point x="477" y="0"/>
			<point x="521" y="65"/>
			<point x="524" y="65" type="curve"/>
			<point x="508" y="83" type="line"/>
			<point x="500" y="74"/>
			<point x="450" y="49"/>
			<point x="432" y="49" type="curve"/>
			<point x="408" y="49"/>
			<point x="392" y="72"/>
			<point x="392" y="175" type="curve"/>
			<point x="392" y="325" type="line" smooth="yes"/>
			<point x="392" y="429"/>
			<point x="323" y="460"/>
			<point x="244" y="460" type="curve"/>
			<point x="137" y="460"/>
			<point x="52" y="410"/>
			<point x="52" y="351" type="curve"/>
			<point x="120" y="306" type="line"/>
			<point x="120" y="392"/>
			<point x="168" y="441"/>
			<point x="213" y="441" type="curve"/>
			<point x="272" y="441"/>
			<point x="327" y="390"/>
			<point x="327" y="298" type="curve"/>
			<point x="239" y="273" type="line" smooth="yes"/>
			<point x="92" y="231"/>
			<point x="49" y="183"/>
			<point x="49" y="104" type="curve"/>
			<point x="49" y="24"/>
			<point x="99" y="-7"/>
		</contour>
		<contour>
			<point x="216" y="49" type="curve"/>
			<point x="216" y="49" type="line"/>
			<point x="155" y="47"/>
			<point x="108" y="70"/>
			<point x="108" y="147" type="curve"/>
			<point x="108" y="207"/>
			<point x="164" y="233"/>
			<point x="226" y="250" type="curve"/>
			<point x="327" y="278" type="line"/>
			<point x="327" y="278"/>
			<point x="327" y="260"/>
			<point x="327" y="236" type="curve"/>
			<point x="327" y="187"/>
			<point x="327" y="115"/>
			<point x="327" y="115" type="curve"/>
			<point x="327" y="97"/>
			<point x="252" y="50"/>
		</contour>
		<contour>
			<point x="32" y="570" type="line"/>
			<point x="43" y="558" type="line"/>
			<point x="232" y="633" type="line"/>
			<point x="416" y="558" type="line"/>
			<point x="427" y="570" type="line"/>
			<point x="230" y="694" type="line"/>
		</contour>
	</outline>
</glyph>
<glyph name="adieresis" format="2">
	<advance width="534"/>
	<unicode hex="00E4"/>
	<note>
		adieresis
  </note>
	<outline>
		<contour>
			<point x="158" y="-7" type="curve"/>
			<point x="158" y="-7" type="line"/>
			<point x="217" y="-7"/>
			<point x="321" y="67"/>
			<point x="326" y="81" type="curve"/>
			<point x="326" y="59"/>
			<point x="326" y="0"/>
			<point x="383" y="0" type="curve"/>
			<point x="476" y="0"/>
			<point x="520" y="65"/>
			<point x="523" y="65" type="curve"/>
			<point x="507" y="83" type="line"/>
			<point x="499" y="74"/>
			<point x="449" y="49"/>
			<point x="431" y="49" type="curve"/>
			<point x="407" y="49"/>
			<point x="391" y="72"/>
			<point x="391" y="175" type="curve"/>
			<point x="391" y="325" type="line" smooth="yes"/>
			<point x="391" y="429"/>
			<point x="322" y="460"/>
			<point x="243" y="460" type="curve"/>
			<point x="136" y="460"/>
			<point x="51" y="410"/>
			<point x="51" y="351" type="curve"/>
			<point x="119" y="306" type="line"/>
			<point x="119" y="392"/>
			<point x="167" y="441"/>
			<point x="212" y="441" type="curve"/>
			<point x="271" y="441"/>
			<point x="326" y="390"/>
			<point x="326" y="298" type="curve"/>
			<point x="238" y="273" type="line" smooth="yes"/>
			<point x="91" y="231"/>
			<point x="48" y="183"/>
			<point x="48" y="104" type="curve"/>
			<point x="48" y="24"/>
			<point x="98" y="-7"/>
		</contour>
		<contour>
			<point x="215" y="49" type="curve"/>
			<point x="215" y="49" type="line"/>
			<point x="154" y="47"/>
			<point x="107" y="70"/>
			<point x="107" y="147" type="curve"/>
			<point x="107" y="207"/>
			<point x="163" y="233"/>
			<point x="225" y="250" type="curve"/>
			<point x="326" y="278" type="line"/>
			<point x="326" y="278"/>
			<point x="326" y="260"/>
			<point x="326" y="236" type="curve"/>
			<point x="326" y="187"/>
			<point x="326" y="115"/>
			<point x="326" y="115" type="curve"/>
			<point x="326" y="97"/>
			<point x="251" y="50"/>
		</contour>
		<contour>
			<point x="129" y="574" type="curve"/>
			<point x="129" y="574" type="line"/>
			<point x="157" y="574"/>
			<point x="180" y="596"/>
			<point x="180" y="624" type="curve"/>
			<point x="180" y="652"/>
			<point x="157" y="675"/>
			<point x="129" y="675" type="curve"/>
			<point x="101" y="675"/>
			<point x="79" y="652"/>
			<point x="79" y="624" type="curve"/>
			<point x="79" y="596"/>
			<point x="101" y="574"/>
		</contour>
		<contour>
			<point x="329" y="574" type="curve"/>
			<point x="329" y="574" type="line"/>
			<point x="357" y="574"/>
			<point x="380" y="596"/>
			<point x="380" y="624" type="curve"/>
			<point x="380" y="652"/>
			<point x="357" y="675"/>
			<point x="329" y="675" type="curve"/>
			<point x="301" y="675"/>
			<point x="279" y="652"/>
			<point x="279" y="624" type="curve"/>
			<point x="279" y="596"/>
			<point x="301" y="574"/>
		</contour>
	</outline>
</glyph>
<glyph name="ae" format="2">
	<advance width="841"/>
	<unicode hex="00E6"/>
	<note>
		ae
  </note>
	<outline>
		<contour>
			<point x="165" y="-7" type="curve"/>
			<point x="165" y="-7" type="line"/>
			<point x="218" y="-7"/>
			<point x="280" y="11"/>
			<point x="396" y="89" type="curve"/>
			<point x="396" y="74"/>
			<point x="437" y="36"/>
			<point x="472" y="18" type="curve"/>
			<point x="504" y="2"/>
			<point x="541" y="-7"/>
			<point x="578" y="-7" type="curve"/>
			<point x="624" y="-7"/>
			<point x="670" y="7"/>
			<point x="710" y="35" type="curve"/>
			<point x="746" y="65"/>
			<point x="750" y="72"/>
			<point x="759" y="90" type="curve"/>
			<point x="738" y="103" type="line"/>
			<point x="727" y="87"/>
			<point x="719" y="73"/>
			<point x="691" y="55" type="curve"/>
			<point x="671" y="42"/>
			<point x="647" y="37"/>
			<point x="623" y="37" type="curve"/>
			<point x="554" y="37"/>
			<point x="477" y="83"/>
			<point x="447" y="136" type="curve"/>
			<point x="419" y="175"/>
			<point x="401" y="229"/>
			<point x="401" y="280" type="curve"/>
			<point x="401" y="326"/>
			<point x="416" y="370"/>
			<point x="452" y="397" type="curve"/>
			<point x="472" y="412"/>
			<point x="496" y="418"/>
			<point x="520" y="418" type="curve"/>
			<point x="586" y="418"/>
			<point x="659" y="372"/>
			<point x="698" y="316" type="curve"/>
			<point x="473" y="157" type="line"/>
			<point x="480" y="148" type="line"/>
			<point x="787" y="347" type="line"/>
			<point x="774" y="367" type="line"/>
			<point x="757" y="355" type="line"/>
			<point x="721" y="428"/>
			<point x="655" y="459"/>
			<point x="587" y="459" type="curve"/>
			<point x="537" y="459"/>
			<point x="485" y="442"/>
			<point x="443" y="412" type="curve"/>
			<point x="425" y="399"/>
			<point x="409" y="384"/>
			<point x="396" y="368" type="curve"/>
			<point x="379" y="438"/>
			<point x="320" y="461"/>
			<point x="253" y="460" type="curve"/>
			<point x="165" y="460"/>
			<point x="87" y="403"/>
			<point x="48" y="328" type="curve"/>
			<point x="90" y="346" type="line"/>
			<point x="112" y="395"/>
			<point x="162" y="431"/>
			<point x="222" y="431" type="curve"/>
			<point x="281" y="431"/>
			<point x="336" y="390"/>
			<point x="336" y="307" type="curve"/>
			<point x="336" y="298" type="line"/>
			<point x="199" y="261" type="line" smooth="yes"/>
			<point x="120" y="240"/>
			<point x="54" y="170"/>
			<point x="58" y="104" type="curve"/>
			<point x="62" y="25"/>
			<point x="107" y="-7"/>
		</contour>
		<contour>
			<point x="220" y="49" type="curve"/>
			<point x="220" y="49" type="line"/>
			<point x="161" y="49"/>
			<point x="113" y="81"/>
			<point x="117" y="156" type="curve"/>
			<point x="119" y="185"/>
			<point x="155" y="233"/>
			<point x="208" y="246" type="curve"/>
			<point x="336" y="278" type="line"/>
			<point x="336" y="278"/>
			<point x="336" y="257"/>
			<point x="336" y="228" type="curve"/>
			<point x="336" y="171"/>
			<point x="336" y="85"/>
			<point x="336" y="85" type="curve"/>
			<point x="299" y="64"/>
			<point x="257" y="49"/>
		</contour>
	</outline>
</glyph>
<glyph name="igrave" format="2">
	<advance width="384"/>
	<unicode hex="00EC"/>
	<note>
		igrave
  </note>
	<outline>
		<contour>
			<point x="46" y="15" type="curve"/>
			<point x="46" y="3" type="line"/>
			<point x="125" y="21"/>
			<point x="147" y="21"/>
			<point x="189" y="21" type="curve"/>
			<point x="226" y="21"/>
			<point x="335" y="3"/>
			<point x="338" y="3" type="curve"/>
			<point x="338" y="15" type="line"/>
			<point x="230" y="31"/>
			<point x="226" y="101"/>
			<point x="226" y="225" type="curve"/>
			<point x="225" y="442" type="line"/>
			<point x="206" y="442" type="line"/>
			<point x="161" y="408"/>
			<point x="113" y="388"/>
			<point x="46" y="388" type="curve"/>
			<point x="46" y="376" type="line"/>
			<point x="155" y="359"/>
			<point x="158" y="360"/>
			<point x="158" y="234" type="curve"/>
			<point x="158" y="103"/>
			<point x="157" y="32"/>
		</contour>
		<contour>
			<point x="110" y="626" type="curve"/>
			<point x="294" y="551" type="line"/>
			<point x="305" y="563" type="line"/>
			<point x="126" y="674" type="line"/>
			<point x="127" y="673"/>
			<point x="115" y="682"/>
			<point x="103" y="682" type="curve"/>
			<point x="96" y="682"/>
			<point x="88" y="678"/>
			<point x="83" y="667" type="curve"/>
			<point x="81" y="663"/>
			<point x="80" y="659"/>
			<point x="80" y="655" type="curve"/>
			<point x="80" y="633"/>
			<point x="110" y="626"/>
		</contour>
	</outline>
</glyph>
<glyph name="iacute" format="2">
	<advance width="382"/>
	<unicode hex="00ED"/>
	<note>
		iacute
  </note>
	<outline>
		<contour>
			<point x="46" y="15" type="curve"/>
			<point x="46" y="3" type="line"/>
			<point x="125" y="21"/>
			<point x="147" y="21"/>
			<point x="189" y="21" type="curve"/>
			<point x="226" y="21"/>
			<point x="335" y="3"/>
			<point x="338" y="3" type="curve"/>
			<point x="338" y="15" type="line"/>
			<point x="230" y="31"/>
			<point x="226" y="101"/>
			<point x="226" y="225" type="curve"/>
			<point x="225" y="442" type="line"/>
			<point x="206" y="442" type="line"/>
			<point x="161" y="408"/>
			<point x="113" y="388"/>
			<point x="46" y="388" type="curve"/>
			<point x="46" y="376" type="line"/>
			<point x="155" y="359"/>
			<point x="158" y="360"/>
			<point x="158" y="234" type="curve"/>
			<point x="158" y="103"/>
			<point x="157" y="32"/>
		</contour>
		<contour>
			<point x="77" y="563" type="line"/>
			<point x="88" y="551" type="line"/>
			<point x="272" y="626" type="line"/>
			<point x="272" y="626"/>
			<point x="302" y="633"/>
			<point x="302" y="655" type="curve"/>
			<point x="302" y="659"/>
			<point x="301" y="663"/>
			<point x="299" y="667" type="curve"/>
			<point x="294" y="678"/>
			<point x="286" y="682"/>
			<point x="279" y="682" type="curve"/>
			<point x="267" y="682"/>
			<point x="255" y="673"/>
			<point x="256" y="674" type="curve"/>
		</contour>
	</outline>
</glyph>
<glyph name="icircumflex" format="2">
	<advance width="390"/>
	<unicode hex="00EE"/>
	<note>
		icircumflex
  </note>
	<outline>
		<contour>
			<point x="49" y="15" type="curve"/>
			<point x="49" y="3" type="line"/>
			<point x="128" y="21"/>
			<point x="150" y="21"/>
			<point x="192" y="21" type="curve"/>
			<point x="229" y="21"/>
			<point x="338" y="3"/>
			<point x="341" y="3" type="curve"/>
			<point x="341" y="15" type="line"/>
			<point x="233" y="31"/>
			<point x="229" y="101"/>
			<point x="229" y="225" type="curve"/>
			<point x="228" y="442" type="line"/>
			<point x="209" y="442" type="line"/>
			<point x="164" y="408"/>
			<point x="116" y="388"/>
			<point x="49" y="388" type="curve"/>
			<point x="49" y="376" type="line"/>
			<point x="158" y="359"/>
			<point x="161" y="360"/>
			<point x="161" y="234" type="curve"/>
			<point x="161" y="103"/>
			<point x="160" y="32"/>
		</contour>
		<contour>
			<point x="1" y="570" type="line"/>
			<point x="12" y="558" type="line"/>
			<point x="201" y="633" type="line"/>
			<point x="385" y="558" type="line"/>
			<point x="396" y="570" type="line"/>
			<point x="199" y="694" type="line"/>
		</contour>
	</outline>
</glyph>
<glyph name="divide" format="2">
	<advance width="623"/>
	<unicode hex="00F7"/>
	<note>
		divide
  </note>
	<outline>
		<contour>
			<point x="309" y="287" type="curve"/>
			<point x="309" y="287" type="line"/>
			<point x="337" y="287"/>
			<point x="360" y="310"/>
			<point x="360" y="338" type="curve"/>
			<point x="360" y="366"/>
			<point x="337" y="388"/>
			<point x="309" y="388" type="curve"/>
			<point x="281" y="388"/>
			<point x="259" y="366"/>
			<point x="259" y="338" type="curve"/>
			<point x="259" y="310"/>
			<point x="281" y="287"/>
		</contour>
		<contour>
			<point x="309" y="87" type="curve"/>
			<point x="309" y="87" type="line"/>
			<point x="337" y="87"/>
			<point x="360" y="110"/>
			<point x="360" y="138" type="curve"/>
			<point x="360" y="166"/>
			<point x="337" y="188"/>
			<point x="309" y="188" type="curve"/>
			<point x="281" y="188"/>
			<point x="259" y="166"/>
			<point x="259" y="138" type="curve"/>
			<point x="259" y="110"/>
			<point x="281" y="87"/>
		</contour>
		<contour>
			<point x="150" y="248" type="line"/>
			<point x="150" y="234" type="line"/>
			<point x="473" y="234" type="line"/>
			<point x="473" y="248" type="line"/>
		</contour>
	</outline>
</glyph>
<glyph name="ugrave" format="2">
	<advance width="698"/>
	<unicode hex="00F9"/>
	<note>
		ugrave
  </note>
	<outline>
		<contour>
			<point x="466" y="153" type="curve"/>
			<point x="466" y="-3" type="line"/>
			<point x="485" y="-3" type="line"/>
			<point x="530" y="31"/>
			<point x="578" y="49"/>
			<point x="645" y="49" type="curve"/>
			<point x="645" y="61" type="line"/>
			<point x="536" y="78"/>
			<point x="533" y="77"/>
			<point x="533" y="203" type="curve"/>
			<point x="533" y="454" type="line"/>
			<point x="393" y="414" type="line"/>
			<point x="393" y="402" type="line"/>
			<point x="464" y="388"/>
			<point x="465" y="376"/>
			<point x="465" y="247" type="curve"/>
			<point x="465" y="214"/>
			<point x="458" y="31"/>
			<point x="282" y="31" type="curve"/>
			<point x="249" y="31"/>
			<point x="203" y="80"/>
			<point x="203" y="164" type="curve"/>
			<point x="203" y="454" type="line"/>
			<point x="135" y="436"/>
			<point x="56" y="424"/>
			<point x="53" y="424" type="curve"/>
			<point x="53" y="412" type="line"/>
			<point x="135" y="399"/>
			<point x="135" y="356"/>
			<point x="135" y="232" type="curve"/>
			<point x="135" y="146" type="line" smooth="yes"/>
			<point x="135" y="29"/>
			<point x="210" y="3"/>
			<point x="278" y="3" type="curve"/>
			<point x="391" y="3"/>
			<point x="443" y="83"/>
		</contour>
		<contour>
			<point x="248" y="626" type="curve"/>
			<point x="432" y="551" type="line"/>
			<point x="443" y="563" type="line"/>
			<point x="264" y="674" type="line"/>
			<point x="265" y="673"/>
			<point x="253" y="682"/>
			<point x="241" y="682" type="curve"/>
			<point x="234" y="682"/>
			<point x="226" y="678"/>
			<point x="221" y="667" type="curve"/>
			<point x="219" y="663"/>
			<point x="218" y="659"/>
			<point x="218" y="655" type="curve"/>
			<point x="218" y="633"/>
			<point x="248" y="626"/>
		</contour>
	</outline>
</glyph>
<glyph name="thorn" format="2">
	<advance width="667"/>
	<unicode hex="00FE"/>
	<note>
		thorn
  </note>
	<outline>
		<contour>
			<point x="136" y="-798" type="line"/>
			<point x="210" y="-799" type="line"/>
			<point x="205" y="41" type="line"/>
			<point x="267" y="-8"/>
			<point x="323" y="-6"/>
			<point x="384" y="-6" type="curve"/>
			<point x="429" y="-6"/>
			<point x="475" y="7"/>
			<point x="514" y="35" type="curve"/>
			<point x="576" y="79"/>
			<point x="611" y="152"/>
			<point x="611" y="225" type="curve"/>
			<point x="611" y="271"/>
			<point x="598" y="317"/>
			<point x="569" y="357" type="curve"/>
			<point x="525" y="419"/>
			<point x="453" y="454"/>
			<point x="380" y="454" type="curve"/>
			<point x="334" y="454"/>
			<point x="288" y="441"/>
			<point x="247" y="412" type="curve"/>
			<point x="231" y="401"/>
			<point x="217" y="388"/>
			<point x="205" y="373" type="curve"/>
			<point x="205" y="613" type="line" smooth="yes"/>
			<point x="205" y="630"/>
			<point x="205" y="712"/>
			<point x="215" y="750" type="curve"/>
			<point x="186" y="750" type="line"/>
			<point x="141" y="716"/>
			<point x="93" y="698"/>
			<point x="26" y="698" type="curve"/>
			<point x="26" y="686" type="line"/>
			<point x="135" y="669"/>
			<point x="137" y="655"/>
			<point x="137" y="529" type="curve"/>
			<point x="137" y="229" type="line"/>
		</contour>
		<contour>
			<point x="419" y="34" type="curve"/>
			<point x="419" y="34" type="line"/>
			<point x="341" y="34"/>
			<point x="244" y="79"/>
			<point x="206" y="135" type="curve"/>
			<point x="206" y="271" type="line"/>
			<point x="204" y="321"/>
			<point x="218" y="368"/>
			<point x="256" y="397" type="curve"/>
			<point x="276" y="412"/>
			<point x="300" y="418"/>
			<point x="324" y="418" type="curve"/>
			<point x="390" y="418"/>
			<point x="463" y="372"/>
			<point x="502" y="316" type="curve"/>
			<point x="529" y="275"/>
			<point x="547" y="222"/>
			<point x="547" y="172" type="curve"/>
			<point x="547" y="125"/>
			<point x="532" y="82"/>
			<point x="495" y="55" type="curve"/>
			<point x="475" y="40"/>
			<point x="448" y="34"/>
		</contour>
	</outline>
</glyph>
<glyph name="abreve" format="2">
	<advance width="534"/>
	<unicode hex="0103"/>
	<note>
		abreve
  </note>
	<outline>
		<contour>
			<point x="158" y="-7" type="curve"/>
			<point x="158" y="-7" type="line"/>
			<point x="217" y="-7"/>
			<point x="321" y="67"/>
			<point x="326" y="81" type="curve"/>
			<point x="326" y="59"/>
			<point x="326" y="0"/>
			<point x="383" y="0" type="curve"/>
			<point x="476" y="0"/>
			<point x="520" y="65"/>
			<point x="523" y="65" type="curve"/>
			<point x="507" y="83" type="line"/>
			<point x="499" y="74"/>
			<point x="449" y="49"/>
			<point x="431" y="49" type="curve"/>
			<point x="407" y="49"/>
			<point x="391" y="72"/>
			<point x="391" y="175" type="curve"/>
			<point x="391" y="325" type="line" smooth="yes"/>
			<point x="391" y="429"/>
			<point x="322" y="460"/>
			<point x="243" y="460" type="curve"/>
			<point x="136" y="460"/>
			<point x="51" y="410"/>
			<point x="51" y="351" type="curve"/>
			<point x="119" y="306" type="line"/>
			<point x="119" y="392"/>
			<point x="167" y="441"/>
			<point x="212" y="441" type="curve"/>
			<point x="271" y="441"/>
			<point x="326" y="390"/>
			<point x="326" y="298" type="curve"/>
			<point x="238" y="273" type="line" smooth="yes"/>
			<point x="91" y="231"/>
			<point x="48" y="183"/>
			<point x="48" y="104" type="curve"/>
			<point x="48" y="24"/>
			<point x="98" y="-7"/>
		</contour>
		<contour>
			<point x="215" y="49" type="curve"/>
			<point x="215" y="49" type="line"/>
			<point x="154" y="47"/>
			<point x="107" y="70"/>
			<point x="107" y="147" type="curve"/>
			<point x="107" y="207"/>
			<point x="163" y="233"/>
			<point x="225" y="250" type="curve"/>
			<point x="326" y="278" type="line"/>
			<point x="326" y="278"/>
			<point x="326" y="260"/>
			<point x="326" y="236" type="curve"/>
			<point x="326" y="187"/>
			<point x="326" y="115"/>
			<point x="326" y="115" type="curve"/>
			<point x="326" y="97"/>
			<point x="251" y="50"/>
		</contour>
		<contour>
			<point x="232" y="532" type="curve"/>
			<point x="232" y="532" type="line"/>
			<point x="291" y="532"/>
			<point x="340" y="579"/>
			<point x="340" y="637" type="curve"/>
			<point x="303" y="637" type="line"/>
			<point x="303" y="599"/>
			<point x="271" y="569"/>
			<point x="233" y="569" type="curve"/>
			<point x="195" y="569"/>
			<point x="165" y="599"/>
			<point x="165" y="637" type="curve"/>
			<point x="127" y="637" type="line"/>
			<point x="127" y="579"/>
			<point x="174" y="532"/>
		</contour>
	</outline>
</glyph>
<glyph name="aogonek" format="2">
	<advance width="534"/>
	<unicode hex="0105"/>
	<note>
		aogonek
  </note>
	<outline>
		<contour>
			<point x="418" y="-200" type="curve"/>
			<point x="418" y="-200" type="line"/>
			<point x="445" y="-200"/>
			<point x="479" y="-180"/>
			<point x="479" y="-147" type="curve"/>
			<point x="479" y="-126"/>
			<point x="467" y="-113"/>
			<point x="451" y="-113" type="curve"/>
			<point x="438" y="-113"/>
			<point x="433" y="-118"/>
			<point x="423" y="-118" type="curve"/>
			<point x="415" y="-118"/>
			<point x="406" y="-113"/>
			<point x="400" y="-104" type="curve"/>
			<point x="394" y="-95"/>
			<point x="392" y="-85"/>
			<point x="392" y="-74" type="curve"/>
			<point x="392" y="-44"/>
			<point x="409" y="-10"/>
			<point x="426" y="5" type="curve"/>
			<point x="490" y="20"/>
			<point x="521" y="65"/>
			<point x="523" y="65" type="curve"/>
			<point x="507" y="83" type="line"/>
			<point x="499" y="74"/>
			<point x="449" y="49"/>
			<point x="431" y="49" type="curve"/>
			<point x="407" y="49"/>
			<point x="391" y="72"/>
			<point x="391" y="175" type="curve"/>
			<point x="391" y="325" type="line" smooth="yes"/>
			<point x="391" y="429"/>
			<point x="322" y="460"/>
			<point x="243" y="460" type="curve"/>
			<point x="136" y="460"/>
			<point x="51" y="410"/>
			<point x="51" y="351" type="curve"/>
			<point x="119" y="306" type="line"/>
			<point x="119" y="392"/>
			<point x="167" y="441"/>
			<point x="212" y="441" type="curve"/>
			<point x="271" y="441"/>
			<point x="326" y="390"/>
			<point x="326" y="298" type="curve"/>
			<point x="238" y="273" type="line" smooth="yes"/>
			<point x="91" y="231"/>
			<point x="48" y="183"/>
			<point x="48" y="104" type="curve"/>
			<point x="48" y="24"/>
			<point x="98" y="-7"/>
			<point x="158" y="-7" type="curve"/>
			<point x="217" y="-7"/>
			<point x="321" y="67"/>
			<point x="326" y="81" type="curve"/>
			<point x="326" y="59"/>
			<point x="326" y="0"/>
			<point x="383" y="0" type="curve"/>
			<point x="388" y="0"/>
			<point x="394" y="0"/>
			<point x="399" y="1" type="curve"/>
			<point x="356" y="-35"/>
			<point x="337" y="-77"/>
			<point x="337" y="-114" type="curve"/>
			<point x="337" y="-162"/>
			<point x="369" y="-200"/>
		</contour>
		<contour>
			<point x="215" y="49" type="curve"/>
			<point x="215" y="49" type="line"/>
			<point x="154" y="47"/>
			<point x="107" y="70"/>
			<point x="107" y="147" type="curve"/>
			<point x="107" y="207"/>
			<point x="163" y="233"/>
			<point x="225" y="250" type="curve"/>
			<point x="326" y="278" type="line"/>
			<point x="326" y="278"/>
			<point x="326" y="260"/>
			<point x="326" y="236" type="curve"/>
			<point x="326" y="187"/>
			<point x="326" y="115"/>
			<point x="326" y="115" type="curve"/>
			<point x="326" y="97"/>
			<point x="251" y="50"/>
		</contour>
	</outline>
</glyph>
<glyph name="Ccaron" format="2">
	<advance width="888"/>
	<unicode hex="010C"/>
	<note>
		Ccaron
  </note>
	<outline>
		<contour>
			<point x="484" y="-7" type="curve"/>
			<point x="484" y="-7" type="line"/>
			<point x="563" y="-7"/>
			<point x="643" y="16"/>
			<point x="712" y="65" type="curve"/>
			<point x="701" y="81" type="line"/>
			<point x="653" y="47"/>
			<point x="595" y="32"/>
			<point x="536" y="32" type="curve"/>
			<point x="412" y="32"/>
			<point x="281" y="98"/>
			<point x="209" y="199" type="curve"/>
			<point x="162" y="265"/>
			<point x="137" y="355"/>
			<point x="137" y="443" type="curve"/>
			<point x="137" y="552"/>
			<point x="175" y="659"/>
			<point x="259" y="719" type="curve"/>
			<point x="309" y="754"/>
			<point x="366" y="770"/>
			<point x="426" y="770" type="curve"/>
			<point x="590" y="770"/>
			<point x="765" y="649"/>
			<point x="814" y="488" type="curve"/>
			<point x="826" y="488" type="line"/>
			<point x="826" y="491"/>
			<point x="808" y="600"/>
			<point x="808" y="637" type="curve"/>
			<point x="808" y="679"/>
			<point x="808" y="701"/>
			<point x="826" y="780" type="curve"/>
			<point x="814" y="780" type="line"/>
			<point x="807" y="737"/>
			<point x="793" y="705"/>
			<point x="769" y="683" type="curve"/>
			<point x="693" y="762"/>
			<point x="587" y="805"/>
			<point x="478" y="805" type="curve"/>
			<point x="400" y="805"/>
			<point x="320" y="782"/>
			<point x="250" y="733" type="curve"/>
			<point x="143" y="658"/>
			<point x="82" y="526"/>
			<point x="82" y="394" type="curve"/>
			<point x="82" y="312"/>
			<point x="105" y="230"/>
			<point x="155" y="160" type="curve"/>
			<point x="230" y="53"/>
			<point x="356" y="-7"/>
		</contour>
		<contour>
			<point x="246" y="966" type="line"/>
			<point x="443" y="842" type="line"/>
			<point x="641" y="966" type="line"/>
			<point x="630" y="978" type="line"/>
			<point x="441" y="903" type="line"/>
			<point x="257" y="978" type="line"/>
		</contour>
	</outline>
</glyph>
<glyph name="Dcroat" format="2">
	<advance width="971"/>
	<unicode hex="0110"/>
	<note>
		Dcroat
  </note>
	<outline>
		<contour>
			<point x="436" y="-3" type="curve"/>
			<point x="436" y="-3" type="line"/>
			<point x="540" y="-3"/>
			<point x="649" y="25"/>
			<point x="726" y="80" type="curve"/>
			<point x="833" y="156"/>
			<point x="894" y="281"/>
			<point x="894" y="409" type="curve"/>
			<point x="894" y="488"/>
			<point x="871" y="568"/>
			<point x="821" y="638" type="curve"/>
			<point x="746" y="745"/>
			<point x="621" y="805"/>
			<point x="493" y="805" type="curve"/>
			<point x="429" y="805"/>
			<point x="364" y="790"/>
			<point x="305" y="758" type="curve"/>
			<point x="270" y="753"/>
			<point x="222" y="747"/>
			<point x="200" y="747" type="curve"/>
			<point x="158" y="747"/>
			<point x="136" y="747"/>
			<point x="57" y="765" type="curve"/>
			<point x="57" y="753" type="line"/>
			<point x="168" y="736"/>
			<point x="169" y="665"/>
			<point x="169" y="534" type="curve"/>
			<point x="169" y="347" type="line"/>
			<point x="52" y="347" type="line"/>
			<point x="52" y="333" type="line"/>
			<point x="169" y="333" type="line"/>
			<point x="169" y="234" type="line" smooth="yes"/>
			<point x="169" y="103"/>
			<point x="168" y="32"/>
			<point x="57" y="15" type="curve"/>
			<point x="57" y="3" type="line"/>
			<point x="136" y="21"/>
			<point x="158" y="21"/>
			<point x="200" y="21" type="curve"/>
			<point x="237" y="21"/>
			<point x="346" y="4"/>
			<point x="349" y="4" type="curve"/>
			<point x="377" y="-1"/>
			<point x="406" y="-3"/>
		</contour>
		<contour>
			<point x="475" y="31" type="curve"/>
			<point x="475" y="31" type="line"/>
			<point x="393" y="31"/>
			<point x="310" y="49"/>
			<point x="249" y="88" type="curve"/>
			<point x="237" y="124"/>
			<point x="237" y="173"/>
			<point x="237" y="236" type="curve"/>
			<point x="237" y="333" type="line"/>
			<point x="375" y="333" type="line"/>
			<point x="375" y="347" type="line"/>
			<point x="237" y="347" type="line"/>
			<point x="237" y="532" type="line" smooth="yes"/>
			<point x="237" y="621"/>
			<point x="237" y="683"/>
			<point x="273" y="719" type="curve"/>
			<point x="318" y="749"/>
			<point x="372" y="762"/>
			<point x="428" y="762" type="curve"/>
			<point x="559" y="762"/>
			<point x="701" y="692"/>
			<point x="767" y="600" type="curve"/>
			<point x="814" y="534"/>
			<point x="838" y="449"/>
			<point x="838" y="365" type="curve"/>
			<point x="838" y="259"/>
			<point x="799" y="156"/>
			<point x="715" y="96" type="curve"/>
			<point x="655" y="53"/>
			<point x="565" y="31"/>
		</contour>
	</outline>
</glyph>
<glyph name="Imacron" format="2">
	<advance width="396"/>
	<unicode hex="012A"/>
	<note>
		Imacron
  </note>
	<outline>
		<contour>
			<point x="52" y="15" type="curve"/>
			<point x="52" y="3" type="line"/>
			<point x="131" y="21"/>
			<point x="153" y="21"/>
			<point x="195" y="21" type="curve"/>
			<point x="232" y="21"/>
			<point x="341" y="3"/>
			<point x="344" y="3" type="curve"/>
			<point x="344" y="15" type="line"/>
			<point x="233" y="32"/>
			<point x="232" y="105"/>
			<point x="232" y="236" type="curve"/>
			<point x="232" y="532" type="line" smooth="yes"/>
			<point x="232" y="663"/>
			<point x="233" y="736"/>
			<point x="344" y="753" type="curve"/>
			<point x="344" y="765" type="line"/>
			<point x="341" y="765"/>
			<point x="232" y="747"/>
			<point x="195" y="747" type="curve"/>
			<point x="153" y="747"/>
			<point x="131" y="747"/>
			<point x="52" y="765" type="curve"/>
			<point x="52" y="753" type="line"/>
			<point x="163" y="736"/>
			<point x="164" y="665"/>
			<point x="164" y="534" type="curve"/>
			<point x="164" y="234" type="line" smooth="yes"/>
			<point x="164" y="103"/>
			<point x="163" y="32"/>
		</contour>
		<contour>
			<point x="33" y="866" type="line"/>
			<point x="33" y="852" type="line"/>
			<point x="356" y="852" type="line"/>
			<point x="356" y="866" type="line"/>
		</contour>
	</outline>
</glyph>
<glyph name="imacron" format="2">
	<advance width="382"/>
	<unicode hex="012B"/>
	<note>
		imacron
  </note>
	<outline>
		<contour>
			<point x="46" y="15" type="curve"/>
			<point x="46" y="3" type="line"/>
			<point x="125" y="21"/>
			<point x="147" y="21"/>
			<point x="189" y="21" type="curve"/>
			<point x="226" y="21"/>
			<point x="335" y="3"/>
			<point x="338" y="3" type="curve"/>
			<point x="338" y="15" type="line"/>
			<point x="230" y="31"/>
			<point x="226" y="101"/>
			<point x="226" y="225" type="curve"/>
			<point x="225" y="442" type="line"/>
			<point x="206" y="442" type="line"/>
			<point x="161" y="408"/>
			<point x="113" y="388"/>
			<point x="46" y="388" type="curve"/>
			<point x="46" y="376" type="line"/>
			<point x="155" y="359"/>
			<point x="158" y="360"/>
			<point x="158" y="234" type="curve"/>
			<point x="158" y="103"/>
			<point x="157" y="32"/>
		</contour>
		<contour>
			<point x="29" y="548" type="line"/>
			<point x="29" y="534" type="line"/>
			<point x="352" y="534" type="line"/>
			<point x="352" y="548" type="line"/>
		</contour>
	</outline>
</glyph>
<glyph name="Lacute" format="2">
	<advance width="981"/>
	<unicode hex="0139"/>
	<note>
		Lacute
  </note>
	<outline>
		<contour>
			<point x="907" y="-92" type="curve"/>
			<point x="907" y="-92" type="line"/>
			<point x="919" y="-92" type="line"/>
			<point x="901" y="-13"/>
			<point x="901" y="9"/>
			<point x="901" y="51" type="curve"/>
			<point x="901" y="88"/>
			<point x="919" y="197"/>
			<point x="919" y="200" type="curve"/>
			<point x="907" y="200" type="line"/>
			<point x="899" y="78"/>
			<point x="778" y="15"/>
			<point x="702" y="15" type="curve"/>
			<point x="256" y="15" type="line"/>
			<point x="257" y="532" type="line" smooth="yes"/>
			<point x="257" y="663"/>
			<point x="258" y="736"/>
			<point x="369" y="753" type="curve"/>
			<point x="369" y="765" type="line"/>
			<point x="366" y="765"/>
			<point x="257" y="747"/>
			<point x="220" y="747" type="curve"/>
			<point x="178" y="747"/>
			<point x="156" y="747"/>
			<point x="77" y="765" type="curve"/>
			<point x="77" y="753" type="line"/>
			<point x="188" y="736"/>
			<point x="189" y="665"/>
			<point x="189" y="534" type="curve"/>
			<point x="189" y="234" type="line" smooth="yes"/>
			<point x="189" y="103"/>
			<point x="188" y="32"/>
			<point x="77" y="15" type="curve"/>
			<point x="77" y="3" type="line"/>
			<point x="858" y="2" type="line" smooth="yes"/>
			<point x="883" y="2"/>
			<point x="895" y="-42"/>
		</contour>
		<contour>
			<point x="107" y="814" type="line"/>
			<point x="118" y="802" type="line"/>
			<point x="302" y="877" type="line"/>
			<point x="302" y="877"/>
			<point x="332" y="884"/>
			<point x="332" y="906" type="curve"/>
			<point x="332" y="910"/>
			<point x="331" y="914"/>
			<point x="329" y="918" type="curve"/>
			<point x="324" y="929"/>
			<point x="316" y="933"/>
			<point x="309" y="933" type="curve"/>
			<point x="297" y="933"/>
			<point x="285" y="924"/>
			<point x="286" y="925" type="curve"/>
		</contour>
	</outline>
</glyph>
<glyph name="lacute" format="2">
	<advance width="384"/>
	<unicode hex="013A"/>
	<note>
		lacute
  </note>
	<outline>
		<contour>
			<point x="46" y="15" type="curve"/>
			<point x="46" y="3" type="line"/>
			<point x="103" y="17"/>
			<point x="147" y="22"/>
			<point x="183" y="22" type="curve"/>
			<point x="241" y="22"/>
			<point x="283" y="10"/>
			<point x="338" y="3" type="curve"/>
			<point x="338" y="15" type="line"/>
			<point x="230" y="31"/>
			<point x="225" y="92"/>
			<point x="225" y="232" type="curve"/>
			<point x="225" y="613" type="line" smooth="yes"/>
			<point x="225" y="630"/>
			<point x="225" y="712"/>
			<point x="235" y="750" type="curve"/>
			<point x="206" y="750" type="line"/>
			<point x="161" y="716"/>
			<point x="113" y="698"/>
			<point x="46" y="698" type="curve"/>
			<point x="46" y="686" type="line"/>
			<point x="155" y="669"/>
			<point x="157" y="655"/>
			<point x="157" y="529" type="curve"/>
			<point x="157" y="229" type="line" smooth="yes"/>
			<point x="157" y="98"/>
			<point x="157" y="32"/>
		</contour>
		<contour>
			<point x="80" y="814" type="line"/>
			<point x="91" y="802" type="line"/>
			<point x="275" y="877" type="line"/>
			<point x="275" y="877"/>
			<point x="305" y="884"/>
			<point x="305" y="906" type="curve"/>
			<point x="305" y="910"/>
			<point x="304" y="914"/>
			<point x="302" y="918" type="curve"/>
			<point x="297" y="929"/>
			<point x="289" y="933"/>
			<point x="282" y="933" type="curve"/>
			<point x="270" y="933"/>
			<point x="258" y="924"/>
			<point x="259" y="925" type="curve"/>
		</contour>
	</outline>
</glyph>
<glyph name="uni013C" format="2">
	<advance width="384"/>
	<unicode hex="013C"/>
	<note>
		lcommaaccent
  </note>
	<outline>
		<contour>
			<point x="46" y="15" type="curve"/>
			<point x="46" y="3" type="line"/>
			<point x="103" y="17"/>
			<point x="147" y="22"/>
			<point x="183" y="22" type="curve"/>
			<point x="241" y="22"/>
			<point x="283" y="10"/>
			<point x="338" y="3" type="curve"/>
			<point x="338" y="15" type="line"/>
			<point x="230" y="31"/>
			<point x="225" y="92"/>
			<point x="225" y="232" type="curve"/>
			<point x="225" y="613" type="line" smooth="yes"/>
			<point x="225" y="630"/>
			<point x="225" y="712"/>
			<point x="235" y="750" type="curve"/>
			<point x="206" y="750" type="line"/>
			<point x="161" y="716"/>
			<point x="113" y="698"/>
			<point x="46" y="698" type="curve"/>
			<point x="46" y="686" type="line"/>
			<point x="155" y="669"/>
			<point x="157" y="655"/>
			<point x="157" y="529" type="curve"/>
			<point x="157" y="229" type="line" smooth="yes"/>
			<point x="157" y="98"/>
			<point x="157" y="32"/>
		</contour>
		<contour>
			<point x="99" y="-237" type="curve"/>
			<point x="104" y="-250" type="line"/>
			<point x="160" y="-250"/>
			<point x="239" y="-198"/>
			<point x="239" y="-113" type="curve"/>
			<point x="239" y="-99"/>
			<point x="238" y="-84"/>
			<point x="228" y="-72" type="curve"/>
			<point x="218" y="-61"/>
			<point x="204" y="-55"/>
			<point x="190" y="-55" type="curve"/>
			<point x="178" y="-55"/>
			<point x="166" y="-59"/>
			<point x="156" y="-67" type="curve"/>
			<point x="147" y="-75"/>
			<point x="138" y="-86"/>
			<point x="138" y="-106" type="curve"/>
			<point x="138" y="-140"/>
			<point x="171" y="-140"/>
			<point x="171" y="-175" type="curve"/>
			<point x="171" y="-202"/>
			<point x="126" y="-237"/>
		</contour>
	</outline>
</glyph>
<glyph name="lslash" format="2">
	<advance width="376"/>
	<unicode hex="0142"/>
	<note>
		lslash
  </note>
	<outline>
		<contour>
			<point x="42" y="15" type="curve"/>
			<point x="42" y="3" type="line"/>
			<point x="121" y="21"/>
			<point x="143" y="21"/>
			<point x="185" y="21" type="curve"/>
			<point x="222" y="21"/>
			<point x="331" y="3"/>
			<point x="334" y="3" type="curve"/>
			<point x="334" y="15" type="line"/>
			<point x="226" y="31"/>
			<point x="221" y="92"/>
			<point x="221" y="232" type="curve"/>
			<point x="221" y="345" type="line"/>
			<point x="319" y="415" type="line"/>
			<point x="311" y="426" type="line"/>
			<point x="221" y="362" type="line"/>
			<point x="221" y="613" type="line" smooth="yes"/>
			<point x="221" y="630"/>
			<point x="221" y="712"/>
			<point x="231" y="750" type="curve"/>
			<point x="202" y="750" type="line"/>
			<point x="157" y="716"/>
			<point x="109" y="698"/>
			<point x="42" y="698" type="curve"/>
			<point x="42" y="686" type="line"/>
			<point x="151" y="669"/>
			<point x="153" y="655"/>
			<point x="153" y="529" type="curve"/>
			<point x="153" y="314" type="line"/>
			<point x="47" y="240" type="line"/>
			<point x="55" y="228" type="line"/>
			<point x="153" y="297" type="line"/>
			<point x="153" y="229" type="line" smooth="yes"/>
			<point x="153" y="98"/>
			<point x="153" y="32"/>
		</contour>
	</outline>
</glyph>
<glyph name="Nacute" format="2">
	<advance width="1595"/>
	<unicode hex="0143"/>
	<note>
		Nacute
  </note>
	<outline>
		<contour>
			<point x="72" y="12" type="curve"/>
			<point x="72" y="0" type="line"/>
			<point x="75" y="0"/>
			<point x="154" y="18"/>
			<point x="191" y="18" type="curve"/>
			<point x="233" y="18"/>
			<point x="225" y="18"/>
			<point x="304" y="0" type="curve"/>
			<point x="304" y="12" type="line"/>
			<point x="255" y="19"/>
			<point x="237" y="34"/>
			<point x="237" y="57" type="curve"/>
			<point x="237" y="87"/>
			<point x="267" y="131"/>
			<point x="299" y="191" type="curve"/>
			<point x="566" y="724" type="line"/>
			<point x="972" y="0" type="line"/>
			<point x="1022" y="0" type="line"/>
			<point x="1315" y="554" type="line" smooth="yes"/>
			<point x="1369" y="652"/>
			<point x="1412" y="738"/>
			<point x="1523" y="755" type="curve"/>
			<point x="1523" y="767" type="line"/>
			<point x="1520" y="767"/>
			<point x="1441" y="749"/>
			<point x="1404" y="749" type="curve"/>
			<point x="1362" y="749"/>
			<point x="1370" y="749"/>
			<point x="1291" y="767" type="curve"/>
			<point x="1291" y="755" type="line"/>
			<point x="1340" y="748"/>
			<point x="1358" y="730"/>
			<point x="1358" y="703" type="curve"/>
			<point x="1358" y="669"/>
			<point x="1328" y="620"/>
			<point x="1296" y="560" type="curve"/>
			<point x="1017" y="31" type="line"/>
			<point x="586" y="806" type="line"/>
			<point x="280" y="197" type="line"/>
			<point x="226" y="99"/>
			<point x="183" y="29"/>
		</contour>
		<contour>
			<point x="876" y="814" type="line"/>
			<point x="887" y="802" type="line"/>
			<point x="1071" y="877" type="line"/>
			<point x="1071" y="877"/>
			<point x="1101" y="884"/>
			<point x="1101" y="906" type="curve"/>
			<point x="1101" y="910"/>
			<point x="1100" y="914"/>
			<point x="1098" y="918" type="curve"/>
			<point x="1093" y="929"/>
			<point x="1085" y="933"/>
			<point x="1078" y="933" type="curve"/>
			<point x="1066" y="933"/>
			<point x="1054" y="924"/>
			<point x="1055" y="925" type="curve"/>
		</contour>
	</outline>
</glyph>
<glyph name="nacute" format="2">
	<advance width="712"/>
	<unicode hex="0144"/>
	<note>
		nacute
  </note>
	<outline>
		<contour>
			<point x="46" y="15" type="curve"/>
			<point x="46" y="3" type="line"/>
			<point x="92" y="16"/>
			<point x="130" y="21"/>
			<point x="165" y="21" type="curve"/>
			<point x="211" y="21"/>
			<point x="252" y="13"/>
			<point x="298" y="3" type="curve"/>
			<point x="298" y="15" type="line"/>
			<point x="228" y="29"/>
			<point x="226" y="81"/>
			<point x="226" y="205" type="curve"/>
			<point x="226" y="207"/>
			<point x="225" y="432"/>
			<point x="394" y="432" type="curve"/>
			<point x="450" y="432"/>
			<point x="488" y="377"/>
			<point x="488" y="293" type="curve"/>
			<point x="488" y="234" type="line" smooth="yes"/>
			<point x="488" y="103"/>
			<point x="490" y="29"/>
			<point x="416" y="15" type="curve"/>
			<point x="416" y="3" type="line"/>
			<point x="450" y="18"/>
			<point x="489" y="23"/>
			<point x="526" y="23" type="curve"/>
			<point x="600" y="23"/>
			<point x="666" y="3"/>
			<point x="668" y="3" type="curve"/>
			<point x="668" y="15" type="line"/>
			<point x="560" y="31"/>
			<point x="556" y="101"/>
			<point x="556" y="225" type="curve"/>
			<point x="556" y="311" type="line" smooth="yes"/>
			<point x="556" y="428"/>
			<point x="481" y="460"/>
			<point x="413" y="460" type="curve"/>
			<point x="300" y="460"/>
			<point x="248" y="374"/>
			<point x="225" y="304" type="curve"/>
			<point x="225" y="440" type="line"/>
			<point x="206" y="440" type="line"/>
			<point x="161" y="406"/>
			<point x="113" y="388"/>
			<point x="46" y="388" type="curve"/>
			<point x="46" y="376" type="line"/>
			<point x="155" y="359"/>
			<point x="158" y="360"/>
			<point x="158" y="234" type="curve"/>
			<point x="158" y="103"/>
			<point x="157" y="32"/>
		</contour>
		<contour>
			<point x="244" y="524" type="line"/>
			<point x="255" y="512" type="line"/>
			<point x="439" y="587" type="line"/>
			<point x="439" y="587"/>
			<point x="469" y="594"/>
			<point x="469" y="616" type="curve"/>
			<point x="469" y="620"/>
			<point x="468" y="624"/>
			<point x="466" y="628" type="curve"/>
			<point x="461" y="639"/>
			<point x="453" y="643"/>
			<point x="446" y="643" type="curve"/>
			<point x="434" y="643"/>
			<point x="422" y="634"/>
			<point x="423" y="635" type="curve"/>
		</contour>
	</outline>
</glyph>
<glyph name="uni0145" format="2">
	<advance width="1595"/>
	<unicode hex="0145"/>
	<note>
		Ncommaaccent
  </note>
	<outline>
		<contour>
			<point x="72" y="12" type="curve"/>
			<point x="72" y="0" type="line"/>
			<point x="75" y="0"/>
			<point x="154" y="18"/>
			<point x="191" y="18" type="curve"/>
			<point x="233" y="18"/>
			<point x="225" y="18"/>
			<point x="304" y="0" type="curve"/>
			<point x="304" y="12" type="line"/>
			<point x="255" y="19"/>
			<point x="237" y="34"/>
			<point x="237" y="57" type="curve"/>
			<point x="237" y="87"/>
			<point x="267" y="131"/>
			<point x="299" y="191" type="curve"/>
			<point x="566" y="724" type="line"/>
			<point x="972" y="0" type="line"/>
			<point x="1022" y="0" type="line"/>
			<point x="1315" y="554" type="line" smooth="yes"/>
			<point x="1369" y="652"/>
			<point x="1412" y="738"/>
			<point x="1523" y="755" type="curve"/>
			<point x="1523" y="767" type="line"/>
			<point x="1520" y="767"/>
			<point x="1441" y="749"/>
			<point x="1404" y="749" type="curve"/>
			<point x="1362" y="749"/>
			<point x="1370" y="749"/>
			<point x="1291" y="767" type="curve"/>
			<point x="1291" y="755" type="line"/>
			<point x="1340" y="748"/>
			<point x="1358" y="730"/>
			<point x="1358" y="703" type="curve"/>
			<point x="1358" y="669"/>
			<point x="1328" y="620"/>
			<point x="1296" y="560" type="curve"/>
			<point x="1017" y="31" type="line"/>
			<point x="586" y="806" type="line"/>
			<point x="280" y="197" type="line"/>
			<point x="226" y="99"/>
			<point x="183" y="29"/>
		</contour>
		<contour>
			<point x="505" y="-237" type="curve"/>
			<point x="510" y="-250" type="line"/>
			<point x="566" y="-250"/>
			<point x="645" y="-198"/>
			<point x="645" y="-113" type="curve"/>
			<point x="645" y="-99"/>
			<point x="644" y="-84"/>
			<point x="634" y="-72" type="curve"/>
			<point x="624" y="-61"/>
			<point x="610" y="-55"/>
			<point x="596" y="-55" type="curve"/>
			<point x="584" y="-55"/>
			<point x="572" y="-59"/>
			<point x="562" y="-67" type="curve"/>
			<point x="553" y="-75"/>
			<point x="544" y="-86"/>
			<point x="544" y="-106" type="curve"/>
			<point x="544" y="-140"/>
			<point x="577" y="-140"/>
			<point x="577" y="-175" type="curve"/>
			<point x="577" y="-202"/>
			<point x="532" y="-237"/>
		</contour>
	</outline>
</glyph>
<glyph name="uni0146" format="2">
	<advance width="712"/>
	<unicode hex="0146"/>
	<note>
		ncommaaccent
  </note>
	<outline>
		<contour>
			<point x="46" y="15" type="curve"/>
			<point x="46" y="3" type="line"/>
			<point x="92" y="16"/>
			<point x="130" y="21"/>
			<point x="165" y="21" type="curve"/>
			<point x="211" y="21"/>
			<point x="252" y="13"/>
			<point x="298" y="3" type="curve"/>
			<point x="298" y="15" type="line"/>
			<point x="228" y="29"/>
			<point x="226" y="81"/>
			<point x="226" y="205" type="curve"/>
			<point x="226" y="207"/>
			<point x="225" y="432"/>
			<point x="394" y="432" type="curve"/>
			<point x="450" y="432"/>
			<point x="488" y="377"/>
			<point x="488" y="293" type="curve"/>
			<point x="488" y="234" type="line" smooth="yes"/>
			<point x="488" y="103"/>
			<point x="490" y="29"/>
			<point x="416" y="15" type="curve"/>
			<point x="416" y="3" type="line"/>
			<point x="450" y="18"/>
			<point x="489" y="23"/>
			<point x="526" y="23" type="curve"/>
			<point x="600" y="23"/>
			<point x="666" y="3"/>
			<point x="668" y="3" type="curve"/>
			<point x="668" y="15" type="line"/>
			<point x="560" y="31"/>
			<point x="556" y="101"/>
			<point x="556" y="225" type="curve"/>
			<point x="556" y="311" type="line" smooth="yes"/>
			<point x="556" y="428"/>
			<point x="481" y="460"/>
			<point x="413" y="460" type="curve"/>
			<point x="300" y="460"/>
			<point x="248" y="374"/>
			<point x="225" y="304" type="curve"/>
			<point x="225" y="440" type="line"/>
			<point x="206" y="440" type="line"/>
			<point x="161" y="406"/>
			<point x="113" y="388"/>
			<point x="46" y="388" type="curve"/>
			<point x="46" y="376" type="line"/>
			<point x="155" y="359"/>
			<point x="158" y="360"/>
			<point x="158" y="234" type="curve"/>
			<point x="158" y="103"/>
			<point x="157" y="32"/>
		</contour>
		<contour>
			<point x="263" y="-237" type="curve"/>
			<point x="268" y="-250" type="line"/>
			<point x="324" y="-250"/>
			<point x="403" y="-198"/>
			<point x="403" y="-113" type="curve"/>
			<point x="403" y="-99"/>
			<point x="402" y="-84"/>
			<point x="392" y="-72" type="curve"/>
			<point x="382" y="-61"/>
			<point x="368" y="-55"/>
			<point x="354" y="-55" type="curve"/>
			<point x="342" y="-55"/>
			<point x="330" y="-59"/>
			<point x="320" y="-67" type="curve"/>
			<point x="311" y="-75"/>
			<point x="302" y="-86"/>
			<point x="302" y="-106" type="curve"/>
			<point x="302" y="-140"/>
			<point x="335" y="-140"/>
			<point x="335" y="-175" type="curve"/>
			<point x="335" y="-202"/>
			<point x="290" y="-237"/>
		</contour>
	</outline>
</glyph>
<glyph name="eng" format="2">
	<advance width="600"/>
	<unicode hex="014B"/>
	<note>
		eng
  </note>
	<outline>
		<contour>
			<point x="416" y="-97" type="curve"/>
			<point x="416" y="-109" type="line"/>
			<point x="507" y="-97"/>
			<point x="556" y="-59"/>
			<point x="556" y="219" type="curve"/>
			<point x="556" y="311" type="line" smooth="yes"/>
			<point x="556" y="428"/>
			<point x="481" y="460"/>
			<point x="413" y="460" type="curve"/>
			<point x="300" y="460"/>
			<point x="248" y="374"/>
			<point x="225" y="304" type="curve"/>
			<point x="225" y="440" type="line"/>
			<point x="206" y="440" type="line"/>
			<point x="161" y="406"/>
			<point x="113" y="388"/>
			<point x="46" y="388" type="curve"/>
			<point x="46" y="376" type="line"/>
			<point x="155" y="359"/>
			<point x="158" y="360"/>
			<point x="158" y="234" type="curve"/>
			<point x="158" y="103"/>
			<point x="157" y="32"/>
			<point x="46" y="15" type="curve"/>
			<point x="46" y="3" type="line"/>
			<point x="92" y="16"/>
			<point x="130" y="21"/>
			<point x="165" y="21" type="curve"/>
			<point x="211" y="21"/>
			<point x="252" y="13"/>
			<point x="298" y="3" type="curve"/>
			<point x="298" y="15" type="line"/>
			<point x="228" y="29"/>
			<point x="226" y="81"/>
			<point x="226" y="205" type="curve"/>
			<point x="226" y="207"/>
			<point x="225" y="432"/>
			<point x="394" y="432" type="curve"/>
			<point x="450" y="432"/>
			<point x="488" y="377"/>
			<point x="488" y="293" type="curve"/>
			<point x="488" y="228" type="line" smooth="yes"/>
			<point x="488" y="216"/>
			<point x="488" y="204"/>
			<point x="488" y="193" type="curve"/>
			<point x="488" y="-16"/>
			<point x="486" y="-84"/>
		</contour>
	</outline>
</glyph>
<glyph name="ohungarumlaut" format="2">
	<advance width="600"/>
	<unicode hex="0151"/>
	<note>
		ohungarumlaut
  </note>
	<outline>
		<contour>
			<point x="289" y="-7" type="curve"/>
			<point x="289" y="-7" type="line"/>
			<point x="335" y="-7"/>
			<point x="381" y="6"/>
			<point x="421" y="35" type="curve"/>
			<point x="483" y="79"/>
			<point x="518" y="153"/>
			<point x="518" y="229" type="curve"/>
			<point x="518" y="275"/>
			<point x="505" y="322"/>
			<point x="476" y="362" type="curve"/>
			<point x="432" y="424"/>
			<point x="360" y="459"/>
			<point x="287" y="459" type="curve"/>
			<point x="241" y="459"/>
			<point x="195" y="446"/>
			<point x="154" y="417" type="curve"/>
			<point x="92" y="373"/>
			<point x="56" y="299"/>
			<point x="56" y="224" type="curve"/>
			<point x="56" y="177"/>
			<point x="70" y="130"/>
			<point x="99" y="90" type="curve"/>
			<point x="142" y="28"/>
			<point x="215" y="-7"/>
		</contour>
		<contour>
			<point x="335" y="34" type="curve"/>
			<point x="335" y="34" type="line"/>
			<point x="269" y="34"/>
			<point x="196" y="80"/>
			<point x="158" y="136" type="curve"/>
			<point x="130" y="175"/>
			<point x="112" y="231"/>
			<point x="112" y="282" type="curve"/>
			<point x="112" y="330"/>
			<point x="127" y="375"/>
			<point x="163" y="402" type="curve"/>
			<point x="183" y="417"/>
			<point x="207" y="423"/>
			<point x="231" y="423" type="curve"/>
			<point x="297" y="423"/>
			<point x="370" y="377"/>
			<point x="409" y="321" type="curve"/>
			<point x="436" y="280"/>
			<point x="454" y="225"/>
			<point x="454" y="174" type="curve"/>
			<point x="454" y="126"/>
			<point x="439" y="82"/>
			<point x="402" y="55" type="curve"/>
			<point x="382" y="40"/>
			<point x="359" y="34"/>
		</contour>
		<contour>
			<point x="97" y="526" type="curve"/>
			<point x="97" y="526" type="line"/>
			<point x="161" y="526"/>
			<point x="246" y="544"/>
			<point x="266" y="561" type="curve"/>
			<point x="277" y="570"/>
			<point x="284" y="584"/>
			<point x="284" y="599" type="curve"/>
			<point x="284" y="627"/>
			<point x="261" y="650"/>
			<point x="233" y="650" type="curve"/>
			<point x="192" y="650"/>
			<point x="167" y="544"/>
			<point x="103" y="544" type="curve"/>
			<point x="97" y="544"/>
			<point x="99" y="532"/>
		</contour>
		<contour>
			<point x="352" y="526" type="curve"/>
			<point x="352" y="526" type="line"/>
			<point x="416" y="526"/>
			<point x="501" y="544"/>
			<point x="521" y="561" type="curve"/>
			<point x="532" y="570"/>
			<point x="539" y="584"/>
			<point x="539" y="599" type="curve"/>
			<point x="539" y="627"/>
			<point x="516" y="650"/>
			<point x="488" y="650" type="curve"/>
			<point x="447" y="650"/>
			<point x="422" y="544"/>
			<point x="358" y="544" type="curve"/>
			<point x="352" y="544"/>
			<point x="354" y="532"/>
		</contour>
	</outline>
</glyph>
<glyph name="OE" format="2">
	<advance width="1643"/>
	<unicode hex="0152"/>
	<note>
		OE
  </note>
	<outline>
		<contour>
			<point x="484" y="8" type="curve"/>
			<point x="484" y="8" type="line"/>
			<point x="563" y="8"/>
			<point x="643" y="31"/>
			<point x="712" y="80" type="curve"/>
			<point x="775" y="125"/>
			<point x="822" y="187"/>
			<point x="850" y="257" type="curve"/>
			<point x="862" y="228"/>
			<point x="876" y="201"/>
			<point x="895" y="175" type="curve"/>
			<point x="970" y="68"/>
			<point x="1096" y="8"/>
			<point x="1224" y="8" type="curve"/>
			<point x="1303" y="8"/>
			<point x="1383" y="31"/>
			<point x="1452" y="80" type="curve"/>
			<point x="1441" y="96" type="line"/>
			<point x="1393" y="62"/>
			<point x="1335" y="47"/>
			<point x="1276" y="47" type="curve"/>
			<point x="1152" y="47"/>
			<point x="1021" y="113"/>
			<point x="949" y="214" type="curve"/>
			<point x="911" y="266"/>
			<point x="887" y="331"/>
			<point x="879" y="398" type="curve"/>
			<point x="879" y="404" type="line"/>
			<point x="1671" y="404" type="line"/>
			<point x="1671" y="418" type="line"/>
			<point x="879" y="418" type="line"/>
			<point x="875" y="535"/>
			<point x="902" y="649"/>
			<point x="999" y="719" type="curve"/>
			<point x="1049" y="754"/>
			<point x="1106" y="770"/>
			<point x="1166" y="770" type="curve"/>
			<point x="1330" y="770"/>
			<point x="1505" y="649"/>
			<point x="1554" y="488" type="curve"/>
			<point x="1566" y="488" type="line"/>
			<point x="1566" y="491"/>
			<point x="1548" y="600"/>
			<point x="1548" y="637" type="curve"/>
			<point x="1548" y="679"/>
			<point x="1548" y="701"/>
			<point x="1566" y="780" type="curve"/>
			<point x="1554" y="780" type="line"/>
			<point x="1547" y="737"/>
			<point x="1533" y="705"/>
			<point x="1509" y="683" type="curve"/>
			<point x="1433" y="762"/>
			<point x="1327" y="805"/>
			<point x="1218" y="805" type="curve"/>
			<point x="1140" y="805"/>
			<point x="1060" y="782"/>
			<point x="990" y="733" type="curve"/>
			<point x="927" y="688"/>
			<point x="879" y="626"/>
			<point x="851" y="556" type="curve"/>
			<point x="840" y="584"/>
			<point x="825" y="612"/>
			<point x="807" y="638" type="curve"/>
			<point x="732" y="745"/>
			<point x="606" y="805"/>
			<point x="479" y="805" type="curve"/>
			<point x="400" y="805"/>
			<point x="320" y="782"/>
			<point x="250" y="733" type="curve"/>
			<point x="143" y="658"/>
			<point x="82" y="532"/>
			<point x="82" y="404" type="curve"/>
			<point x="82" y="325"/>
			<point x="105" y="245"/>
			<point x="155" y="175" type="curve"/>
			<point x="230" y="68"/>
			<point x="356" y="8"/>
		</contour>
		<contour>
			<point x="536" y="47" type="curve"/>
			<point x="536" y="47" type="line"/>
			<point x="412" y="47"/>
			<point x="281" y="113"/>
			<point x="209" y="214" type="curve"/>
			<point x="162" y="280"/>
			<point x="137" y="366"/>
			<point x="137" y="451" type="curve"/>
			<point x="137" y="557"/>
			<point x="176" y="660"/>
			<point x="259" y="719" type="curve"/>
			<point x="307" y="753"/>
			<point x="365" y="768"/>
			<point x="424" y="768" type="curve"/>
			<point x="549" y="768"/>
			<point x="682" y="701"/>
			<point x="753" y="600" type="curve"/>
			<point x="792" y="545"/>
			<point x="815" y="477"/>
			<point x="822" y="407" type="curve"/>
			<point x="824" y="281"/>
			<point x="799" y="166"/>
			<point x="701" y="96" type="curve"/>
			<point x="653" y="62"/>
			<point x="595" y="47"/>
		</contour>
	</outline>
</glyph>
<glyph name="oe" format="2">
	<advance width="951"/>
	<unicode hex="0153"/>
	<note>
		oe
  </note>
	<outline>
		<contour>
			<point x="289" y="-7" type="curve"/>
			<point x="289" y="-7" type="line"/>
			<point x="335" y="-7"/>
			<point x="381" y="6"/>
			<point x="421" y="35" type="curve"/>
			<point x="448" y="54"/>
			<point x="470" y="79"/>
			<point x="486" y="108" type="curve"/>
			<point x="498" y="90" type="line" smooth="yes"/>
			<point x="541" y="28"/>
			<point x="614" y="-7"/>
			<point x="688" y="-7" type="curve"/>
			<point x="734" y="-7"/>
			<point x="780" y="6"/>
			<point x="820" y="35" type="curve"/>
			<point x="856" y="65"/>
			<point x="860" y="72"/>
			<point x="869" y="90" type="curve"/>
			<point x="848" y="103" type="line"/>
			<point x="837" y="87"/>
			<point x="829" y="73"/>
			<point x="801" y="55" type="curve"/>
			<point x="781" y="41"/>
			<point x="758" y="35"/>
			<point x="733" y="35" type="curve"/>
			<point x="668" y="35"/>
			<point x="595" y="80"/>
			<point x="557" y="136" type="curve"/>
			<point x="539" y="161"/>
			<point x="525" y="192"/>
			<point x="518" y="225" type="curve"/>
			<point x="515" y="243"/>
			<point x="512" y="262"/>
			<point x="512" y="282" type="curve"/>
			<point x="512" y="326"/>
			<point x="524" y="370"/>
			<point x="562" y="397" type="curve"/>
			<point x="582" y="412"/>
			<point x="606" y="418"/>
			<point x="630" y="418" type="curve"/>
			<point x="696" y="418"/>
			<point x="769" y="372"/>
			<point x="808" y="316" type="curve"/>
			<point x="583" y="157" type="line"/>
			<point x="590" y="148" type="line"/>
			<point x="897" y="347" type="line"/>
			<point x="884" y="367" type="line"/>
			<point x="867" y="355" type="line"/>
			<point x="831" y="428"/>
			<point x="765" y="459"/>
			<point x="697" y="459" type="curve"/>
			<point x="647" y="459"/>
			<point x="595" y="442"/>
			<point x="553" y="412" type="curve"/>
			<point x="526" y="393"/>
			<point x="504" y="369"/>
			<point x="488" y="342" type="curve"/>
			<point x="476" y="362" type="line"/>
			<point x="432" y="424"/>
			<point x="360" y="459"/>
			<point x="287" y="459" type="curve"/>
			<point x="241" y="459"/>
			<point x="195" y="446"/>
			<point x="154" y="417" type="curve"/>
			<point x="92" y="373"/>
			<point x="56" y="299"/>
			<point x="56" y="224" type="curve"/>
			<point x="56" y="177"/>
			<point x="70" y="130"/>
			<point x="99" y="90" type="curve"/>
			<point x="142" y="28"/>
			<point x="215" y="-7"/>
		</contour>
		<contour>
			<point x="335" y="34" type="curve"/>
			<point x="335" y="34" type="line"/>
			<point x="269" y="34"/>
			<point x="196" y="80"/>
			<point x="158" y="136" type="curve"/>
			<point x="130" y="175"/>
			<point x="112" y="231"/>
			<point x="112" y="282" type="curve"/>
			<point x="112" y="330"/>
			<point x="127" y="375"/>
			<point x="163" y="402" type="curve"/>
			<point x="183" y="417"/>
			<point x="207" y="423"/>
			<point x="231" y="423" type="curve"/>
			<point x="297" y="423"/>
			<point x="370" y="377"/>
			<point x="409" y="321" type="curve"/>
			<point x="436" y="280"/>
			<point x="454" y="225"/>
			<point x="454" y="174" type="curve"/>
			<point x="454" y="126"/>
			<point x="439" y="82"/>
			<point x="402" y="55" type="curve"/>
			<point x="382" y="40"/>
			<point x="359" y="34"/>
		</contour>
	</outline>
</glyph>
<glyph name="uni0156" format="2">
	<advance width="973"/>
	<unicode hex="0156"/>
	<note>
		Rcommaaccent
  </note>
	<outline>
		<contour>
			<point x="52" y="-804" type="curve"/>
			<point x="52" y="-816" type="line"/>
			<point x="131" y="-798"/>
			<point x="153" y="-798"/>
			<point x="195" y="-798" type="curve"/>
			<point x="232" y="-798"/>
			<point x="341" y="-816"/>
			<point x="344" y="-816" type="curve"/>
			<point x="344" y="-804" type="line"/>
			<point x="233" y="-787"/>
			<point x="232" y="-714"/>
			<point x="232" y="-583" type="curve"/>
			<point x="232" y="532" type="line" smooth="yes"/>
			<point x="232" y="621"/>
			<point x="232" y="683"/>
			<point x="268" y="719" type="curve"/>
			<point x="313" y="749"/>
			<point x="367" y="762"/>
			<point x="423" y="762" type="curve"/>
			<point x="554" y="762"/>
			<point x="696" y="692"/>
			<point x="762" y="600" type="curve"/>
			<point x="809" y="534"/>
			<point x="833" y="449"/>
			<point x="833" y="365" type="curve"/>
			<point x="833" y="259"/>
			<point x="794" y="156"/>
			<point x="710" y="96" type="curve"/>
			<point x="666" y="64"/>
			<point x="605" y="44"/>
			<point x="540" y="35" type="curve"/>
			<point x="944" y="-607" type="line" smooth="yes"/>
			<point x="987" y="-679"/>
			<point x="1029" y="-740"/>
			<point x="1029" y="-774" type="curve"/>
			<point x="1029" y="-789"/>
			<point x="1020" y="-799"/>
			<point x="999" y="-802" type="curve"/>
			<point x="999" y="-814" type="line"/>
			<point x="1078" y="-796"/>
			<point x="1090" y="-796"/>
			<point x="1132" y="-796" type="curve"/>
			<point x="1169" y="-796"/>
			<point x="1288" y="-814"/>
			<point x="1291" y="-814" type="curve"/>
			<point x="1291" y="-802" type="line"/>
			<point x="1180" y="-785"/>
			<point x="1088" y="-696"/>
			<point x="1023" y="-601" type="curve"/>
			<point x="627" y="31" type="line"/>
			<point x="661" y="44"/>
			<point x="693" y="60"/>
			<point x="721" y="80" type="curve"/>
			<point x="828" y="156"/>
			<point x="889" y="281"/>
			<point x="889" y="409" type="curve"/>
			<point x="889" y="488"/>
			<point x="866" y="568"/>
			<point x="816" y="638" type="curve"/>
			<point x="742" y="742"/>
			<point x="621" y="805"/>
			<point x="496" y="805" type="curve"/>
			<point x="344" y="805"/>
			<point x="295" y="747"/>
			<point x="195" y="747" type="curve"/>
			<point x="153" y="747"/>
			<point x="131" y="747"/>
			<point x="52" y="765" type="curve"/>
			<point x="52" y="753" type="line"/>
			<point x="163" y="736"/>
			<point x="164" y="665"/>
			<point x="164" y="534" type="curve"/>
			<point x="164" y="-585" type="line" smooth="yes"/>
			<point x="164" y="-716"/>
			<point x="163" y="-787"/>
		</contour>
		<contour>
			<point x="544" y="-1037" type="curve"/>
			<point x="549" y="-1050" type="line"/>
			<point x="605" y="-1050"/>
			<point x="684" y="-998"/>
			<point x="684" y="-913" type="curve"/>
			<point x="684" y="-899"/>
			<point x="683" y="-884"/>
			<point x="673" y="-872" type="curve"/>
			<point x="663" y="-861"/>
			<point x="649" y="-855"/>
			<point x="635" y="-855" type="curve"/>
			<point x="623" y="-855"/>
			<point x="611" y="-859"/>
			<point x="601" y="-867" type="curve"/>
			<point x="592" y="-875"/>
			<point x="583" y="-886"/>
			<point x="583" y="-906" type="curve"/>
			<point x="583" y="-940"/>
			<point x="616" y="-940"/>
			<point x="616" y="-975" type="curve"/>
			<point x="616" y="-1002"/>
			<point x="571" y="-1037"/>
		</contour>
	</outline>
</glyph>
<glyph name="uni0157" format="2">
	<advance width="572"/>
	<unicode hex="0157"/>
	<note>
		rcommaaccent
  </note>
	<outline>
		<contour>
			<point x="46" y="15" type="curve"/>
			<point x="46" y="3" type="line"/>
			<point x="125" y="21"/>
			<point x="147" y="21"/>
			<point x="189" y="21" type="curve"/>
			<point x="226" y="21"/>
			<point x="295" y="3"/>
			<point x="298" y="3" type="curve"/>
			<point x="298" y="15" type="line"/>
			<point x="227" y="29"/>
			<point x="226" y="132"/>
			<point x="226" y="206" type="curve"/>
			<point x="226" y="223"/>
			<point x="229" y="432"/>
			<point x="379" y="432" type="curve"/>
			<point x="424" y="432"/>
			<point x="458" y="401"/>
			<point x="458" y="315" type="curve"/>
			<point x="526" y="360" type="line"/>
			<point x="526" y="419"/>
			<point x="451" y="460"/>
			<point x="383" y="460" type="curve"/>
			<point x="265" y="460"/>
			<point x="225" y="329"/>
			<point x="225" y="258" type="curve"/>
			<point x="225" y="440" type="line"/>
			<point x="206" y="440" type="line"/>
			<point x="161" y="406"/>
			<point x="113" y="388"/>
			<point x="46" y="388" type="curve"/>
			<point x="46" y="376" type="line"/>
			<point x="155" y="359"/>
			<point x="158" y="360"/>
			<point x="158" y="234" type="curve"/>
			<point x="158" y="103"/>
			<point x="157" y="32"/>
		</contour>
		<contour>
			<point x="100" y="-237" type="curve"/>
			<point x="105" y="-250" type="line"/>
			<point x="161" y="-250"/>
			<point x="240" y="-198"/>
			<point x="240" y="-113" type="curve"/>
			<point x="240" y="-99"/>
			<point x="239" y="-84"/>
			<point x="229" y="-72" type="curve"/>
			<point x="219" y="-61"/>
			<point x="205" y="-55"/>
			<point x="191" y="-55" type="curve"/>
			<point x="179" y="-55"/>
			<point x="167" y="-59"/>
			<point x="157" y="-67" type="curve"/>
			<point x="148" y="-75"/>
			<point x="139" y="-86"/>
			<point x="139" y="-106" type="curve"/>
			<point x="139" y="-140"/>
			<point x="172" y="-140"/>
			<point x="172" y="-175" type="curve"/>
			<point x="172" y="-202"/>
			<point x="127" y="-237"/>
		</contour>
	</outline>
</glyph>
<glyph name="rcaron" format="2">
	<advance width="572"/>
	<unicode hex="0159"/>
	<note>
		rcaron
  </note>
	<outline>
		<contour>
			<point x="46" y="15" type="curve"/>
			<point x="46" y="3" type="line"/>
			<point x="125" y="21"/>
			<point x="147" y="21"/>
			<point x="189" y="21" type="curve"/>
			<point x="226" y="21"/>
			<point x="295" y="3"/>
			<point x="298" y="3" type="curve"/>
			<point x="298" y="15" type="line"/>
			<point x="227" y="29"/>
			<point x="226" y="132"/>
			<point x="226" y="206" type="curve"/>
			<point x="226" y="223"/>
			<point x="229" y="432"/>
			<point x="379" y="432" type="curve"/>
			<point x="424" y="432"/>
			<point x="458" y="401"/>
			<point x="458" y="315" type="curve"/>
			<point x="526" y="360" type="line"/>
			<point x="526" y="419"/>
			<point x="451" y="460"/>
			<point x="383" y="460" type="curve"/>
			<point x="265" y="460"/>
			<point x="225" y="329"/>
			<point x="225" y="258" type="curve"/>
			<point x="225" y="440" type="line"/>
			<point x="206" y="440" type="line"/>
			<point x="161" y="406"/>
			<point x="113" y="388"/>
			<point x="46" y="388" type="curve"/>
			<point x="46" y="376" type="line"/>
			<point x="155" y="359"/>
			<point x="158" y="360"/>
			<point x="158" y="234" type="curve"/>
			<point x="158" y="103"/>
			<point x="157" y="32"/>
		</contour>
		<contour>
			<point x="100" y="695" type="line"/>
			<point x="297" y="571" type="line"/>
			<point x="495" y="695" type="line"/>
			<point x="484" y="707" type="line"/>
			<point x="295" y="632" type="line"/>
			<point x="111" y="707" type="line"/>
		</contour>
	</outline>
</glyph>
<glyph name="Scedilla" format="2">
	<advance width="820"/>
	<unicode hex="015E"/>
	<note>
		Scedilla
  </note>
	<outline>
		<contour>
			<point x="311" y="-1097" type="curve"/>
			<point x="311" y="-1097" type="line"/>
			<point x="339" y="-1097" type="line" smooth="yes"/>
			<point x="425" y="-1097"/>
			<point x="528" y="-988"/>
			<point x="528" y="-909" type="curve"/>
			<point x="528" y="-893"/>
			<point x="503" y="-880"/>
			<point x="469" y="-880" type="curve"/>
			<point x="377" y="-880"/>
			<point x="368" y="-892"/>
			<point x="368" y="-892" type="curve"/>
			<point x="419" y="-812" type="line"/>
			<point x="717" y="-791"/>
			<point x="804" y="-536"/>
			<point x="803" y="-366" type="curve"/>
			<point x="803" y="61"/>
			<point x="128" y="240"/>
			<point x="128" y="538" type="curve"/>
			<point x="135" y="654"/>
			<point x="191" y="760"/>
			<point x="310" y="769" type="curve"/>
			<point x="481" y="782"/>
			<point x="671" y="657"/>
			<point x="723" y="488" type="curve"/>
			<point x="735" y="488" type="line"/>
			<point x="735" y="491"/>
			<point x="717" y="600"/>
			<point x="717" y="637" type="curve"/>
			<point x="717" y="679"/>
			<point x="717" y="701"/>
			<point x="735" y="780" type="curve"/>
			<point x="723" y="780" type="line"/>
			<point x="716" y="737"/>
			<point x="702" y="705"/>
			<point x="678" y="683" type="curve"/>
			<point x="602" y="762"/>
			<point x="496" y="805"/>
			<point x="387" y="805" type="curve"/>
			<point x="206" y="805"/>
			<point x="71" y="707"/>
			<point x="71" y="500" type="curve"/>
			<point x="71" y="170"/>
			<point x="758" y="-46"/>
			<point x="758" y="-443" type="curve"/>
			<point x="758" y="-687"/>
			<point x="591" y="-765"/>
			<point x="369" y="-772" type="curve"/>
			<point x="244" y="-772"/>
			<point x="91" y="-636"/>
			<point x="49" y="-497" type="curve"/>
			<point x="37" y="-497" type="line"/>
			<point x="37" y="-500"/>
			<point x="55" y="-609"/>
			<point x="55" y="-646" type="curve"/>
			<point x="55" y="-688"/>
			<point x="55" y="-710"/>
			<point x="37" y="-789" type="curve"/>
			<point x="49" y="-789" type="line"/>
			<point x="56" y="-746"/>
			<point x="70" y="-714"/>
			<point x="94" y="-692" type="curve"/>
			<point x="160" y="-760"/>
			<point x="248" y="-802"/>
			<point x="342" y="-812" type="curve"/>
			<point x="293" y="-921" type="line"/>
			<point x="323" y="-910"/>
			<point x="378" y="-899"/>
			<point x="414" y="-899" type="curve"/>
			<point x="436" y="-899"/>
			<point x="452" y="-903"/>
			<point x="452" y="-914" type="curve"/>
			<point x="452" y="-1024"/>
			<point x="349" y="-1097"/>
		</contour>
	</outline>
</glyph>
<glyph name="scedilla" format="2">
	<advance width="493"/>
	<unicode hex="015F"/>
	<note>
		scedilla
  </note>
	<outline>
		<contour>
			<point x="182" y="-266" type="curve"/>
			<point x="182" y="-266" type="line"/>
			<point x="210" y="-266" type="line" smooth="yes"/>
			<point x="296" y="-266"/>
			<point x="399" y="-157"/>
			<point x="399" y="-78" type="curve"/>
			<point x="399" y="-62"/>
			<point x="374" y="-49"/>
			<point x="340" y="-49" type="curve"/>
			<point x="249" y="-49"/>
			<point x="239" y="-61"/>
			<point x="239" y="-61" type="curve"/>
			<point x="286" y="0" type="line"/>
			<point x="363" y="17"/>
			<point x="427" y="64"/>
			<point x="427" y="140" type="curve"/>
			<point x="427" y="249"/>
			<point x="327" y="257"/>
			<point x="255" y="285" type="curve"/>
			<point x="155" y="322"/>
			<point x="136" y="336"/>
			<point x="136" y="373" type="curve"/>
			<point x="136" y="399"/>
			<point x="163" y="443"/>
			<point x="240" y="443" type="curve"/>
			<point x="285" y="443"/>
			<point x="346" y="404"/>
			<point x="346" y="318" type="curve"/>
			<point x="414" y="363" type="line"/>
			<point x="388" y="431"/>
			<point x="310" y="460"/>
			<point x="242" y="460" type="curve"/>
			<point x="168" y="460"/>
			<point x="86" y="416"/>
			<point x="86" y="334" type="curve"/>
			<point x="86" y="258"/>
			<point x="171" y="222"/>
			<point x="234" y="202" type="curve"/>
			<point x="254" y="196"/>
			<point x="363" y="179"/>
			<point x="363" y="114" type="curve"/>
			<point x="363" y="38"/>
			<point x="284" y="9"/>
			<point x="239" y="9" type="curve"/>
			<point x="172" y="9"/>
			<point x="72" y="74"/>
			<point x="66" y="109" type="curve"/>
			<point x="66" y="12" type="line"/>
			<point x="104" y="12"/>
			<point x="162" y="-6"/>
			<point x="209" y="-8" type="curve"/>
			<point x="164" y="-90" type="line"/>
			<point x="194" y="-79"/>
			<point x="249" y="-68"/>
			<point x="285" y="-68" type="curve"/>
			<point x="307" y="-68"/>
			<point x="323" y="-72"/>
			<point x="323" y="-83" type="curve"/>
			<point x="323" y="-193"/>
			<point x="220" y="-266"/>
		</contour>
	</outline>
</glyph>
<glyph name="scaron" format="2">
	<advance width="527"/>
	<unicode hex="0161"/>
	<note>
		scaron
  </note>
	<outline>
		<contour>
			<point x="230" y="-8" type="curve"/>
			<point x="230" y="-8" type="line"/>
			<point x="333" y="-8"/>
			<point x="441" y="42"/>
			<point x="441" y="140" type="curve"/>
			<point x="441" y="249"/>
			<point x="341" y="257"/>
			<point x="269" y="285" type="curve"/>
			<point x="169" y="322"/>
			<point x="150" y="336"/>
			<point x="150" y="373" type="curve"/>
			<point x="150" y="399"/>
			<point x="177" y="443"/>
			<point x="254" y="443" type="curve"/>
			<point x="299" y="443"/>
			<point x="360" y="404"/>
			<point x="360" y="318" type="curve"/>
			<point x="428" y="363" type="line"/>
			<point x="402" y="431"/>
			<point x="324" y="460"/>
			<point x="256" y="460" type="curve"/>
			<point x="182" y="460"/>
			<point x="100" y="416"/>
			<point x="100" y="334" type="curve"/>
			<point x="100" y="242"/>
			<point x="185" y="222"/>
			<point x="248" y="202" type="curve"/>
			<point x="268" y="196"/>
			<point x="377" y="179"/>
			<point x="377" y="114" type="curve"/>
			<point x="377" y="38"/>
			<point x="298" y="9"/>
			<point x="253" y="9" type="curve"/>
			<point x="186" y="9"/>
			<point x="86" y="74"/>
			<point x="80" y="109" type="curve"/>
			<point x="80" y="12" type="line"/>
			<point x="120" y="12"/>
			<point x="182" y="-8"/>
		</contour>
		<contour>
			<point x="66" y="682" type="line"/>
			<point x="264" y="558" type="line"/>
			<point x="461" y="682" type="line"/>
			<point x="450" y="694" type="line"/>
			<point x="266" y="619" type="line"/>
			<point x="77" y="694" type="line"/>
		</contour>
	</outline>
</glyph>
<glyph name="uni0162" format="2">
	<advance width="1001"/>
	<unicode hex="0162"/>
	<note>
		uni0162
  </note>
	<outline>
		<contour>
			<point x="425" y="-1084" type="curve"/>
			<point x="425" y="-1084" type="line"/>
			<point x="453" y="-1084" type="line" smooth="yes"/>
			<point x="539" y="-1084"/>
			<point x="642" y="-975"/>
			<point x="642" y="-896" type="curve"/>
			<point x="642" y="-880"/>
			<point x="617" y="-867"/>
			<point x="583" y="-867" type="curve"/>
			<point x="491" y="-867"/>
			<point x="482" y="-879"/>
			<point x="482" y="-879" type="curve"/>
			<point x="531" y="-802" type="line"/>
			<point x="577" y="-807"/>
			<point x="637" y="-817"/>
			<point x="639" y="-817" type="curve"/>
			<point x="639" y="-805" type="line"/>
			<point x="528" y="-788"/>
			<point x="527" y="-715"/>
			<point x="527" y="-584" type="curve"/>
			<point x="527" y="734" type="line"/>
			<point x="772" y="734" type="line" smooth="yes"/>
			<point x="898" y="730"/>
			<point x="913" y="645"/>
			<point x="916" y="631" type="curve"/>
			<point x="937" y="488" type="line"/>
			<point x="949" y="488" type="line"/>
			<point x="949" y="491"/>
			<point x="931" y="600"/>
			<point x="931" y="637" type="curve"/>
			<point x="931" y="679"/>
			<point x="931" y="701"/>
			<point x="949" y="780" type="curve"/>
			<point x="937" y="780" type="line"/>
			<point x="930" y="753"/>
			<point x="914" y="749"/>
			<point x="891" y="748" type="curve"/>
			<point x="109" y="748" type="line"/>
			<point x="86" y="749"/>
			<point x="70" y="753"/>
			<point x="64" y="780" type="curve"/>
			<point x="52" y="780" type="line"/>
			<point x="70" y="701"/>
			<point x="70" y="679"/>
			<point x="70" y="637" type="curve"/>
			<point x="70" y="600"/>
			<point x="52" y="491"/>
			<point x="52" y="488" type="curve"/>
			<point x="64" y="488" type="line"/>
			<point x="85" y="631" type="line"/>
			<point x="88" y="645"/>
			<point x="103" y="730"/>
			<point x="229" y="734" type="curve"/>
			<point x="459" y="734" type="line"/>
			<point x="459" y="-586" type="line" smooth="yes"/>
			<point x="459" y="-717"/>
			<point x="458" y="-788"/>
			<point x="347" y="-805" type="curve"/>
			<point x="347" y="-817" type="line"/>
			<point x="402" y="-804"/>
			<point x="430" y="-801"/>
			<point x="455" y="-799" type="curve"/>
			<point x="407" y="-908" type="line"/>
			<point x="437" y="-897"/>
			<point x="492" y="-886"/>
			<point x="528" y="-886" type="curve"/>
			<point x="550" y="-886"/>
			<point x="566" y="-890"/>
			<point x="566" y="-901" type="curve"/>
			<point x="566" y="-1011"/>
			<point x="463" y="-1084"/>
		</contour>
	</outline>
</glyph>
<glyph name="uogonek" format="2">
	<advance width="696"/>
	<unicode hex="0173"/>
	<note>
		uogonek
  </note>
	<outline>
		<contour>
			<point x="486" y="-200" type="curve"/>
			<point x="486" y="-200" type="line"/>
			<point x="513" y="-200"/>
			<point x="547" y="-180"/>
			<point x="547" y="-147" type="curve"/>
			<point x="547" y="-126"/>
			<point x="535" y="-113"/>
			<point x="519" y="-113" type="curve"/>
			<point x="506" y="-113"/>
			<point x="501" y="-118"/>
			<point x="491" y="-118" type="curve"/>
			<point x="483" y="-118"/>
			<point x="474" y="-113"/>
			<point x="468" y="-104" type="curve"/>
			<point x="462" y="-95"/>
			<point x="460" y="-85"/>
			<point x="460" y="-74" type="curve"/>
			<point x="460" y="-44"/>
			<point x="477" y="-10"/>
			<point x="494" y="5" type="curve"/>
			<point x="536" y="34"/>
			<point x="581" y="49"/>
			<point x="643" y="49" type="curve"/>
			<point x="643" y="61" type="line"/>
			<point x="534" y="78"/>
			<point x="531" y="77"/>
			<point x="531" y="203" type="curve"/>
			<point x="531" y="454" type="line"/>
			<point x="391" y="414" type="line"/>
			<point x="391" y="402" type="line"/>
			<point x="462" y="388"/>
			<point x="463" y="376"/>
			<point x="463" y="247" type="curve"/>
			<point x="463" y="214"/>
			<point x="456" y="31"/>
			<point x="280" y="31" type="curve"/>
			<point x="247" y="31"/>
			<point x="201" y="80"/>
			<point x="201" y="164" type="curve"/>
			<point x="201" y="454" type="line"/>
			<point x="133" y="436"/>
			<point x="54" y="424"/>
			<point x="51" y="424" type="curve"/>
			<point x="51" y="412" type="line"/>
			<point x="133" y="399"/>
			<point x="133" y="356"/>
			<point x="133" y="232" type="curve"/>
			<point x="133" y="146" type="line" smooth="yes"/>
			<point x="133" y="29"/>
			<point x="208" y="3"/>
			<point x="276" y="3" type="curve"/>
			<point x="389" y="3"/>
			<point x="441" y="83"/>
			<point x="464" y="153" type="curve"/>
			<point x="464" y="-2" type="line"/>
			<point x="423" y="-37"/>
			<point x="405" y="-78"/>
			<point x="405" y="-114" type="curve"/>
			<point x="405" y="-162"/>
			<point x="437" y="-200"/>
		</contour>
	</outline>
</glyph>
<glyph name="wcircumflex" format="2">
	<advance width="873"/>
	<unicode hex="0175"/>
	<note>
		wcircumflex
  </note>
	<outline>
		<contour>
			<point x="60" y="441" type="line"/>
			<point x="321" y="-40" type="line"/>
			<point x="443" y="214" type="line"/>
			<point x="581" y="-40" type="line"/>
			<point x="813" y="441" type="line"/>
		</contour>
		<contour>
			<point x="433" y="233" type="line"/>
			<point x="350" y="59" type="line"/>
			<point x="151" y="428" type="line"/>
			<point x="327" y="427" type="line"/>
		</contour>
		<contour>
			<point x="525" y="427" type="line"/>
			<point x="472" y="315" type="line"/>
			<point x="411" y="427" type="line"/>
		</contour>
		<contour>
			<point x="785" y="427" type="line"/>
			<point x="610" y="59" type="line"/>
			<point x="483" y="295" type="line"/>
			<point x="546" y="427" type="line"/>
		</contour>
		<contour>
			<point x="239" y="582" type="line"/>
			<point x="250" y="570" type="line"/>
			<point x="439" y="645" type="line"/>
			<point x="623" y="570" type="line"/>
			<point x="634" y="582" type="line"/>
			<point x="437" y="706" type="line"/>
		</contour>
	</outline>
</glyph>
<glyph name="Ycircumflex" format="2">
	<advance width="1009"/>
	<unicode hex="0176"/>
	<note>
		Ycircumflex
  </note>
	<outline>
		<contour>
			<point x="-158" y="-805" type="curve"/>
			<point x="-158" y="-817" type="line"/>
			<point x="-79" y="-799"/>
			<point x="-57" y="-799"/>
			<point x="-15" y="-799" type="curve"/>
			<point x="22" y="-799"/>
			<point x="131" y="-817"/>
			<point x="134" y="-817" type="curve"/>
			<point x="134" y="-805" type="line"/>
			<point x="85" y="-797"/>
			<point x="66" y="-776"/>
			<point x="66" y="-745" type="curve"/>
			<point x="66" y="-705"/>
			<point x="95" y="-651"/>
			<point x="131" y="-589" type="curve"/>
			<point x="932" y="770" type="line"/>
			<point x="70" y="770" type="line"/>
			<point x="442" y="64" type="line"/>
			<point x="445" y="64"/>
			<point x="217" y="-330"/>
			<point x="68" y="-586" type="curve"/>
			<point x="-3" y="-698"/>
			<point x="-47" y="-788"/>
		</contour>
		<contour>
			<point x="852" y="748" type="line"/>
			<point x="455" y="82" type="line"/>
			<point x="100" y="747" type="line"/>
		</contour>
		<contour>
			<point x="307" y="861" type="line"/>
			<point x="318" y="849" type="line"/>
			<point x="507" y="924" type="line"/>
			<point x="691" y="849" type="line"/>
			<point x="702" y="861" type="line"/>
			<point x="505" y="985" type="line"/>
		</contour>
	</outline>
</glyph>
<glyph name="Ydieresis" format="2">
	<advance width="1009"/>
	<unicode hex="0178"/>
	<note>
		Ydieresis
  </note>
	<outline>
		<contour>
			<point x="-158" y="-805" type="curve"/>
			<point x="-158" y="-817" type="line"/>
			<point x="-79" y="-799"/>
			<point x="-57" y="-799"/>
			<point x="-15" y="-799" type="curve"/>
			<point x="22" y="-799"/>
			<point x="131" y="-817"/>
			<point x="134" y="-817" type="curve"/>
			<point x="134" y="-805" type="line"/>
			<point x="85" y="-797"/>
			<point x="66" y="-776"/>
			<point x="66" y="-745" type="curve"/>
			<point x="66" y="-705"/>
			<point x="95" y="-651"/>
			<point x="131" y="-589" type="curve"/>
			<point x="932" y="770" type="line"/>
			<point x="70" y="770" type="line"/>
			<point x="442" y="64" type="line"/>
			<point x="445" y="64"/>
			<point x="217" y="-330"/>
			<point x="68" y="-586" type="curve"/>
			<point x="-3" y="-698"/>
			<point x="-47" y="-788"/>
		</contour>
		<contour>
			<point x="852" y="748" type="line"/>
			<point x="455" y="82" type="line"/>
			<point x="100" y="747" type="line"/>
		</contour>
		<contour>
			<point x="415" y="843" type="curve"/>
			<point x="415" y="843" type="line"/>
			<point x="443" y="843"/>
			<point x="466" y="865"/>
			<point x="466" y="893" type="curve"/>
			<point x="466" y="921"/>
			<point x="443" y="944"/>
			<point x="415" y="944" type="curve"/>
			<point x="387" y="944"/>
			<point x="365" y="921"/>
			<point x="365" y="893" type="curve"/>
			<point x="365" y="865"/>
			<point x="387" y="843"/>
		</contour>
		<contour>
			<point x="615" y="843" type="curve"/>
			<point x="615" y="843" type="line"/>
			<point x="643" y="843"/>
			<point x="666" y="865"/>
			<point x="666" y="893" type="curve"/>
			<point x="666" y="921"/>
			<point x="643" y="944"/>
			<point x="615" y="944" type="curve"/>
			<point x="587" y="944"/>
			<point x="565" y="921"/>
			<point x="565" y="893" type="curve"/>
			<point x="565" y="865"/>
			<point x="587" y="843"/>
		</contour>
	</outline>
</glyph>
<glyph name="zdotaccent" format="2">
	<advance width="579"/>
	<unicode hex="017C"/>
	<note>
		zdotaccent
  </note>
	<outline>
		<contour>
			<point x="68" y="15" type="line"/>
			<point x="68" y="0" type="line"/>
			<point x="465" y="0" type="line"/>
			<point x="465" y="43"/>
			<point x="533" y="135"/>
			<point x="543" y="200" type="curve"/>
			<point x="522" y="200" type="line"/>
			<point x="522" y="76"/>
			<point x="392" y="14"/>
			<point x="316" y="14" type="curve"/>
			<point x="145" y="13" type="line"/>
			<point x="493" y="441" type="line"/>
			<point x="111" y="441" type="line"/>
			<point x="111" y="431"/>
			<point x="112" y="420"/>
			<point x="112" y="405" type="curve"/>
			<point x="112" y="368"/>
			<point x="106" y="315"/>
			<point x="66" y="240" type="curve"/>
			<point x="78" y="240" type="line"/>
			<point x="128" y="358"/>
			<point x="178" y="427"/>
			<point x="254" y="427" type="curve"/>
			<point x="402" y="428" type="line"/>
		</contour>
		<contour>
			<point x="289" y="516" type="curve"/>
			<point x="289" y="516" type="line"/>
			<point x="317" y="516"/>
			<point x="340" y="538"/>
			<point x="340" y="566" type="curve"/>
			<point x="340" y="594"/>
			<point x="317" y="617"/>
			<point x="289" y="617" type="curve"/>
			<point x="261" y="617"/>
			<point x="239" y="594"/>
			<point x="239" y="566" type="curve"/>
			<point x="239" y="538"/>
			<point x="261" y="516"/>
		</contour>
	</outline>
</glyph>
<glyph name="Uhorn" format="2">
	<advance width="1149"/>
	<unicode hex="01AF"/>
	<anchor x="1034" y="10" name="ogonek"/>
	<anchor x="575" y="750" name="top"/>
	<anchor x="1008.819" y="675" name="topright"/>
	<anchor x="575" y="0" name="bottom"/>
	<outline>
		<contour>
			<point x="562" y="-12" type="curve"/>
			<point x="562" y="-12" type="line"/>
			<point x="796" y="-12"/>
			<point x="949" y="123"/>
			<point x="949" y="400" type="curve"/>
			<point x="949" y="536" type="line" smooth="yes"/>
			<point x="949" y="667"/>
			<point x="961" y="736"/>
			<point x="1072" y="753" type="curve"/>
			<point x="1072" y="765" type="line"/>
			<point x="1069" y="765"/>
			<point x="977" y="747"/>
			<point x="940" y="747" type="curve"/>
			<point x="898" y="747"/>
			<point x="896" y="747"/>
			<point x="817" y="765" type="curve"/>
			<point x="817" y="753" type="line"/>
			<point x="928" y="736"/>
			<point x="936" y="666"/>
			<point x="935" y="535" type="curve"/>
			<point x="935" y="400" type="line" smooth="yes"/>
			<point x="935" y="157"/>
			<point x="813" y="0"/>
			<point x="561" y="0" type="curve"/>
			<point x="379" y="0"/>
			<point x="257" y="127"/>
			<point x="257" y="396" type="curve"/>
			<point x="257" y="532" type="line" smooth="yes"/>
			<point x="257" y="663"/>
			<point x="258" y="736"/>
			<point x="369" y="753" type="curve"/>
			<point x="369" y="765" type="line"/>
			<point x="366" y="765"/>
			<point x="257" y="747"/>
			<point x="220" y="747" type="curve"/>
			<point x="178" y="747"/>
			<point x="156" y="747"/>
			<point x="77" y="765" type="curve"/>
			<point x="77" y="753" type="line"/>
			<point x="188" y="736"/>
			<point x="190" y="665"/>
			<point x="189" y="534" type="curve"/>
			<point x="188" y="395" type="line" smooth="yes"/>
			<point x="188" y="103"/>
			<point x="351" y="-12"/>
		</contour>
		<contour>
			<point x="1001" y="544" type="curve"/>
			<point x="1001" y="544" type="line"/>
			<point x="1098" y="544"/>
			<point x="1153" y="596"/>
			<point x="1153" y="647" type="curve"/>
			<point x="1153" y="666"/>
			<point x="1145" y="685"/>
			<point x="1129" y="701" type="curve"/>
			<point x="1118" y="712"/>
			<point x="1101" y="720"/>
			<point x="1084" y="720" type="curve"/>
			<point x="1071" y="720"/>
			<point x="1059" y="716"/>
			<point x="1049" y="706" type="curve"/>
			<point x="1041" y="698"/>
			<point x="1037" y="689"/>
			<point x="1037" y="680" type="curve"/>
			<point x="1037" y="674"/>
			<point x="1039" y="667"/>
			<point x="1044" y="662" type="curve"/>
			<point x="1060" y="645"/>
			<point x="1078" y="651"/>
			<point x="1078" y="620" type="curve"/>
			<point x="1078" y="579"/>
			<point x="1010" y="563"/>
			<point x="940" y="563" type="curve"/>
			<point x="942" y="550" type="line"/>
			<point x="963" y="546"/>
			<point x="982" y="544"/>
		</contour>
	</outline>
</glyph>
<glyph name="uni0218" format="2">
	<advance width="820"/>
	<unicode hex="0218"/>
	<note>
		Scommaaccent
  </note>
	<outline>
		<contour>
			<point x="377" y="-814" type="curve"/>
			<point x="377" y="-814" type="line"/>
			<point x="709" y="-814"/>
			<point x="804" y="-544"/>
			<point x="803" y="-366" type="curve"/>
			<point x="803" y="61"/>
			<point x="128" y="240"/>
			<point x="128" y="538" type="curve"/>
			<point x="135" y="654"/>
			<point x="191" y="760"/>
			<point x="310" y="769" type="curve"/>
			<point x="481" y="782"/>
			<point x="671" y="657"/>
			<point x="723" y="488" type="curve"/>
			<point x="735" y="488" type="line"/>
			<point x="735" y="491"/>
			<point x="717" y="600"/>
			<point x="717" y="637" type="curve"/>
			<point x="717" y="679"/>
			<point x="717" y="701"/>
			<point x="735" y="780" type="curve"/>
			<point x="723" y="780" type="line"/>
			<point x="716" y="737"/>
			<point x="702" y="705"/>
			<point x="678" y="683" type="curve"/>
			<point x="602" y="762"/>
			<point x="496" y="805"/>
			<point x="387" y="805" type="curve"/>
			<point x="206" y="805"/>
			<point x="71" y="707"/>
			<point x="71" y="500" type="curve"/>
			<point x="71" y="170"/>
			<point x="758" y="-46"/>
			<point x="758" y="-443" type="curve"/>
			<point x="758" y="-687"/>
			<point x="591" y="-765"/>
			<point x="369" y="-772" type="curve"/>
			<point x="244" y="-772"/>
			<point x="91" y="-636"/>
			<point x="49" y="-497" type="curve"/>
			<point x="37" y="-497" type="line"/>
			<point x="37" y="-500"/>
			<point x="55" y="-609"/>
			<point x="55" y="-646" type="curve"/>
			<point x="55" y="-688"/>
			<point x="55" y="-710"/>
			<point x="37" y="-789" type="curve"/>
			<point x="49" y="-789" type="line"/>
			<point x="56" y="-746"/>
			<point x="70" y="-714"/>
			<point x="94" y="-692" type="curve"/>
			<point x="168" y="-769"/>
			<point x="271" y="-812"/>
		</contour>
		<contour>
			<point x="283" y="-1048" type="curve"/>
			<point x="288" y="-1061" type="line"/>
			<point x="344" y="-1061"/>
			<point x="423" y="-1009"/>
			<point x="423" y="-924" type="curve"/>
			<point x="423" y="-910"/>
			<point x="422" y="-895"/>
			<point x="412" y="-883" type="curve"/>
			<point x="402" y="-872"/>
			<point x="388" y="-866"/>
			<point x="374" y="-866" type="curve"/>
			<point x="362" y="-866"/>
			<point x="350" y="-870"/>
			<point x="340" y="-878" type="curve"/>
			<point x="331" y="-886"/>
			<point x="322" y="-897"/>
			<point x="322" y="-917" type="curve"/>
			<point x="322" y="-951"/>
			<point x="355" y="-951"/>
			<point x="355" y="-986" type="curve"/>
			<point x="355" y="-1013"/>
			<point x="310" y="-1048"/>
		</contour>
	</outline>
</glyph>
